<svg xmlns="http://www.w3.org/2000/svg" width="3348" height="2532" preserveAspectRatio="none" style="display:block" viewBox="0 0 2532 2532"><defs><linearGradient id="b" x1="96.4" x2="91.3" y1="30.1" y2="-.4" gradientUnits="userSpaceOnUse"><stop class="stop0" offset="0" stop-color="#1b0a07"/><stop class="stop1" offset="1" stop-color="#000303"/></linearGradient><linearGradient id="a" x1="908.7" x2="885.6" y1="2453.8" y2="2524.9" gradientUnits="userSpaceOnUse"><stop class="stop0" offset="0" stop-color="#cdaa70"/><stop class="stop1" offset="1" stop-color="#d8c19f"/></linearGradient></defs><path fill="#363636" d="M1169 3h67c3 54 54 50 55 0 8 0 62-1 67 1 2 12 1 16 9 27 7 11 20 16 31 7 12-9 14-22 16-35h67c2 11 4 28 15 34 28 16 40-13 41-34h68c1 11 2 26 12 33 27 19 42-11 42-33h67l4 21c9 13 12 18 27 18h1c19-8 23-20 24-39h69c3 49 49 55 55 0h66l2 6c1 8 7 25 14 30 9 8 24 1 31-6 8-13 7-15 9-30h68c1 11 3 25 12 32 29 22 38-8 45-30q2-2 5-2h62c3 50 50 55 55 0h67c4 50 50 55 56 0h60c18 24 56 67 70 96 2 4 2 39 2 47l-1 75 1 267v1970c0 27 0 66-37 71h-92c-2-11-6-27-17-32-27-14-37 13-41 32h-64c-8-48-50-50-58 0-9 0-59 2-64-1l-1-2c-8-33-31-47-53-16l-6 19h-65c-8-48-50-48-58 0h-64c-4-24-15-44-42-33-11 14-13 16-16 33h-65l-4-17c-6-9-10-16-22-19q-10-1-18 4c-7 6-11 17-13 25l-1 5c-6 4-54 2-65 2-11-50-51-47-59 0h-65c-9-48-49-48-57 0-14 0-51 2-65-2l-1-5c-12-42-48-37-57 3l-1 2c-6 4-54 2-64 2-6-47-47-50-58 0h-64c-9-49-51-48-58 0h-65c-9-50-55-46-57 0h-66c-3-20-17-46-42-32-11 6-14 20-17 32h-64c-4-18-16-47-42-32-10 6-14 21-16 32h-65c-9-49-50-48-58 0h-64c-4-19-15-46-42-32-10 5-15 21-17 32h-65c-8-48-50-48-58 0h-63c-6-24-15-44-43-33a51 51 0 0 0-16 33h-65c-12-49-50-48-58 0H63c-33 1-53-2-60-39l-3-8V41c4-7 7-23 18-33 9-8 37-5 49-5h62l3 19 1 2c8 13 11 17 27 19 20-8 24-20 25-40h69c5 53 50 52 55 0h66c3 4 6 33 18 37 27 10 36-17 39-37h67c2 19 10 45 35 38 17-5 15-24 21-36 6-4 56-2 66-2l1 1c3 13 2 22 13 32 18 18 36-2 41-21l1-12h68c2 48 50 56 57 0h66q-1 18 12 33c10 10 24 8 33-3q10-13 10-30h67c5 54 54 51 55 0h69c3 53 54 51 55 0"/><path fill="#030202" d="M1169 3h67c3 54 54 50 55 0 8 0 62-1 67 1 2 12 1 16 9 27 7 11 20 16 31 7 12-9 14-22 16-35h67c2 11 4 28 15 34 28 16 40-13 41-34h68c1 11 2 26 12 33 27 19 42-11 42-33h67l4 21c9 13 12 18 27 18h1c19-8 23-20 24-39h69c3 49 49 55 55 0h66l2 6c1 8 7 25 14 30 9 8 24 1 31-6 8-13 7-15 9-30h68c1 11 3 25 12 32 29 22 38-8 45-30q2-2 5-2h62c3 50 50 55 55 0h67c4 50 50 55 56 0h60c18 24 56 67 70 96 2 4 2 39 2 47l-1 75 1 267v1970c0 27 0 66-37 71h-92c-2-11-6-27-17-32-27-14-37 13-41 32h-64c-8-48-50-50-58 0-9 0-59 2-64-1l-1-2c-8-33-31-47-53-16l-6 19h-65c-8-48-50-48-58 0h-64c-4-24-15-44-42-33-11 14-13 16-16 33h-65l-4-17c-6-9-10-16-22-19q-10-1-18 4c-7 6-11 17-13 25l-1 5c-6 4-54 2-65 2-11-50-51-47-59 0h-65c-9-48-49-48-57 0-14 0-51 2-65-2l-1-5c-12-42-48-37-57 3l-1 2c-6 4-54 2-64 2-6-47-47-50-58 0h-64c-9-49-51-48-58 0h-65c-9-50-55-46-57 0h-66c-3-20-17-46-42-32-11 6-14 20-17 32h-64c-4-18-16-47-42-32-10 6-14 21-16 32h-65c-9-49-50-48-58 0h-64c-4-19-15-46-42-32-10 5-15 21-17 32h-65c-8-48-50-48-58 0h-63c-6-24-15-44-43-33a51 51 0 0 0-16 33h-65c-12-49-50-48-58 0H63c-33 1-53-2-60-39l-3-8V41c4-7 7-23 18-33 9-8 37-5 49-5-11 3-5 6-17 8-31 2-42 9-43 43l1 268v2068l-1 70c0 18 1 40 16 53q7 4 13 6c10 2 63 1 75 1v-75h98v75h25v-75h99q1 38-1 76h25v-76h98v75h25v-75h98v76h25c0-16-2-63 0-76h98l1 76h24v-76h97v76h25v-76h99l-1 76h25l-1-76q50 0 99 1l2 74h22c0-23-1-51 1-75l98 1v75c11-1 14-1 25 1v-76h97v75h25c0-20-1-58 1-75 29-1 68-2 97-1v76h25v-76c29 0 71 2 98 0v76h24v-76c31 0 68-1 99 1l1 75 24-1v-75h98v76h25v-76h99v76l23-1c0-14-2-63 3-73 8-4 81-1 96-2l1 75h24l1-74 97-1v76h26v-76c27 1 74-2 98 0v76l24-1v-75h97v75c21 1 60 1 80-1 30-19 23-54 23-85v-74l-1-413V755l1-404-1-196v-54q-14-23-31-45l-36-45-36 1v78h-98V11l-24-1v80c-25 0-75 2-98 0V11h-26l1 79h-98l-1-79h-25v79l-99 1c-1-25 1-56 1-81h-25c0 22 2 61 1 80h-99V12l-25-1v78l-97 1V10l-26-1v81h-98V11h-24v79h-99l1-79-26-1c0 11 2 71-1 78-10 5-78 1-96 2V11h-25v78l-98 1V11h-24v78c-30 2-68 1-98 1V10h-26l1 80h-98l1-80-27 1 1 79h-98V11h-25v79h-97l2-6h4V33c0-7-1-18 1-23h-33l1 80h-98V11h-25v79h-98l-1-79-26-1 1 80c-24 0-77 2-98 0V10l-24 1v79h-98c0-22-1-57 1-79h-27v79h-97V43c3-9 1-16 2-25 0 7-1 24 3 29 1-8-2-32 4-37 5 3 6 13 9 19 4-2 2-1 5-5 8 13 11 17 27 19 20-8 24-20 25-40h69c5 53 50 52 55 0h66c3 4 6 33 18 37 27 10 36-17 39-37h67c2 19 10 45 35 38 17-5 15-24 21-36 6-4 56-2 66-2l1 1c3 13 2 22 13 32 18 18 36-2 41-21l1-12h68c2 48 50 56 57 0h66q-1 18 12 33c10 10 24 8 33-3q10-13 10-30h67c5 54 54 51 55 0h69c3 53 54 51 55 0"/><path fill="#d7b77e" d="M375 3c3 4 6 33 18 37 27 10 36-17 39-37l1 9 5 1c5-1 4-2 8 1q2 6 1 13v45q1 6-1 11c-7 1-80 1-84-1l-2-5-1-66 2-2c7 0 10 1 14-6"/><path fill="#cdb38c" d="M375 3c3 4 6 33 18 37 27 10 36-17 39-37l1 9 5 1c5-1 4-2 8 1q2 6 1 13-2-6-5-8-5 6-7 13c-15 26-22 24-46 23q-7-5-11-12-5-9-11-17h-2c-3 7-3 45-2 52 3 1 14-1 19-1q30 0 58 2l7-7q1 6-1 11c-7 1-80 1-84-1l-2-5-1-66 2-2c7 0 10 1 14-6"/><path fill="#140804" d="M375 3c3 4 6 33 18 37 27 10 36-17 39-37l1 9 5 1c-3 11-7 27-17 33q-26 14-42-9c-4-8-8-20-12-26h-3c-6 12-1 50-4 66l-1-66 2-2c7 0 10 1 14-6"/><path fill="#d7b77e" d="m1972 3 2 6c1 8 7 25 14 30 9 8 24 1 31-6l2 2 7-1 4-7 3-13c3-2 1-2 5-1 6 7 4 57 4 71h-86V37c-6-18-7-26 12-30z"/><path fill="#140804" d="m1972 3 2 6c1 8 7 25 14 30 9 8 24 1 31-6l2 2 7-1c-6 9-9 11-19 17-39 5-31-25-46-40h-3c-3 6-2 19-2 26-6-18-7-26 12-30z"/><path fill="#cdb38c" d="M2032 27q0 9-5 16-6 9-17 9l-1-1c10-6 13-8 19-17z"/><path fill="#d7b77e" d="m1414 3 1 10h4c4-1 4-2 8-1 4 6 2 18 2 25v47h-85V45c0-9-1-25 3-33h2q5 3 5 9l3 1V5l1-1c2 12 1 16 9 27 7 11 20 16 31 7 12-9 14-22 16-35"/><path fill="#cdb38c" d="m1414 3 1 10h4c4-1 4-2 8-1 4 6 2 18 2 25-5-6-4-6-5-15-3 1-2 0-5 3 2 16-11 26-25 32-7 0-31 0-32-10q0-2-2-6c-7-6-4-14-13-18-2 13 3 29-1 41 0-5 0-14-2-19 0-9-1-25 3-33h2q5 3 5 9l3 1V5l1-1c2 12 1 16 9 27 7 11 20 16 31 7 12-9 14-22 16-35"/><path fill="#140804" d="m1414 3 1 10h4c-7 52-61 46-65 8l3 1V5l1-1c2 12 1 16 9 27 7 11 20 16 31 7 12-9 14-22 16-35"/><path fill="#cdb38c" d="M2084 2454h86v67c-4 4-7 2-12 2q-2 2-2 3c-8-33-31-47-53-16v-6l-7 3q-1 9-7 13l-2-1c-4-11-3-51-3-65"/><path fill="#140804" d="M2170 2454v67c-4 4-7 2-12 2q-2 2-2 3c-8-33-31-47-53-16v-6l-7 3 2-3c7-13 15-17 28-21 33 8 26 26 39 39l2-1c4-8 1-53 3-67"/><path fill="#d1b17f" d="M2106 2460c10-2 46-1 57 0l1 33v-2 19l-1 1c-4-4-9-16-11-20l1-1-2-1-10-8c-19-1-33 1-44 18l-8 13v-3c6-14-5-33 2-45q7-5 15-4"/><path fill="#cdb38c" d="M115 47c1-8-2-32 4-37 5 3 6 13 9 19 4-2 2-1 5-5 8 13 11 17 27 19l1 3 3 1q9-3 18-10c8-9 4-20 14-25h4c2 4 1 62 1 72h-86z"/><path fill="#140804" d="M128 29c4-2 2-1 5-5 8 13 11 17 27 19l1 3 3 1q9-3 18-10-5 8-13 12-10 4-20 1-16-6-21-21"/><path fill="#d7b77e" d="m119 21 3 1c3 8 13 28 21 31 35 12 46-27 53-30 6 13-1 24 2 37q3 10-4 17c-8 1-67 2-72 0-2-10-2-27-2-38l-1 13z"/><path fill="#cdb38c" d="M1346 2454h85c0 8 2 62-2 66l-7 1-4-6-1 7c-12-42-48-37-57 3v-8l-2-1-2 1c-4 3-2 3-7 3-6-7-3-54-3-66"/><path fill="#d1b17f" d="M1349 2463q20-4 39-4l35 2h2c0 15 4 41 2 51-6-1-17-37-39-29-14 4-22 8-29 22l-3 6-4 4-2-1c-3-6-1-39-1-51"/><path fill="#140804" d="M1388 2483c19 4 34 17 34 38l-4-6-1 7c-12-42-48-37-57 3v-8l-2-1-2 1v-6l3-6c7-14 15-18 29-22"/><path fill="#d7b77e" d="M1713 84c0-14-2-62 2-71l2-1c5 4 3 3 6 9l2 1 2 4v-2l2 1 1-1c9 13 12 18 27 18h1l-3 3 8 5h1c22-12 15-19 26-38h4c6 4 4 12 4 19l-1 30 1 23z"/><path fill="#cdb38c" d="M1763 50h1c22-12 15-19 26-38h4c6 4 4 12 4 19l-1 30c-4-5-1-31-3-37l-2 1-2-1c-3 2-5 21-9 24-5 5-26 9-30 4z"/><path fill="#140804" d="m1723 21 2 1 2 4v-2l2 1 1-1c9 13 12 18 27 18h1l-3 3 8 5-12 2q-24-7-28-31"/><path fill="#d7b77e" d="M732 10c4 2 6 1 8 6q3 11 8 21c12 14 20 16 38 13l8-7c8-4 11-32 20-32 4 6 2 16 2 23v50h-85V33c0-7-1-18 1-23"/><path fill="#cdb38c" d="M732 10c4 2 6 1 8 6q3 11 8 21c12 14 20 16 38 13l-3 2c-19 13-34-3-45-18 2 14-3 31 0 44 11 1 66 2 74-3 4-8 3-28 2-38v-1l2-2v50h-85V33c0-7-1-18 1-23"/><path fill="#d1b17f" d="M1727 2507q-3 3-7 6l-1-1c-2-11-4-42-1-51 11-2 63-2 75-2q4 2 7 6v54l-2 2-6-1q-3-3-5-9l-4 1c-6-9-10-16-22-19q-10-1-18 4c-7 6-11 17-13 25q1-5-2-8l-3 2z"/><path fill="#140804" d="M1728 2506c17-31 44-29 61 1l3 13q-3-3-5-9l-4 1c-6-9-10-16-22-19q-10-1-18 4c-7 6-11 17-13 25q1-5-2-8l-3 2 2-9z"/><path fill="#cdb38c" d="M1728 2506c-2-7 6-22 14-25l-1 3q3 1 6-1c15-5 37 3 42 19v5c-17-30-44-32-61-1"/><path fill="#d7b77e" d="M682 20c4-3 4-4 9-4 1 11 1 46-1 57q-2 4-6 5c-15-2-57 4-68-4-2-4-4-43-5-53l1-1 6 1c13 43 58 37 64-1"/><path fill="#cdb38c" d="M682 20q1-6 4-8 6 0 7 2c3 19-1 49 2 69-16 2-69 0-87 0 0-10-2-66 2-72 7 3 7 2 8 10l-6-1-1 1c1 10 3 49 5 53 11 8 53 2 68 4q4-1 6-5c2-11 2-46 1-57-5 0-5 1-9 4"/><path fill="#140804" d="m621 3 1 1c3 13 2 22 13 32 18 18 36-2 41-21l1-12 1 14 1-1c4-8 6-11 15-8 5 6 2 65 1 75-3-20 1-50-2-69q-1-2-7-2-4 2-4 8c-6 38-51 44-64 1-1-8-1-7-8-10q8-2 11-8"/><path fill="#cdb38c" d="M1714 2454c14 0 74-1 85 1q2 4 1 10-3-4-7-6c-12 0-64 0-75 2-3 9-1 40 1 51l1 1q4-3 7-6l-2 9q0 3-4 4c-3 0-2 1-5-1-3-10-2-52-2-65"/><path fill="#d1b17f" d="M2327 84c0-12-2-65 3-71 6 2 13 22 21 30 19 18 36 8 48-12l1-1q1-10 7-17l2-1c7 6 4 59 4 72z"/><path fill="#cdb38c" d="M2327 84c0-12-2-65 3-71 6 2 13 22 21 30 19 18 36 8 48-12 0 15-12 24-26 26-25 4-30-24-41-32l-1 2c-1 7-2 41-1 48 9 2 66 5 76 0 4-11 1-29 3-41q2-8-1-12l-2 1-6 7q1-10 7-17l2-1c7 6 4 59 4 72z"/><path fill="#d7b77e" d="M2205 41q-1-14 2-29l3-1c13 14 4 35 38 41 37-10 25-42 41-39 3 5 2 60 2 71-16 0-71 1-84-1-3-4-2-4-2-10z"/><path fill="#cdb38c" d="M2205 41q-1-14 2-29l3-1c13 14 4 35 38 41 37-10 25-42 41-39 3 5 2 60 2 71-16 0-71 1-84-1-3-4-2-4-2-10 3 1 2 6 6 6h73c5 0 4-57 2-61-5 4-7 21-18 29-15 9-17 9-34 8-23-16-11-10-22-28l1-5h-4c-3 4 0 15-3 21z"/><path fill="#d7b77e" d="M976 12c16 2 11 31 30 37 33 11 37-14 47-36h6c5 5 3 23 3 31v40h-86z"/><path fill="#cdb38c" d="M1589 12h6c5 4 9 23 15 29 6 7 9 9 19 10 30 4 31-31 41-40h2c4 8 3 25 3 34v39h-86z"/><path fill="#d7b77e" d="m1667 20 2 2c6 7 3 28 2 37l-1-17c0 10 1 28-2 36h-4c-14-5-43 8-54 0l-7-1 3-3-8 1c-4-6-3-35-2-44 8 11 12 21 28 25 25 5 38-14 43-36"/><path fill="#cdb38c" d="m485 11 6 2c10 19 9 34 34 39 28 5 33-42 42-41 5 6 3 24 3 33v40h-85z"/><path fill="#d1b17f" d="m488 16 2 2-1 5c13 4 10 41 45 32 29-8 19-25 29-30q2 3 1 10c2 6 3 34 0 38-6 10-56 3-67 0-6-2-3-2-9 1z"/><path fill="#cdb38c" d="M1221 12c2 0 7 0 7 2 9 18 14 40 40 37 20-2 23-23 31-38h5c5 4 3 23 3 30v41h-86z"/><path fill="#d7b77e" d="m1299 22 1 1 3 1c0 8 0 46-2 50-4 3-2 2-7 3l5 3-17-2c-14-9-39 1-56-2-2-11-1-33 2-43 4 2 7 10 10 13 6 7 18 11 26 12l2 1c21-8 26-15 33-37"/><path fill="#d1b17f" d="M1099 84c0-12-2-66 4-73l2 1q5 7 6 15c13 26 31 33 55 13l10-27h7c3 6 2 61 2 71z"/><path fill="#cdb38c" d="M1099 84c0-12-2-66 4-73l2 1q5 7 6 15c-7-2-1-2-8-5-4 5 3 18 4 26 0 8-7 21-2 27 10 3 63 3 72 0 4-5 3-41 4-52l-2-2c-7 4-5 18-13 19l10-27h7c3 6 2 61 2 71zM1836 12l7 1c8 20 16 45 44 38 17-4 19-25 27-38h7c2 4 1 27 1 33v38h-86z"/><path fill="#d7b77e" d="M1916 20c4 9 0 13 0 22-1 11 5 23-1 34-8 2-68 2-73-2-2-7-1-21 0-28q-2-7-1-12c4 0 28 35 49 21 6-4 20-13 24-18 0-3 0-2-2-5l-4 6-1-2c2-4 5-14 9-16"/><path fill="#cdb38c" d="m855 11 6 2c7 17 11 38 33 39 25 0 27-23 39-39l4-1c2 6 1 30 1 38v34h-85c0-11-2-68 2-73"/><path fill="#d1b17f" d="M858 20c1 4 2 4 5 8l-3 5h5c3 23 22 24 42 24 12-9 13-11 22-23q-2-9 4-12l2 2c1 6 0 6-1 12 0 10 2 31-2 40l-4 2-68-1c-3-6-5-51-2-57"/><path fill="#cdb38c" d="M1467 12c1 0 7 0 7 2 8 21 18 45 46 36 14-4 19-24 25-37h7c2 4 1 26 1 32v39h-86z"/><path fill="#d1b17f" d="m1545 21 3 1c3 5 2 50 1 58l-2-6c-20 0-39 5-59 4-20-2-16-8-16-26l1-18-1-6c-2 2 1 8-2 12q-1-8 2-17h2q5 5 2 12c7 12 15 17 27 23q35-1 42-37M2141 46l1-2q12-12 16-29v-1c4-3 2-2 7-2 4 5 2 63 2 71l-85 1c0-12-2-64 3-72h3l4 10q12 39 49 24"/><path fill="#cdb38c" d="m2141 46 1-2q12-12 16-29v-1c4-3 2-2 7-2 4 5 2 63 2 71l-85 1c0-12-2-64 3-72h3l4 10-6 1c-7 10 8 39 5 53l1 1 12-1-5-4c9 3 63 12 63-1l-1-41h-2c-4 4-12 15-16 16zM240 12h5c10 9 2 33 37 40 27-6 24-16 34-38 4-2 2-1 6-1 5 6 3 24 3 33v38h-85z"/><path fill="#d1b17f" d="M243 23c9 6 12 22 21 29 24 17 42-8 56-24 1 7 4 42-1 46h-7v1l9 3 1 1c-8 7-25-3-34-3l-33 3-9-5zM1468 2454h86v28c0 10 1 29-2 38h-2c-9-7-11-22-22-30q-24-16-41 9c-4 5-10 21-16 22-4-7-3-55-3-67"/><path fill="#cdb38c" d="M1468 2454h86l-2 10-1-1v-5c-7-3-76-2-80 9v33l2-15q5 10-2 20v3l2 2c6 0 8-9 11-14l-2-1-4 7-1-1q1-7 8-12c11-11 25-9 40-8l2 1c9 9 9 12 17 21l7 7c0-4 1-26 3-28 0 10 1 29-2 38h-2c-9-7-11-22-22-30q-24-16-41 9c-4 5-10 21-16 22-4-7-3-55-3-67"/><path fill="#d1b17f" d="M1837 2454h87c0 12 2 60-4 66h-2c-3-3-8-15-11-21q-9-12-23-15c-26-4-33 31-42 37l-2-1c-4-11-3-51-3-66"/><path fill="#cdb38c" d="M609 2454h86c0 11 3 62-5 67-5-3-8-14-12-22-5-6-14-14-22-15-26-4-34 31-42 36l-2-1c-5-10-3-51-3-65"/><path fill="#d1b17f" d="M616 2460c15 0 61-2 72 1 5 5 5 46 2 51-9-14-14-28-31-32-11-5-41 8-42 21l2 2 3-4c-3 5-1 5-5 11h-3l-2-2v-2l4-4v-1l-2-1-1-9 4 4c1-12-6-26-1-35M240 2454h86c1 11 2 58-1 65q-5 3-8-2c-2-26-27-40-51-27-6 7-17 29-22 30-5-6-4-24-4-32v-34"/><path fill="#cdb38c" d="M240 2454h86c1 11 2 58-1 65q-5 3-8-2l5-2c3-7 2-24 1-32l-1 9c-5-9 0-20-2-27-14-7-46-4-62-4-3 1-9 5-14 4l2-7-2-1-2 22-2 1z"/><path fill="#cdb38c" d="M240 2488c4 8 2 14 4 20 3-7 12-13 18-17l4-1c-6 7-17 29-22 30-5-6-4-24-4-32"/><path fill="#d1b17f" d="M977 2454h87c0 12 2 56-3 64-7 1-11-14-14-19l-1-1c-18-18-31-19-50-2-5 8-8 22-15 24l-1-1c-5-7-3-29-2-38z"/><path fill="#cdb38c" d="M977 2454h87c0 12 2 56-3 64-7 1-11-14-14-19h2l9 15c1-5 4-47-1-49-17-5-61-9-77-4-2 7 1 11-2 20z"/><path fill="#cdb38c" d="M996 2496c0-14 35-22 43-11 3 4 8 7 7 13-18-18-31-19-50-2"/><path fill="#d1b17f" d="m2207 2454 85 1v30c0 8 2 31-3 35h-2c-14-15-3-24-30-35l-7-3c-38 14-21 27-39 40l-2-1c-4-8-2-55-2-67"/><path fill="#cdb38c" d="m2207 2454 85 1v30c-3-9 0-17-4-25-9-2-64 2-74 4-3 5-4 41-2 50 3-10 25-39 38-32-38 14-21 27-39 40l-2-1c-4-8-2-55-2-67"/><path fill="#d1b17f" d="M1591 2454h86l-1 38c1 6 2 23-2 28-4-1-15-23-20-29-34-20-42 4-55 28h-6c-5-8-2-53-2-65"/><path fill="#cdb38c" d="M1591 2454h86l-1 38-1 1c-4-6-3-27-10-31-11 6-65-15-70 6-3 13 3 27 0 40l-1 2c3 2 2 1 5 1 6-13 10-22 24-28 9-4 26-3 31 6v2c-34-20-42 4-55 28h-6c-5-8-2-53-2-65M2329 2454h85c1 12 3 61-3 67h-3c-3-4-7-14-9-21-6-7-16-17-26-17-23-1-28 26-39 36h-2c-5-8-3-53-3-65"/><path fill="#d1b17f" d="M2378 2460c29-3 28 3 31 26l2-17c0 8 3 38-3 42-6-9-14-26-25-30-20-7-32 2-43 17 1 7 0 7-3 13h-2l-3-2c3-6-1-36 3-44 10-6 30-4 43-5M1961 2454h85v51q1 9-2 14l-2 1c-8-5-18-41-44-37-8 1-18 12-22 19l-4 8c-2 5-1 9-7 10l-2-1c-4-9-2-53-2-65"/><path fill="#cdb38c" d="m1972 2510-1-11c13-29 55-25 67 3-3 6-2 6 1 11l1-3h1v5q3-3 5-10 1 9-2 14l-2 1c-8-5-18-41-44-37-8 1-18 12-22 19z"/><path fill="#d1b17f" d="M486 2454h86c0 11 2 60-4 65-9-4-8-19-24-31l-1-1-14-4c-17 5-24 10-32 27q0 8-6 11c-7-6-5-55-5-67"/><path fill="#cdb38c" d="M497 2510c-6-19 38-42 46-23l-14-4c-17 5-24 10-32 27"/><path fill="#d1b17f" d="m732 2459 1-3c6-3 72-2 84-2 0 12 2 60-2 67h-2c-20-15-2-40-49-35-15 10-14 14-23 28q-2 5-6 5c-5-5-3-51-3-60"/><path fill="#cdb38c" d="m732 2459 1-3c6-3 72-2 84-2 0 12 2 60-2 67h-2c-20-15-2-40-49-35l-1-2 20-6c15 2 21 28 31 32 1-5 1-48-2-52-9-1-74-2-80 1M363 2454h86c0 12 2 59-5 66-5-2-7-11-11-19l-1-2-10-10c-33-24-46 28-56 30-4-6-3-53-3-65"/><path fill="#d1b17f" d="M377 2460c14-2 47 0 62 3 5 1 6 36 1 44l-9-15-10-9c-26-13-44 19-50 21q-6-21-2-40c3-4 2-3 8-4M118 2454h85l-1 45v1l1 9q1 7-3 11c-11-6-7-23-35-37-20 2-27 8-36 27l-2 8c-4 3-2 2-8 1-3-4-2-55-1-65"/><path fill="#cdb38c" d="M118 2454h85l-1 45c-4-13 2-32-3-41-22 1-55 0-77 3-3 9-1 40-1 51l2 2h-2l1 1c7-4 1-4 7-5l-2 8c-4 3-2 2-8 1-3-4-2-55-1-65"/><path fill="#cdb38c" d="M165 2483c20-2 24 17 33 29l-1 5 2-1c3-7 1-10 3-16l1 9q1 7-3 11c-11-6-7-23-35-37"/><path fill="url(#a)" d="M855 2454h85c0 11 1 60-1 67l-5-1c-3-3-7-14-9-20-11-12-14-13-29-17l-18 8c-7 9-15 27-17 29h-4l-2-1z"/><path fill="#cdb38c" d="M855 2454h85c0 11 1 60-1 67l-5-31c0-6 5-22 1-27-12-5-63-4-74 0-7 10-4 40-5 55l-1 1z"/><path fill="#cdb38c" d="M878 2491c4-22 53-10 47 9-11-12-14-13-29-17zM1100 2454h86c-1 12 2 60-4 66l-3-1-10-20-8-9c-35-27-49 29-58 30-4-7-3-54-3-66"/><path fill="#d1b17f" d="M1124 2460c11 2 37-4 55 2 4 5 3 38-3 42l-2-1v-6q-8-10-20-18c-7 0-19 0-26 3-10 4-14 22-22 28h-1q-3-13-1-24c-2-24-4-22 20-26M1223 2455l85-1c0 11 2 61-3 66-10-6-23-62-63-24l-12 25h-4c-4-11-3-52-3-66"/><path fill="#cdb38c" d="m1223 2455 3 5h4c6 0 14-3 17-1l1 2c-7 5-16-6-18 11-1 9-2 22-1 31l3 3h2q2-6 6-10h2l-12 25h-4c-4-11-3-52-3-66"/><path fill="url(#b)" d="M67 3h62l3 19 1 2c-3 4-1 3-5 5-3-6-4-16-9-19-6 5-3 29-4 37-4-5-3-22-3-29-1 9 1 16-2 25V11H50c12-2 6-5 17-8"/><path fill="#140804" d="M725 10h7c-2 5-1 16-1 23v51h-4l-2 6z"/><path fill="#030202" d="m522 117 93-1 221 1h1269l213-1h73l42 1c8 0 22 8 27 13 17 17 26 44 25 67l1 306v945l1 96c-1 39 1 102-52 115-11 2-35 1-47 1h-96c-83 0-172 2-254-1-2-22 7-53-29-47-29 4-36 42-34 66 2 14 16 7 24 13 3 6 1 97 1 112v281l1 163c0 31 3 83-6 111q-6 18-19 33c-6 5-21 15-29 16l-75 1-147-1H114c-20 0-29-3-43-18-30-30-24-73-24-112v-465l-1-590V917c1-25 7-49 26-66q13-11 28-15 25-2 49-1h103c58 1 121-2 178 1 1 10-2 27 3 36q4 6 12 8c38 8 59-52 46-70q-8-3-17-3-3-1-3-5c-2-28-1-62-1-90V484l-1-197 1-98c2-31 19-66 52-72"/><path fill="#030202" d="M477 800V255c0-35-6-82 17-111 7-10 21-19 33-20h1897c21 1 36 16 45 33q8 17 9 36v283l1 559v487c0 38 7 85-21 114-18 19-43 15-67 15h-347c0-13 1-26-5-38-10-16-30-16-45-6q-21 17-25 44v31c5 16 9 17 25 15v573q1 34-1 69c-3 25-23 58-51 58l-82 1H215l-109-1q-17-1-29-13c-18-17-23-39-23-63v-925l-1-336V956l1-54q3-25 21-43c5-6 16-13 24-13q45-3 92-1h232c0 23-2 46 29 44 36-2 50-40 49-70q-1-12-8-19-7-2-16 0"/><path fill="#bfc0c1" d="M477 800V255c0-35-6-82 17-111 7-10 21-19 33-20h1897c21 1 36 16 45 33q8 17 9 36v283l1 559v487c0 38 7 85-21 114-18 19-43 15-67 15h-347c0-13 1-26-5-38-10-16-30-16-45-6q-21 17-25 44h-1l-1-65q1-31 24-51c12-11 24-11 40-12l76 1h245c47 7 82-22 87-70 3-27 1-64 1-93v-191l-1-630V408c0-15 3-56-1-68a2123 2123 0 0 0-120-160H608c-10 0-23 7-31 15-21 20-25 47-25 75v533c0 37 6 82-22 110-14 13-24 14-42 14H290l-82 1-15 3c-27 12-43 45-43 73v1135c0 38-5 82 24 112q18 20 46 18h1617c68 0 115 13 129-70 2-10 1-105 1-120v-396l2-1c5 16 9 17 25 15v573q1 34-1 69c-3 25-23 58-51 58l-82 1H215l-109-1q-17-1-29-13c-18-17-23-39-23-63v-925l-1-336V956l1-54q3-25 21-43c5-6 16-13 24-13q45-3 92-1h232c0 23-2 46 29 44 36-2 50-40 49-70q-1-12-8-19-7-2-16 0"/><path fill="#838382" d="M1966 2199v-541c0-14-1-61 1-72l1 65h1v31l-2 1v396c0 15 1 110-1 120"/><path fill="#fefefe" d="M605 190c17-2 45-1 63-1h1647c11 12 39 50 50 64 20 27 49 62 67 90v195l1 402v447c0 37 8 109-43 126-12 4-47 1-63 1h-205l-101 1c-31 0-51 25-58 54q-6 32-4 66v499c0 29 3 65-8 92v1c-7 14-18 27-34 31-16 5-102 2-126 2H220q-15 1-30-6c-34-21-34-59-33-94V1004q1-30 21-52c19-22 54-15 81-15h189c97 8 112-28 111-116V310c0-42-7-107 46-120"/><path fill="#030202" d="M895 1239c33-3 74 8 103 24 38 21 89 71 100 113-9 13-29 31-42 39l-11-16c-69-109-203-113-276-3-73 113-59 292 57 373 31 21 75 30 112 21 57-14 90-52 120-100 15 10 32 28 41 44l-13 23c-50 88-157 137-253 96-45-20-75-49-104-88-37-51-53-111-61-173h-82v127c0 26 3 68-4 92-2 9-32 38-41 42q-5 1-7-3-3-6-3-14v-446c0-15-3-136 4-139 12-6 66-3 84-3h115c-11 22-29 58-47 73-17 1-88-2-99 1-4 11-2 170-2 195h83q3-25 8-50c24-109 97-218 218-228M1832 1233c10-1 23-3 31 5 6 9 3 81 3 96q-18-2-36-1c-87 11-137 88-152 168l139-1v101h-140c18 85 70 165 166 169q12-1 22 1l1 2c0 15 2 81-2 93q-4 4-11 4c-50 3-104-18-142-49-143-117-150-357-39-499q62-78 160-89M1420 1233c9-1 27-3 34 4s3 82 3 97c-224-19-263 357-69 428 23 9 45 9 69 8 0 15 3 82-2 97-2 4-25 4-32 4q-69-6-123-49c-151-126-151-398-9-531q55-51 129-58"/><path fill="#030202" d="M895 1371q26-1 51 8 50 23 71 74-4 9-12 17c-7 9-15 20-26 23h-4q-12-16-26-31c-32-26-73-20-98 11q-32 42-26 95c4 45 35 99 87 93 30-4 47-24 64-46 12 5 35 27 39 40 2 6-8 23-12 28-37 53-111 70-164 31q-58-46-67-120c-15-89 22-207 123-223M1316 344l24-1v206l-31-1v-18c-24 22-45 27-74 10l-3-2c-74-63-7-223 76-146 0-16-4-37 8-48"/><path fill="#fefefe" d="M1264 411c48-2 56 82 9 99-49 2-56-85-9-99"/><path fill="#030202" d="M1810 344h23v204h-30l-1-18c-23 21-46 28-73 9a94 94 0 0 1-33-66c-5-40 14-96 60-101q27 0 45 20c0-16-4-37 9-48"/><path fill="#fefefe" d="M1759 411c45-1 56 82 8 99-51 1-54-88-8-99"/><path fill="#030202" d="M1954 372c86-9 105 154 15 178-91 9-103-162-15-178"/><path fill="#fefefe" d="M1957 411c46-3 57 82 9 99-53 0-54-86-9-99"/><path fill="#030202" d="M1119 372h7c52 2 65 64 63 104h-99c12 35 42 50 67 18l11 10 11 14-3 5q-13 21-38 25c-97 15-111-161-19-176"/><path fill="#fefefe" d="M1118 408c25-2 32 13 39 34h-66l3-8q6-18 24-26"/><path fill="#030202" d="M831 372c58-2 73 58 71 105-29-2-69-1-99-1 12 36 40 48 67 19l9 8 13 16c-29 42-81 41-107-2-28-48-18-132 46-145"/><path fill="#fefefe" d="M831 408c25-3 32 14 40 34h-67l2-6q7-20 25-28"/><path fill="#030202" d="m973 373 6-1q24 1 41 18c23 26 26 54 25 87l-99-1c12 36 40 48 67 19l9 8 13 15a60 60 0 0 1-105 2c-30-48-21-134 43-147"/><path fill="#fefefe" d="M974 408c25-2 32 14 40 34h-67l3-8c6-13 11-20 24-26"/><path fill="#030202" d="M2130 1228h165c-16 41-39 88-57 128l-26 58q-42-93-82-186M320 1024c6 4 65 148 74 164l8 19H238c12-24 25-53 35-78zM1002 677h19v181h-18l1-17q-23 32-57 12c-22-17-26-38-26-64 0-45 44-89 82-44z"/><path fill="#fefefe" d="M965 749c46-5 51 71 14 89q-24 3-33-19c-10-24-8-58 19-70"/><path fill="#030202" d="M1449 686h20l-7 27-35 146h-20l-35-134c-4 12-8 34-11 47l-20 86h-22l-43-172 21 1 33 135c12-42 23-92 33-135h19c12 42 24 93 35 137zM694 373c26-3 41 2 61 18l-15 28c-16-10-41-24-55-2-11 16 20 24 30 26q15 3 27 12 15 12 17 31c4 37-20 61-56 64-25-1-39-6-56-25l15-30c14 13 28 24 49 20 9-1 20-14 16-21-10-18-35-15-52-25-28-15-29-50-15-75 7-12 21-18 34-21M1570 377h31v61c0 21-3 53 14 68q7 6 14 4c21-5 22-31 22-49l1-84h30v41c1 38 6 87-22 117-19 21-49 20-68 0-26-27-22-65-22-99zM1436 373c26-3 39 2 59 18l-15 29c-12-9-38-24-51-8q-5 6-3 13c4 23 71 13 73 61 1 38-14 62-54 65-25-1-39-9-56-26l17-28c14 12 27 23 47 19 10-2 17-14 13-23-10-16-33-15-50-24-27-15-27-49-15-74q12-18 35-22M851 727q14-1 27 4c45 27 42 112-11 129q-16 2-30-5c-38-23-39-97-3-121q8-5 17-7"/><path fill="#fefefe" d="M851 749c47-5 53 70 16 89-49 6-53-73-16-89"/><path fill="#030202" d="M1568 727c70-6 79 117 15 133-40 4-58-31-58-65 0-32 10-60 43-68"/><path fill="#fefefe" d="M1568 749c47-4 52 71 15 89-47 6-53-72-15-89"/><path fill="#030202" d="M1609 1992c55 5 63 75 38 114q-14 17-35 20c-69-2-73-125-3-134"/><path fill="#fefefe" d="M1603 2011c51-5 56 82 12 96-49 3-56-81-12-96"/><path fill="#030202" d="M895 1994c22 0 54-5 71 11 28 24 28 76 6 103-19 21-52 16-77 16z"/><path fill="#fefefe" d="M910 2011c14 0 34-2 45 7 23 18 21 55 5 77-15 14-30 12-49 12z"/><path fill="#030202" d="M769 686h16v172h-19l1-87-1-35-34 80c-4 8-7 21-16 21-10-6-41-84-48-101v122h-19V686h16l53 119zM1084 727h5q18 0 31 13c16 16 19 41 19 62h-80c8 32 33 51 60 24l3-2q6 6 11 15-11 14-26 20-19 4-34-3c-44-23-46-113 11-129"/><path fill="#fefefe" d="M1086 748q25 0 35 26 1 4-2 9l-24 1h-36c4-19 8-29 27-36"/><path fill="#030202" d="M1750 684c21-1 32 3 49 15l-7 22c-56-45-97 27-31 40 63 13 54 101-9 100-22-2-31-7-48-21l7-22 5 5c26 22 73 23 68-16-4-28-71-19-75-60-4-34 5-56 41-63M1362 1994h16l25 100q11-45 23-91 2-13 16-7l10 35q7 32 15 63l16-63c1-4 7-32 11-36h12c1 6-4 20-5 26l-24 103h-17q-14-50-25-101c-9 31-17 69-24 101h-18z"/><path fill="#030202" d="M1815 686h86v17l-32 55c37 9 46 49 30 79q-10 18-29 23-26 5-48-9l-13-11 9-22c11 11 19 18 35 20 29 4 44-31 26-51-9-9-22-8-34-8v-19l32-51h-62zM1521 354l22-1v40h17l-1 32c-2 8-9 4-15 7-3 11-1 55 2 69q2 8 10 11c5 7 3 23 3 32l-1 4-3 1q-9 0-17-3-15-8-21-24-5-13-6-27c-1-14-2-129 2-135q3-5 8-6M2193 493c23-3 17 10 29 11 35-30 45 34 32 55-5 9-6 10-15 14-11-1-13-3-20-12-33 49-63-44-26-68"/><path fill="#fefefe" d="M2199 511c21 4 20 35 4 46-21-3-20-37-4-46M2233 514c20 1 19 30 6 41-20-1-18-29-6-41"/><path fill="#030202" d="M2193 307c23-3 17 10 29 10 34-28 43 30 33 52-5 11-6 13-17 17-10-1-12-3-19-12-32 51-65-43-26-67"/><path fill="#fefefe" d="M2197 324c23 0 21 33 7 46-23 0-20-34-7-46M2232 327c21 0 20 29 8 41-21 1-18-29-8-41"/><path fill="#030202" d="M1859 390h23l1 55v103h-31V420c0-6-3-20-2-23zM2178 880l80 1v16q-27 18-52 39l52 39v17h-80v-18h54c-58-41-56-34-2-75l-53-1zM2227 638q22-2 30 18c13 42-16 76-59 59-12-5-17-18-20-29-1-9-4-36 4-41 13 9-1 40 16 50q6 6 13 5c4-11-20-44 16-62"/><path fill="#fefefe" d="M2228 655c24-3 25 30 10 43-23 3-23-29-10-43"/><path fill="#030202" d="M1069 1994h77c1 20-12 36-22 53l-35 60h60v17h-81c0-19 13-35 22-52l36-60h-57zM2212 401c47-2 51 44 42 79-18-14-2-25-11-44-3-7-15-19-23-15l2 3c9 22 4 74-30 56-18-9-21-49-9-64 8-11 16-13 29-15"/><path fill="#fefefe" d="M2198 423c21 0 23 30 8 42-23-1-23-30-8-42"/><path fill="#030202" d="M1758 1992q21-1 37 12l-6 16c-13-10-46-22-49 11-2 14 35 20 48 31q9 8 11 22c2 28-16 41-42 42-16-2-23-6-34-16l6-16 9 7c15 10 48 12 46-17-5-13-31-17-41-23-30-20-21-62 15-69M1809 1994h64c0 21-12 34-23 52l3 2c46 18 23 103-39 71l-11-8 7-17c12 10 31 20 45 7q7-6 7-17c-1-19-19-20-33-19v-12c6-14 17-29 25-41h-45zM754 1993c22-2 32 3 45 20l-10 13c-11-12-24-20-41-12-41 20-20 120 33 87l8-8 10 13c-36 47-89 6-88-43 0-33 9-59 43-70M656 1993c22-2 31 4 45 20l-10 13c-21-23-47-20-59 11-12 33 6 87 50 65l9-10 10 14q-9 13-24 18-17 6-32-2c-41-21-43-99-5-122zM1207 1995q6-1 9 2c-7 15-32 60-42 77h33v-27h14v27h17v18l-15 1c-6 6 3 25-5 31q-6 1-11-2v-30c-11 0-43 1-52-1l-1-2c-1-19 34-69 44-88q4-7 9-6M534 1994h68v17h-53v44h48v18h-48c0 10 2 45-2 51l-12-1c-4-15-1-108-1-129M273 1351h81v19l-36-1v54h36v17c-3 2-71 2-81 2v-19h33v-53h-33zM2178 1021h80v19l-34-1v54h34v18h-81v-18h36v-54h-35zM314 1466l32 1c15 30 16 85-24 95q-15 3-27-4c-29-18-28-66-11-92l9 11c-12 19-14 48 6 62q9 6 21 4 11-2 18-13c8-14 5-31 2-46h-26zM1159 677h19v181h-19c2-57 0-123 0-181M2182 783c6 2 7 2 11 5 2 4-10 45 0 51 26 17 22-37 21-49l44 4c0 9 1 56-1 62q-6 1-10-2c-2-10-1-33-1-44l-19-2c0 16 0 41-16 51-11 7-24-2-29-12-10-20-6-44 0-64M1235 1994h79v18l-32-1v113h-16c2-34 1-78 1-113h-32zM343 1712q5-1 10 1l3 6q-1 30-1 59 0 5-3 8c-19-1-40-62-62-52-13 5-5 34 1 44l-7 13a59 59 0 0 1-12-40c-1-14 8-39 25-36 20 3 36 31 46 46zM325 1573h12l-1 19h19v17h-19c0 12 2 48-1 56l-2 1c-13-3-39-30-50-40l-10-9v-19l52 47v-36h-17v-17h17zM1486 729l19-1v130h-19zM291 1262q5-1 9 2 24 21 43 44l1-44 2-1c5 0 5-1 8 2 2 8 0 54 0 65l-7-1q-16-13-30-29l-15-16-1 43h-8c-4-5-2-54-2-65M2178 1130h3c11 1 39 36 47 46 0-8-1-37 2-41 4-2 2-2 7-1 4 5 1 43 2 52q1 9-4 14c-8-4-38-38-47-48 0 8 2 40-1 45-5 2-3 1-7 1-4-4-2-58-2-68M1523 1994h16v130h-16zM853 1994h16l-1 130h-15zM2166 577c10 2 31 12 41 16l66 29v16l-35-15-72-31zM2246 728q5-1 11 1l1 38h-68c-5 0-6 1-11-1q-2-8-1-17l68 1zM1641 779h49v23l-48-1zM1857 340c5 0 19-1 22 3 7 8 3 24-4 31l-5 1c-21 0-25-22-13-35M1208 727h2c20 0 19 24 7 35-22 0-23-23-9-35M1210 824c19 2 22 28 4 37-19-4-19-26-4-37M1674 2062h37l1 18-38 1zM1316 2062h37v18h-37zM1490 675c20-2 22 18 10 30-19 4-21-18-10-30M1005 2024c19-1 19 16 9 28q-5 1-9-2-5-3-5-9-2-10 5-17M1007 2098c18-1 17 16 8 27-18 2-17-17-8-27M345 1676c15 3 14 14 5 23-15-3-13-14-5-23M2225 1879c0-11-1-36 3-45 6-3 197-2 203 0l2 3c4 12 1 30 1 43h17c5-2 26-1 32-1v36l3 18v89l29-1c0 37 2 95 0 131l-29-1c0 26 3 76-3 99 2 11 1 26 1 37-8 0-21 1-29-1-9 4-11 4-21 5v46c-30 2-68 0-99 0h-108c-1-13 0-34 1-47-10 0-13-1-22-3h-30c0-8-1-31 2-38l-2-21-1-76-32-1c-2-17-3-116 0-130 5-4 25-2 32-2 0-29 0-63 2-92v-8c-2-8-1-32-1-41 8 1 30 0 34 2z"/><path fill="#bfc0c1" d="M2176 1878c8 1 30 0 34 2-19 8-27 20-33 39-2-8-1-32-1-41M2451 1880c5-2 26-1 32-1v36c-7-18-14-28-32-35M2178 2249q5 25 28 38h-30c0-8-1-31 2-38M2483 2250c2 11 1 26 1 37-8 0-21 1-29-1 16-9 23-18 28-36"/><path fill="#bfc0c1" d="M2211 1889c17-2 236-1 242 1q15 8 21 23 4 9 5 20v298c-1 22-8 40-30 49-8 2-70 1-84 1h-142q-26-1-35-25-4-10-6-22v-246c0-22-3-54 5-75q7-17 24-24"/><path fill="#030202" d="M2316 1925q38-4 69 17c83 57 87 198 19 269q-23 24-56 32-36 6-68-13c-104-66-93-275 36-305"/><path fill="#d7b77e" d="M2225 2143q-22-78 14-148c27-51 87-80 139-48 74 45 83 161 42 231-30 50-86 74-137 43q-14-9-24-20c-13-9-28-43-34-58"/><path fill="#cdb38c" d="M2225 2143q-22-78 14-148c27-51 87-80 139-48 74 45 83 161 42 231-30 50-86 74-137 43q-14-9-24-20c9 2 11 8 20 14l1-1-3-4c6 1 17 12 24 14q55 15 97-23c5-4 16-16 16-22l-4 2 7-12c7-15 20-31 16-48q4-7 5-16l1-40 1 13 1-1c0-6 2-13-2-18-7-9-6-33-10-45-4-8-11-9-15-19l-1-2c-7-16-35-42-50-49-14-2-39-4-53-2-17 2-50 25-57 41-10 23-21 23-26 49-8 38-1 71-1 109z"/><path fill="#140804" d="M2275 1979c1-10 15-19 23-23q18-8 38-8 9 2 20 5c7 5 10 7 14 15 23 16 33 29 45 54 7 7 8 10 9 20h2l2-5c7 10 0 49 3 59l1-7q2 16-1 31-3 4-8 5c-8 24-15 38-31 58-4 11-21 23-33 30-20 11-58 6-74-11l-3-7c-27-26-32-34-44-71-4-2-3-4-5-8-2 6 2 8 2 15h-1c0-8-4-11-5-20q-5-36 6-69l-1 3c3-7 12-33 18-37z"/><path fill="#cdb38c" d="M2275 1979c1-10 15-19 23-23q18-8 38-8 9 2 20 5c7 5 10 7 14 15-38-20-62-14-95 11M2282 2195c42 28 75 21 110-12-4 11-21 23-33 30-20 11-58 6-74-11z"/><path fill="#d1b17f" d="M2238 2124c-4-2-3-4-5-8-2 6 2 8 2 15h-1c0-8-4-11-5-20q-5-36 6-69l-1 3c3-7 12-33 18-37-15 33-21 55-17 92z"/><path fill="#cdb38c" d="M2415 2022c7 7 8 10 9 20h2l2-5c7 10 0 49 3 59l1-7q2 16-1 31-3 4-8 5c8-40 6-64-8-103"/><path fill="#d7b77e" d="M2404 2151c-7 20-29 40-49 47q-28 11-55-3c-81-40-80-196 10-226 49-16 92 28 104 73 9 32 9 78-9 108z"/><path fill="#cdb38c" d="M2404 2151c-7 20-29 40-49 47q-28 11-55-3c-81-40-80-196 10-226 49-16 92 28 104 73 9 32 9 78-9 108-2-9 6-30 8-40 9-45-6-93-40-124-25-24-79-15-96 13q-2 5-6 6l2-5c-15 12-29 48-28 67l4-14-1 1 1 2c-2 22-3 33-1 55 4 41 33 76 73 83 20 4 34-2 52-12l-2 3c15-9 20-17 30-32q1-3 3-2"/><path fill="#cdb38c" d="M2325 2046c55-8 38 99-1 80h-7l-2-3c-20-6-22-57-11-65l-4 19h1q2-8 5-17c2-6 13-11 19-14"/><path fill="#140804" d="M2325 2049c38-3 46 52 13 71-40 4-47-54-13-71"/><path fill="#cdb38c" d="M2326 2057c29-2 34 38 11 54-31 3-36-39-11-54"/><path fill="#d7b77e" d="M2326 2060h3c21 0 27 33 9 47v-2h-10c-20-6-17-35-2-45"/><path fill="#bfc0c1" d="M2233 1842h194l1 38-194-1zM2234 2290h194v37l-194 1zM2149 2029h26v113l-26 1zM2486 2030h23v113h-23z"/><path fill="#030202" d="M92 254c-1-10-2-36 2-44 23-6 82 0 109-1 11-1 88-1 93 1 5 5 3 36 3 44 9 0 12 0 20 2 7 0 18-1 25 1 4 5 3 21 3 27v4l-2 1c8 36 5 67 6 104 9 0 21-1 28 4 3 10 3 113 0 124-6 4-21 3-28 2l-1 79-2 25v36l-30-1-18 2c1 9 2 44-3 45-10 2-68 1-76 1-23-3-113 5-129-1-4-6-2-36-2-45l-23-6c-3 2-17 1-22 1q-2-16-1-33c-6-27-3-73-3-103q-14 3-26-1c-3-5-3-116-1-125 6-5 19-3 27-2 0-32-3-78 4-108-1-6-2-19 0-25 2-8 22-8 28-5q9-3 19-3"/><path fill="#fefefe" d="M348 627v36l-30-1c17-8 23-19 30-35M319 256c7 0 18-1 25 1 4 5 3 21 3 27v4l-2 1q-6-22-26-33M45 287c-1-6-2-19 0-25 2-8 22-8 28-5q-21 8-28 30M45 659q-2-16-1-33 6 21 23 32c-3 2-17 1-22 1"/><path fill="#bfc0c1" d="M82 264c23-2 225-1 232 1q17 8 24 26 4 9 5 19v298q-3 33-34 45l-45 1-171-1c-27 0-44-21-45-47V364c0-37-9-86 34-100"/><path fill="#030202" d="M185 298c77-6 121 66 130 134 10 75-27 175-111 185-74 6-120-68-129-132-10-75 26-175 110-187"/><path fill="#d7b77e" d="M86 413c7-38 35-80 70-97q36-15 72-2c26 10 49 33 61 58 5 7 11 25 13 33 8 36 9 59 3 96l-1 2c-10 38-28 72-63 92a91 91 0 0 1-94-2c-5-2-5-2-9-6-10-5-23-21-29-30-27-43-34-93-24-142z"/><path fill="#cdb38c" d="M86 413c7-38 35-80 70-97q36-15 72-2c26 10 49 33 61 58-5-2-10-11-15-16-12-12-23-27-40-33l-28-10 8 1 1-1q-3-3-7-2c-57 9-63 9-98 54q-15 20-21 45 0 2-3 3M147 593c6-1 8 4 12 4 15 1 33 6 48 3 40-8 53-24 75-54v1c4-3 15-25 16-31q-1-7 3-13h3c-10 38-28 72-63 92a91 91 0 0 1-94-2M85 415c4 8-6 51 0 60v-8l2-1c2 15 3 34 7 49 4 14 18 35 24 49 2 5 20 16 20 23-10-5-23-21-29-30-27-43-34-93-24-142M302 405c8 36 9 59 3 96l-1-4c-6-28 4-53-6-78q0-7 4-14"/><path fill="#140804" d="m181 331-5-5c16-14 70 7 80 26l-2 4c44 48 50 125 16 182l-14 19c-7 26-52 39-75 32l4-1v-1l-8-1v-3c-31-12-41-21-60-49-3-3-5-1-8-6-11-23-19-48-12-74 4-54 27-108 84-123"/><path fill="#cdb38c" d="m181 331-5-5c16-14 70 7 80 26l-2 4-10-9a79 79 0 0 0-63-16M177 583l13 2c27 1 46-10 66-28-7 26-52 39-75 32l4-1v-1l-8-1z"/><path fill="#d1b17f" d="M117 534c-3-3-5-1-8-6-11-23-19-48-12-74 1 33 6 50 20 80"/><path fill="#d7b77e" d="M283 484c-1 9-7 26-11 35-20 46-72 75-118 44-56-38-63-130-27-184 52-75 140-35 154 46q7 29 2 59"/><path fill="#cdb38c" d="M283 484c-1 9-7 26-11 35-20 46-72 75-118 44-56-38-63-130-27-184 52-75 140-35 154 46l-2-1-12-24a84 84 0 0 0-66-55c-21-4-37 13-50 12-33 27-48 82-37 123 2 9 4 41 12 48l37 33c4 4 19 9 26 9q30 2 52-18 7-8 13-18c4 1 3 1 5 3 11-20 16-31 22-53z"/><path fill="#cdb38c" d="m195 414 24 8q3 4 2 10h-3q4 6 6 14c6 19 1 22-8 39l1 2 4-3q-1 7-7 14h-7l-2 1-5 3c-33 1-44-44-30-68 2-5 12-10 14-15l-4 1v-2z"/><path fill="#140804" d="M188 422c40-4 47 52 14 71-41 3-47-53-14-71"/><path fill="#d7b77e" d="M189 430c32-2 36 40 11 55-31 1-35-39-11-55"/><path fill="#bfc0c1" d="m98 216 194 1v37l-194-1zM98 663h195v37h-30c-55 1-111-3-165 0zM351 404h23v79c0 8 1 24-1 31h-23v-73zM19 403h22c-1 36 1 77-1 111H19z"/><path fill="#030202" d="M421 366c11 0 32-3 40 3 4 5 3 20 3 27l-1 100q0 4-4 7c-10 0-32 2-40-3l-2-11q-3-59 0-116 1-4 4-7"/><path fill="#363636" d="M423 409h34l-1 50h-33z"/><path fill="#bfc0c1" d="M423 375h34v24h-33zM424 470h34v23h-34z"/><path fill="#030202" d="M183 723c17 1 84-2 94 3 5 6 3 48 2 57l-2 3c-15 0-87 2-96-2-4-5-3-19-3-26 1-12-4-26 5-35"/><path fill="#363636" d="M209 733h40v45h-39z"/><path fill="#bfc0c1" d="M256 732h17v46h-17zM185 732h17v46h-17z"/><path fill="#030202" d="M2048 2047q4 0 7 5c11 31 36 82 37 113 0 6-26 22-32 25q-4-2-7-5c-11-17-40-101-38-116z"/><path fill="#363636" d="M2058 2086c5 2 16 36 19 44l-29 18h-2c-4-3-15-39-17-46z"/><path fill="#bfc0c1" d="M2079 2139zc3 5 6 18 7 24l-29 18c-4-5-7-17-10-23zM2048 2056c4 3 7 16 9 20q-14 10-29 18l-8-21q16-8 28-17"/><path fill="#030202" d="M2301 1750c15 0 82-3 91 2 4 8 2 38 3 49q0 8-7 12c-14 2-84 3-91-4-5-11-4-41-2-54q1-5 6-5"/><path fill="#363636" d="M2325 1759h38q1 23-1 45h-37z"/><path fill="#bfc0c1" d="M2370 1759h17v44l-17 1zM2301 1759h16v45h-16z"/><path fill="#030202" d="M2093 2017q5 1 7 4c9 22 35 93 31 112q-11 10-26 15c-6 2-4 2-8 0-6-9-29-99-28-112 4-9 15-14 24-19"/><path fill="#8b7857" d="M2083 2073c1-7 15-11 22-15 2 6 11 36 11 41s-1 4 2 8c-5 3-13 9-18 9l-2-2c-4 0-3 0-7-2-5-7-9-31-8-39"/><path fill="#140804" d="m2083 2073 10 38 23-12c0 5-1 4 2 8-5 3-13 9-18 9l-2-2c-4 0-3 0-7-2-5-7-9-31-8-39"/><path fill="#917748" d="M2099 2068h2q8 10 7 25-1 6-7 9-14-9-10-26 2-6 8-8"/><path fill="#bfc0c1" d="M2118 2107c5 3 7 15 8 22l-26 12q-4-10-4-21l4-4c5 0 13-6 18-9M2094 2026c3 4 8 18 10 23q-9 6-20 11l-3 1-2-2q-3-10-4-21z"/><path fill="#fefefe" d="M2258 2356h6c5 5 23 60 24 69l-1 2h-3c-9-8-2-17-17-17h-20c-2 8-2 17-12 16-2-4 20-61 23-70"/><path fill="#363636" d="m2261 2370 2 1c2 6 10 23 8 29l-4 1c-7 0-11 2-15-4 0-6 7-21 9-27"/><path fill="#fefefe" d="M2333 2409c0-7-1-49 2-52 4-1 2-1 5 1 2 6 2 61 1 70l-2-1c-9-2-30-42-36-52v50c-3 2-1 1-6 1-3-7-1-60-1-70h4c10 10 27 42 33 53M2349 2357c8 0 39-2 44 1 1 5 1 3-1 7q-8 2-17 1v43c0 5 2 14-3 18l-2-1c-5-7-3-48-3-60q-8 1-16-1c-3-3-2-2-2-8M2396 2357h20c0 17 1 54-1 70l-6-1c-4-10 3-42-3-58-3-3-2-2-9-3-2-4-1-3-1-8"/></svg>