<svg xmlns="http://www.w3.org/2000/svg" width="3849" height="4095" preserveAspectRatio="none" style="display:block" viewBox="0 0 4095 4095"><defs><linearGradient id="d" x1="335" x2="327.2" y1="885" y2="884.6" gradientUnits="userSpaceOnUse"><stop class="stop0" offset="0" stop-color="#848484"/><stop class="stop1" offset="1" stop-color="#9d9d9c"/></linearGradient><linearGradient id="c" x1="893" x2="902" y1="1058.8" y2="1083.1" gradientUnits="userSpaceOnUse"><stop class="stop0" offset="0" stop-color="#32473a"/><stop class="stop1" offset="1" stop-color="#4e6458"/></linearGradient><linearGradient id="b" x1="765.9" x2="754.6" y1="1059.9" y2="1083.7" gradientUnits="userSpaceOnUse"><stop class="stop0" offset="0" stop-color="#3c5947"/><stop class="stop1" offset="1" stop-color="#536862"/></linearGradient><linearGradient id="a" x1="3258" x2="3296" y1="1787.1" y2="1774.8" gradientUnits="userSpaceOnUse"><stop class="stop0" offset="0" stop-color="#b7a67a"/><stop class="stop1" offset="1" stop-color="#d9c083"/></linearGradient></defs><path d="M176 0h3740q22 4 43 10c77 23 132 93 133 174q2 113 1 226v2476l1 162c0 31 2 86-4 114-10 48-39 91-80 118q-44 29-96 32c-24 2-63 1-88 1H1579c-12 0-41 0-54 3l-1 3c5 3 5 3 11 4 2 13 1 101 1 119l-47 1v38c30 16 23 29-2 44q43 21 1 45c30 16 26 26 1 44 29 15 24 26 2 44l-2 1c30 15 23 28-2 43q44 22 1 45c30 16 27 29 0 45q42 21 1 44c10 6 18 9 21 21-3 15-16 13-19 24 6 7 19 11 19 20 0 10-15 19-22 23q42 22 1 45c29 17 25 30-1 47 0 15 4 40-6 51-23 25-100 21-121 28h-85l-7-3q-31 1-64-5c-53-11-59-14-58-69q-14-3-19-16c1-7 1-5 8-12-7-22-29-22 9-41-7-4-19-12-21-21-3-12 11-14 17-23-3-17-43-20 4-45-27-17-31-29 1-44-27-18-32-29 0-45-28-16-31-28 0-44q-45-24 0-45c-27-16-32-29 0-43-11-7-21-13-21-27 4-12 11-13 23-18-12-6-18-9-24-20-1-16 8-12 19-24-4-8-11-10-19-20-3-15 11-19 23-25-10-6-22-13-24-24 3-7 14-10 22-16q3-10 2-22l-54-1c0-16-1-110 1-118l13-4v-3c-11-7-240-4-267-4H209c-114 1-186-61-209-169V169c10-34 9-50 31-83 38-55 83-73 145-86m941 3305v-282h89v280l68 1 1-281h86v281h70c-3-94 0-187-1-281h89q-1 141 1 280c61 3 133 1 195 1h2093c82 0 160 9 224-55 62-62 51-125 51-207v-799l-1-1992c0-78 8-127-52-188-26-26-71-51-108-52-44-2-94-1-137-1H185l-12 1c-51 6-97 32-128 73-39 51-34 83-35 143v2784c0 45-2 96 3 141 8 76 85 143 160 150q54 3 107 2h183zm83 9q1 6 4 7c19 3 54 2 73 1l-2-7c-11-4-62-3-75-1m158 0q0 6 4 7c20 4 53 2 73 1l-2-7c-10-4-63-3-75-1"/><path fill="#232220" d="m173 11 12-1h3600c43 0 93-1 137 1 37 1 82 26 108 52 60 61 52 110 52 188l1 1992v799c0 82 11 145-51 207-64 64-142 55-224 55H1715c-62 0-134 2-195-1q-2-139-1-280h-89c1 94-2 187 1 281h-70v-281h-86l-1 281-68-1v-280h-89v282l-654-1H280q-53 1-107-2c-75-7-152-74-160-150-5-45-3-96-3-141V227c1-60-4-92 35-143 31-41 77-67 128-73M78 682h3514V453H526c-148 0-301 2-448 0zm299 1880h835v-306H377zM223 48a160 160 0 1 0 0 319 160 160 0 0 0 0-319m3512 499h107l-1-100-106-1zm118 2184c0-36 2-82 0-117h-124v117c39 1 85 2 124 0M468 341c15 0 116 2 122-2q3-57 1-115c-42 2-82-2-123 0-2 37 1 79 0 117M3838 51a160 160 0 1 0 64 313 160 160 0 0 0-64-313m-91 625c18 29 70 26 86-4q9-18 3-37c-8-26-35-42-62-32-32 8-52 51-27 73m212 2025a29 29 0 1 0-18-56 29 29 0 0 0 18 56M2755 258c-30 22-19 52 12 52h8c34-20 19-54-20-52m-1737 51a27 27 0 1 0-20-50 27 27 0 0 0 20 50m2939 366a28 28 0 1 0-18-53 28 28 0 0 0 18 53M679 258a27 27 0 1 0 19 52 27 27 0 0 0-19-52m1756 0c-13 10-26 25-13 41q8 9 22 11h11c34-19 21-54-20-52m-1262-98a27 27 0 1 0-12-53 27 27 0 0 0 12 53M206 2943a161 161 0 1 0 36 320 161 161 0 0 0-36-320M2116 258c-34 23-19 54 19 52 34-20 19-55-19-52M851 160c37-8 31-50-5-54-38 15-33 51 5 54m2081 0c9-4 16-7 20-17q4-11-1-20c-5-12-18-17-30-17-37 17-31 53 11 54m-173-53a27 27 0 1 0 13 53 27 27 0 0 0-13-53m-143 203c34-22 17-55-20-52-34 21-20 54 20 52m459-52a27 27 0 1 0 20 52 27 27 0 0 0-20-52m-1262-98a27 27 0 1 0-13-53 27 27 0 0 0 13 53m2076 3103a161 161 0 1 0-35-319 161 161 0 0 0 35 319M2296 309a27 27 0 1 0-21-50 27 27 0 0 0 21 50m-939-25c-10-21-14-27-39-26-35 20-21 57 21 51 12-9 13-11 18-25m1578 26c35-22 18-54-19-52-35 22-19 54 19 52m-483-150c15-5 26-16 21-33q-4-12-15-17-8-4-17-4c-38 17-29 52 11 54m-797-1c34-16 19-53-13-53-40 19-26 57 13 53m-158 21a49 49 0 1 0-21-94 49 49 0 0 0 21 94m2078 130c34-24 16-55-21-52-35 22-19 54 21 52M1004 106c-38 16-31 53 11 53 36-15 22-51-11-53m2093 74a49 49 0 1 0-23-95 49 49 0 0 0 23 95m-1619 78c-35 21-22 54 18 52 34-21 19-54-18-52m2353 2595c12-13 12-23 10-40-18-46-81-50-98-7q-8 20 1 39c16 35 71 36 87 8M1637 258c-35 20-21 55 21 52 30-24 16-54-17-52zm-313-152c-38 14-35 51 8 54 35-11 28-50-8-54m-147 204c33-20 19-54-19-52-34 22-21 53 19 52m638 0a27 27 0 1 0-18-52 27 27 0 0 0 18 52M682 107a27 27 0 1 0 13 53 27 27 0 0 0-13-53m1440-1c-37 16-32 52 9 54q13-3 20-13 5-9 2-20t-14-17q-8-4-17-4m1133 204c10-6 16-10 18-22q3-10-4-18c-9-13-20-13-34-12-34 22-19 54 20 52m162-122c74-26 58-115-23-110-83 23-51 123 23 110m467 1457a80 80 0 1 0-28-158 80 80 0 0 0 28 158M3416 309c34-23 16-54-23-51-32 26-16 55 23 51m544 2542a29 29 0 1 0-20-54 29 29 0 0 0 20 54M859 310c33-22 17-55-20-52-35 22-20 54 20 52m2699-204c-37 19-28 53 15 53 36-17 20-54-15-53M1957 258c-36 21-21 55 21 52 30-25 17-53-21-52M560 134c-8-16-13-27-33-28-40 14-32 54 11 53 15-7 15-11 22-25m2679-28c-37 18-28 55 15 53 9-4 14-7 18-17q3-9-1-19-11-18-32-17m688 372c-5 8-9 13-7 24q2 11 13 18c20 12 40-1 46-23-8-28-28-34-52-19M1961 106c-37 18-29 53 11 54 37-13 24-52-11-54m314-20a49 49 0 1 0 22 94 49 49 0 0 0-22-94m325 20c-35 17-30 50 9 54 42-10 27-55-9-54"/><path fill="#426154" d="M1772 871h986c179 0 362-2 541 0v107h46c-1 26 1 81-1 104-12 0-27-1-38 5l-4-4h-2l-1 42c9-3 38 1 45 8 3 15 1 80 0 97-11 1-29 1-39 6l-4-1v38h5c9 6 39 2 39 11-2 20 4 79-3 95q-12 5-27 2c-5 5-7 6-14 7 0 9-1 22 1 31 21 8 19 8 43 9 0 21 2 82-2 99-7 7-24 3-38 8-5-2-3-1-7-5 5 14 1 27 3 42 15 5 28 4 41 9 7 17 3 76 1 97 0 4-16 6-19 5-11-3-13 7-21 3l-3-5v2c3 15 0 28 2 41 17 2 22 6 42 5 1 21 6 86-3 100q-3 3-9 4c-29 1-45-4-75 0h41c5 8 3 32 3 42 11-1 32 3 42 8 4 11 3 81 1 95-8 8-20 5-35 7l-3-2-1-3c-6-2-3-1-8-6l-2 2 2 3c-7 4-29 2-40 3q19 2 39 1c7 8 4 32 4 45h2c8-4 6-4 14 0 13 6 19-4 28 9 3 15 1 79 1 96l-34 3q-8 2-13-2l-1 1c4 15 3 335 0 346 14-2 33-2 48-1v103h-45l-1 2v45l44-1c5 13 3 89 1 104l-42 1h-2l-1 2 1 45h45v104l-46 1v277H1773v-180c0-18-2-86 3-100q-25 3-49 1c-1-16-4-94 4-102 12-4 30-3 42-3v-46l-46-1c-2-30 0-71 0-102l46-1v-45c-12 0-33 1-43-3-7-14-3-80-2-100 13-2 32-2 47-2-3-7-2-40-2-50v-219c0-14-2-69 4-77h39l-24-2c-14 0-51 7-62-1-8-21-5-73-2-97 1-6 37-9 45-5 0-14-1-33 2-46l2-1v-4l8-2-5-2-3 1-10 9c-16-3-30 3-39-5-4-14-4-82 2-97 8-3 25-4 35-6h2l3 5h3l1-2-1-44c-4 2-39-2-47-2 0-19-2-84 1-97 8-8 34-11 44-10v-40c-4 0-38-5-43-7-4-15-3-79-1-96 9-10 27 0 39-7q2-2 7 1v-45c-6 3-37 0-47 0v-103c12-1 39-5 48-3-2-13-1-30 0-43l-10 3c-16-7-21-1-35-6-6-8-3-86-3-102 14 0 41-4 50 0-5-11-4-35-1-47l-11 5c-15-6-23 0-35-6-6-11-3-85-3-102 12 0 37-3 47-2l-1-42c-10 5-28-1-46-2-1-19-3-86 3-101 6-3 35-4 43-5z"/><path fill="#e1e1df" d="m3292 2885 7 1v277H1773v-180c0-18-2-86 3-100l3 4c2 70 1 206 1 270h1512zM1772 871h986c179 0 362-2 541 0v105l-6-2c-3-11-1-80-1-97-169 3-344 1-513 1H1779c0 21 2 76-1 97l-4 1-2-1z"/><path fill="#0f130f" d="m1772 975 2 1c9 2 31 2 41 2l1 103-38 1-6 1c-10 5-28-1-46-2-1-19-3-86 3-101 6-3 35-4 43-5"/><path fill="#999" d="m1734 985 31 1q46 30 16 76c-17 14-25 13-47 12z"/><path fill="#c7ac6b" d="M1779 985h29c0 23 1 65-1 86q-10 4-22 2c-3 0-1 1-4-1 27-28 27-60-2-87"/><path fill="#0f130f" d="M1726 1127c12 0 37-3 47-2l5 1 38 1v103h-41l-11 5c-15-6-23 0-35-6-6-11-3-85-3-102"/><path fill="#999" d="M1735 1134c27-1 51 4 58 37 3 14-4 28-12 40q-9 7-19 12l-27 1z"/><path fill="#c7ac6b" d="M1777 1134h31v88h-25l-2-1c26-31 29-59-4-87"/><path fill="#0f130f" d="M1726 1832c0-19-2-84 1-97 8-8 34-11 44-10 7 7 33 4 45 4v102c-9 0-36 0-43 3-4 2-39-2-47-2"/><path fill="#999" d="M1735 1736c27-1 53 5 59 39q1 21-14 38l-15 10-30 2z"/><path fill="#c7ac6b" d="M1778 1736h30v88h-25l-2-2c27-31 29-56-3-86"/><path fill="#0f130f" d="M1726 1277c14 0 41-4 50 0h40v103h-37l-5 2-10 3c-16-7-21-1-35-6-6-8-3-86-3-102"/><path fill="#999" d="M1735 1284c15 0 24-2 38 7 27 18 26 45 8 69-17 15-24 14-46 14z"/><path fill="#c7ac6b" d="M1777 1284h31v89l-23-1-4-1c25-32 31-57-4-87"/><path fill="#0f130f" d="M1727 2884c-1-16-4-94 4-102 12-4 30-3 42-3l3 1 41 1-1 103-40-1q-25 3-49 1"/><path fill="#999" d="M1735 2788h31c30 20 39 48 15 77q-10 7-19 12h-27z"/><path fill="#c7ac6b" d="M1780 2788h29c0 18 2 73-1 87q-10 5-23 2c-4 0-2 1-5-1 31-30 28-58 0-88"/><path fill="#0f130f" d="M3301 1273h5c9 6 39 2 39 11-2 20 4 79-3 95q-12 5-27 2c-5 5-7 6-14 7l-3-7-2-1h-39v-104h38z"/><path fill="#999" d="M3301 1368c-39-39-24-85 36-84 0 14 2 78-2 88q-6 3-13 3c-9-2-13-3-21-7"/><path d="M3298 1381q1-6 3-13c8 4 12 5 21 7l7 1v1l-2 1q-7-1-12 3c-5 5-7 6-14 7z"/><path fill="#c7ac6b" d="M3267 1284h30l-14 12c-19 32-12 53 14 77h-33c1-18-1-74 3-89"/><path fill="#c6ae77" d="M3267 1284h30l-14 12c-5 4-6 4-12 6l-3-1q1-7 4-15z"/><path fill="#0f130f" d="m1816 2133-24-2c-14 0-51 7-62-1-8-21-5-73-2-97 1-6 37-9 45-5l6 2h37z"/><path fill="#999" d="M1735 2036c16 0 26-2 39 8 27 19 24 46 7 70-17 14-26 12-46 12z"/><path fill="#c7ac6b" d="M1780 2037h29c-1 22 1 67-2 87-5 2-16 2-22 2l-5-2q44-43 0-87"/><path d="M1775 2479h3l38 1v102l-37 1-6 1c-12 0-33 1-43-3-7-14-3-80-2-100 13-2 32-2 47-2"/><path fill="#999" d="M1735 2487c16-1 26-2 40 8 25 18 23 44 7 67-18 15-25 14-47 13z"/><path fill="#bdaa7b" d="M1779 2487h30c0 20 2 69-1 87q-10 3-23 2c-4 0-2 0-5-2q44-44-1-87"/><path fill="#0f130f" d="M1773 2629h7l36 2v102h-43l-46-1c-2-30 0-71 0-102z"/><path fill="#999" d="M1735 2637h30c30 20 39 45 17 75q-9 8-18 13l-29 1z"/><path fill="#c7ac6b" d="M1779 2637h30c0 17 1 74-1 88q-11 3-23 2l-4-1-1-2c31-29 28-58-1-87"/><path fill="#0f130f" d="M3302 1419c21 8 19 8 43 9 0 21 2 82-2 99-7 7-24 3-38 8-5-2-3-1-7-5l-41 1v-103l41-1z"/><path fill="#999" d="m3308 1436 29-1v89h-25q-15-6-23-19-11-15-8-34c3-18 13-26 27-35"/><path fill="#c7ac6b" d="M3264 1435h31c-26 25-29 48-9 78l7 8-1 2q-14 2-27 0z"/><path fill="#0f130f" d="M3301 1572c15 5 28 4 41 9 7 17 3 76 1 97 0 4-16 6-19 5-11-3-13 7-21 3l-3-5h-43v-102h41z"/><path fill="#999" d="M3309 1586h28v89l-26-1q-15-7-24-20-9-17-5-35 7-23 27-33"/><path fill="#c7ac6b" d="M3265 1586h31c-17 16-21 23-24 47 5 21 10 27 24 41h-31v-88"/><path fill="#bdaa7b" d="M3265 1586h31c-17 16-21 23-24 47-5-14 3-26 3-40l-4 1c-5 11 0 26-6 41z"/><path d="M3302 1724c17 2 22 6 42 5 1 21 6 86-3 100q-3 3-9 4c-29 1-45-4-75 0v-103h40z"/><path fill="#999" d="m3316 1736 21 1v88c-12 0-18 1-30-2-38-23-35-77 9-87"/><path fill="url(#a)" d="M3264 1737h31c-25 26-29 47-9 78 4 3 4 3 7 8-5 5-20 3-29 2z"/><path d="m3294 2780 6 1h45v104l-46 1-7-1h-35l-1-104q19 1 38-1"/><path fill="#999" d="M3313 2788h24v89q-14 2-27-1c-40-23-39-67 3-88"/><path fill="#bdaa7b" d="M3264 2789h32l-13 12-2 4q-21 43 17 73h-34z"/><path fill="#0f130f" d="M3297 2481c14-2 33-2 48-1v103h-45l-43 1v-103z"/><path fill="#999" d="M3310 2487h27v89h-24c-43-20-42-64-3-89"/><path fill="#bdaa7b" d="m3264 2488 31-1c-26 27-29 50-7 81l7 7-2 2h-29z"/><path fill="#999" d="M1771 1685c-4 0-38-5-43-7-4-15-3-79-1-96 9-10 27 0 39-7q2-2 7 1l1 1 4 4-1 13c27 33 20 47-6 76l3 7-3 4z"/><path d="M1771 1685c-4 0-38-5-43-7-4-15-3-79-1-96 9-10 27 0 39-7q2-2 7 1l1 1 4 4-1 13c-17-10-23-9-42-8v88c14 0 23 1 36-4l3 7-3 4z"/><path fill="#999" d="M1726 1428c12-1 39-5 48-3l4 4-2 3-2 9c28 27 26 50-1 77 1 5 2 6 1 11l-1 2c-6 3-37 0-47 0z"/><path d="M1726 1428c12-1 39-5 48-3l4 4-2 3-2 9c-14-8-23-7-39-6l-1 89c17 0 24 1 39-6 1 5 2 6 1 11l-1 2c-6 3-37 0-47 0z"/><path fill="#999" d="m1777 1974-10 9c-16-3-30 3-39-5-4-14-4-82 2-97 8-3 25-4 35-6h2l3 5h3l5-1-3 14c25 27 27 56-6 79z"/><path d="m1777 1974-10 9c-16-3-30 3-39-5-4-14-4-82 2-97 8-3 25-4 35-6h2l3 5h3l5-1-3 14c-16-9-22-8-40-7v89q18 1 34-3z"/><path fill="#999" d="M3299 1125c9-3 38 1 45 8 3 15 1 80 0 97-11 1-29 1-39 6l-4-1-2-4-1-1c0-6 1-5 3-12-4-7-22-20-22-40 0-16 11-29 22-39-6-7-7-7-2-13z"/><path d="M3299 1125c9-3 38 1 45 8 3 15 1 80 0 97-11 1-29 1-39 6l-4-1-2-4-1-1c0-6 1-5 3-12 14 7 21 6 36 6v-90c-14 0-24-1-36 5-6-7-7-7-2-13z"/><path fill="#999" d="M3302 2028c8-4 6-4 14 0 13 6 19-4 28 9 3 15 1 79 1 96l-34 3q-8-3-11-12l3-2c-26-26-33-47-4-80l-1-2c1-6 1-7 4-12"/><path d="M3302 2028c8-4 6-4 14 0 13 6 19-4 28 9 3 15 1 79 1 96l-34 3q-8-3-11-12l3-2c14 5 20 4 34 4v-90c-16 0-24 0-38 6l-1-2c1-6 1-7 4-12"/><path fill="#999" d="M3301 1875c11-1 32 3 42 8 4 11 3 81 1 95-8 8-20 5-35 7l-3-2-1-3v-8c-32-24-31-49-7-79q-2-8 3-15z"/><path d="M3301 1875c11-1 32 3 42 8 4 11 3 81 1 95-8 8-20 5-35 7l-3-2-1-3v-8q14 5 29 3c5-8 3-74 3-89-18 0-24-1-39 7q-2-8 3-15z"/><path fill="#999" d="M3303 978h42c-1 26 1 81-1 104-12 0-27-1-38 5l-4-4c-2-5-2-3-2-8l9-1c-34-19-41-54-12-81l8-6-5-5z"/><path d="M3303 978h42c-1 26 1 81-1 104-12 0-27-1-38 5l-4-4c-2-5-2-3-2-8l9-1h28v-89c-13 0-19 0-32 2l-5-5z"/><path fill="#999" d="M3312 2638c2-4 1-3 5-6 12 1 14 1 26-3 5 13 3 89 1 104l-42 1v-13c-32-26-28-65 10-83"/><path d="M3312 2638c2-4 1-3 5-6 12 1 14 1 26-3 5 13 3 89 1 104l-42 1v-13c12 6 21 5 35 5v-89z"/><path fill="#0f130f" d="m3299 2630 44-1c-12 4-14 4-26 3-4 3-3 2-5 6-38 18-42 57-10 83v13h-45v-103c9-1 35 1 42-1"/><path fill="#c6ae77" d="M3264 2638h31l-17 21c-10 31-3 47 20 68h-33c-3-10-2-74-1-89"/><path fill="#bdaa7b" d="M3264 2638h31l-17 21-12-21c0 20 1 72-1 89-3-10-2-74-1-89"/><path fill="#0f130f" d="M3299 978h4l-3 4 5 5-8 6c-29 27-22 62 12 81l-9 1c0 5 0 3 2 8h-2l-4-3-40 1c-1-31-1-72 1-103z"/><path fill="#c7ac6b" d="M3264 985h33q-42 31-14 76l13 13-32-1z"/><path fill="#0f130f" d="M3300 2028h2c-3 5-3 6-4 12l1 2c-29 33-22 54 4 80l-3 2q3 9 11 12-8 2-13-2h-42l1-104h38z"/><path fill="#c7ac6b" d="M3264 2037h30c-20 20-21 31-21 58l-2 3 1 5h-5l-2 3z"/><path fill="#c6ae77" d="M3273 2095c8 9 8 17 25 32-12 0-23 2-32-3-3-7-2-10-1-18l2-3h5l-1-5z"/><path fill="#0f130f" d="M1779 1427h37v103c-11 1-32 1-42-1 1-5 0-6-1-11 27-27 29-50 1-77l2-9 2-3-4-4z"/><path fill="#c7ac6b" d="M1779 1434h29v89h-24l-2-1-1-2 5-4c25-27 18-58-7-82"/><path fill="#0f130f" d="m3295 1125 4 1c-5 6-4 6 2 13-11 10-22 23-22 39 0 20 18 33 22 40-2 7-3 6-3 12h-41v-104z"/><path fill="#c7ac6b" d="M3266 1136q13-3 30-2c-11 9-12 11-19 22-10 31-3 45 18 66h-30c0-23-2-64 1-86"/><path fill="#c6ae77" d="M3266 1136q13-3 30-2c-11 9-12 11-19 22l-7-2c-3-8-2-7 0-17z"/><path fill="#0f130f" d="M3301 1878q-5 7-3 15c-24 30-25 55 7 79v8c-6-2-3-1-8-6l-2 2 2 3c-7 4-29 2-40 3l-1-102q20 0 39-2z"/><path fill="#c7ac6b" d="M3264 1887h30l-5 6c-25 28-19 58 8 81l-2 2h-31z"/><path fill="#0f130f" d="M1774 1577h5l37 1v103h-37l-6 1-2-1 3-4-3-7c26-29 33-43 6-76l1-13z"/><path fill="#c7ac6b" d="M1779 1586h29v88h-25q-2 0-2-3 42-42-2-85"/><path fill="#0f130f" d="M1778 1879h38v103l-39-1v-4l8-2-5-2-3 1-8-2c33-23 31-52 6-79z"/><path fill="#bdaa7b" d="M1779 1886h30c-1 15 0 75-2 87q-8 3-18 2h-4l-5-2 16-19c10-30 6-46-17-68"/><path fill="#c6ae77" d="m1780 1973 16-19q7 1 10 7c-2 9-8 10-17 14h-4z"/><path fill="#e1e1df" d="M3297 2135c4 15 3 335 0 346l-3-3c0-35-7-334 3-343M1777 2133c4 7 4 151 3 174-1 28 3 157-2 172h-3c-3-7-2-40-2-50v-219c0-14-2-69 4-77M3294 2780c-2-8-3-35 0-44h5l1 45zM1773 2584l6-1 1 46h-7zM1780 2733c0 12 2 39-4 47l-3-1v-46zM3299 2630c-4-1-2 0-5-4-2-15-3-24 0-39l5-2zM1773 1531l5 2c3 11 1 32 1 44h-5l-1-1zM1775 1982c4 4 4 3 5 10l-1 38-6-2c0-14-1-33 2-46M1773 1834l5 1q4 20 1 39c-3 4-1 3-5 4zM1773 1682l6-1c0 14 2 30-2 43l-2-1q-3-20-2-41M1774 1382l5-2v47l-5-2c-2-13-1-30 0-43M3297 1730c-3-9-5-40 3-47 3 15 0 28 2 41zM1772 1083l6-1v44l-5-1zM3296 1983c7 8 4 32 4 45l-5 2c-1-12-2-37 1-47M3298 1833c5 8 3 32 3 42v3h-6c0-11-2-36 3-45M3295 1276c0-12-3-37 4-45l2 4v38zM3296 1380l2 1 3 7c0 9-1 22 1 31l-4 8c-5-7-3-36-2-47M3298 1530c5 14 1 27 3 42l-3 7-2-5c-1-10-3-35 2-44M1775 1230c6 9 4 31 4 43l-3 4c-5-11-4-35-1-47M3296 1080l4 3-1 42v1l-4-1c-1-12-1-32 1-45"/><path fill="#0f130f" d="M1861 914h1038c102 0 223-3 326 2 17 1 20 29 20 44v2117c0 24-1 33-24 42-50 2-106 0-156 0h-983c-16 0-52 2-52-22q-1-123 1-246c1-38-22-38-52-37l-68 1c-20 0-50 4-65-11q-7-19-6-42V1387l-1-321c0-40-1-92 2-133 1-8 14-15 20-19"/><path fill="silver" d="M1866 921c105-3 226-1 332-1l660 1 260-1c22 0 85-3 103 2q11 3 14 13c6 13 2 447 2 496l1 1326c0 37 3 333-3 345q-7 9-18 11H2202q-65 1-128 0c-10-1-29-1-34-10-11-17 3-223-4-265q-1-12-10-22-8-7-19-8-18-2-36 0h-88c-13 0-24 0-33-9-2-7-2-20-2-28l-1-454V1069l-1-114c0-19 3-27 20-34"/><path fill="#32312e" d="M2253 1137c24 2 55 29 59 54 3 19-30 35-42 21 6-9 24-7 33-22-1-14-11-11-17-18-14-17-32-38-54-16-13 13-13 9-30 12-7 5-8 7-12 15q0 11 9 16c21-4 19-14 42-2 9-5 21-13 31-8v3q-11 11-26 15c-13 46-63 7-67-19q-1-12 6-22c12-15 22-9 31-14 18-9 12-13 37-15"/><path fill="silver" d="M2222 1203a8 8 0 1 1 4 14 8 8 0 0 1-4-14"/><path fill="#8a8987" d="M2362 1196c13 2 19 0 30 2l1 2c-5 1-4 0-7 2l9 8c0 6 0 3-5 9-11-1-23 4-30-2-2-7-2-4 0-10 7-2 5-1 10-5-5-5 0 1-9-1z"/><path fill="#666767" d="M2406 1143c12 1 16-1 23 9 1 8 1 10-2 17q-11 5-19 1-5-12-2-27"/><path fill="silver" d="M2410 1146c7 1 8 1 14 5q2 8 0 17l-11-1q-4-8-3-21"/><path fill="#666767" d="M2443 1190c12-1 17-2 24 8 1 7 0 9-2 16q-9 6-20 2-3-12-2-26"/><path fill="silver" d="M2448 1193c6 0 7 0 13 3q4 7 1 16c-6 2-6 2-12 1-4-6-2-14-2-20"/><path fill="#666767" d="M2339 1143c6 10-1 16 8 27h4c12-11-1-28 25-27l1 3c-8 1-11 2-17 6 2 14 3 11 15 20-7 1-7 1-14-2l-3-1q-7 0-18 1l-3-3c-2-10 0-15 2-24M2443 1143l4 2c5 10 7 13 9 23l-2 2-5-7c-15 1-5 4-15 4l3-1-2-4zM2383 1143h11l3 3 2-1-10 4-1 2 3 4c4 3 3 3 6 3-6 0-7 2-11 7 9 6 10-1 17 6q-9 3-18-1-3-12-2-27M2337 1189q10 0 18 2-7 2-12 6l1 4 7 2h-6l-1 2-4 2c6 10 5 2 14 9q-8 5-16-1zM2422 1189c7 1 9 0 14 3-5 1-5 2-10 5l1 3 6 3 1 1-5-1-2 2h-3l3 8 9 1 1 2c-5 4-4 3-10 4l-4-4q-3-12-1-27M2398 1197q6 5 10 12 2-7 6-10c2 5-2 12-4 18-4 7-1 5-7 8-1-15 2-12-5-28"/><path fill="#0f130f" d="M1828 2919h169l1 163-170-1z"/><path fill="#464644" d="m1836 2926 154-1v149l-155 1z"/><path fill="#bdaa7b" d="M1891 3051c-29 3-43-27-40-51 5-50 61-73 100-41 42 36 29 90-24 99l-8-3q-14 2-28-4"/><path fill="#32312e" d="M1891 3051c-29 3-43-27-40-51 5-50 61-73 100-41 42 36 29 90-24 99l-8-3a53 53 0 1 0-28-4"/><path fill="#464644" d="M1870 3020c-23-37 37-83 72-50 19 15 23 39 7 58q-14 17-35 18c-19 2-37-8-44-26"/><path fill="#32312e" d="M1942 2970c19 15 23 39 7 58q-14 17-35 18c-19 2-37-8-44-26h3q19 16 43 18c31 2 34-26 35-49q-8-9-9-19"/><path fill="#32312e" d="M1915 3011q-9 3-15-4c-3-11-3-21 8-26q7 4 13 12c2 8 2 4-1 12q0 4-5 6"/><path fill="#c6ae77" d="M1915 3011a9 9 0 1 1-7-16 9 9 0 0 1 7 16"/><path fill="#e1e1df" d="M70 446h3095q218 1 434 0v243H985c-24 0-156-2-168 2-5 7 0 26-1 38h-70c0-19 0-21 4-39-41-4-118-2-160 0 18 5 44 8 63 10v27c-19 2-50 8-68 8-4-3-3-13-3-18l1-7c0-6 0-17-3-20-52-3-119-1-171-1H71zm8 236h3514V453H526c-148 0-301 2-448 0z"/><path fill="#32312e" d="m583 710 24 2-5 4-20 1z"/><path fill="silver" d="M607 712h12l1 2c-8 3-9 2-18 2z"/><path fill="#232220" d="M78 453c147 2 300 0 448 0h3066v229H78zm3299 173V512h-86l-1 114zm127-30c34-19 20-56-19-52-36 23-20 54 19 52m-2873 1c16-5 29-16 22-34q-4-13-17-18l-12-3c-41 13-35 53 7 55m2222-55c-41 12-35 54 8 54 36-15 27-47-8-54m-2549 0q-16 3-24 18-4 9-1 19c7 16 21 18 36 17 33-17 25-49-11-54m510 18c-20-24-33-21-57-4-4 59 62 52 57 4m2345 35h4c34 3 53-18 29-47-13-5-21-7-33-2-14 6-16 26-9 38zm-2684 1c34-15 24-50-13-54-40 15-31 56 13 54m2176-84v114h87l-1-114zm369 85c36-15 28-48-7-55-11 3-20 6-25 17q-5 10-2 19c6 15 20 18 34 19"/><path d="M264 503c33-1 62-1 95 1 0 17 4 125-2 132h-7q-48 0-98-1l1-129c3-4 4-2 11-3m51 93c33-17 25-49-11-54q-17 3-24 18-4 9-1 19c7 16 21 18 36 17"/><path fill="#c7ac6b" d="M262 512h87v114h-87zm53 84c33-17 25-49-11-54q-17 3-24 18-4 9-1 19c7 16 21 18 36 17"/><path fill="#bdaa7b" d="M294 626c24-15 20-11 45-8q2-7-2-15c22-31 2-50 12-65v88z"/><path d="M3279 502q53-1 108 2c0 35 3 99-1 132l-106-1q1-66-1-133m11 124h87V512h-86z"/><path fill="#c7ac6b" d="M3291 512h86v114h-87zm53 84c35-24 17-56-22-51q-13 6-17 21-2 10 4 18 8 11 22 12z"/><path d="M3482 503c19-2 45 0 65 0v133h-107q-1-66 1-132zm22 93c34-19 20-56-19-52-36 23-20 54 19 52"/><path fill="#c6ae77" d="M3450 512h88l-1 114h-86zm54 84c34-19 20-56-19-52-36 23-20 54 19 52"/><path fill="#c7ac6b" d="M3475 515c13-4 41-1 56 4-3 30 4 69 1 99-6 4-7 3-16 3-8 3-46 2-55 1-8-18-8-79-4-101q8-5 18-6m29 81c34-19 20-56-19-52-36 23-20 54 19 52"/><path d="M572 502q54-1 106 1c0 42 2 89 0 130-7 5-91 2-106 2 1-43-2-90 0-133m59 95c16-5 29-16 22-34q-4-13-17-18l-12-3c-41 13-35 53 7 55"/><path fill="#c7ac6b" d="M582 512h86v114h-86zm49 85c16-5 29-16 22-34q-4-13-17-18l-12-3c-41 13-35 53 7 55"/><path d="M2961 503c32-3 74-1 106 1v132h-106c1-44-2-92 0-133m59 94c36-15 28-48-7-55-11 3-20 6-25 17q-5 10-2 19c6 15 20 18 34 19"/><path fill="#c7ac6b" d="M2971 512h86v114l-86 1zm49 85c36-15 28-48-7-55-11 3-20 6-25 17q-5 10-2 19c6 15 20 18 34 19"/><path d="m3176 503 51-1v134h-107l1-133zm16 45c-13-5-21-7-33-2-14 6-16 26-9 38l9 11h4c34 3 53-18 29-47"/><path fill="#c7ac6b" d="M3130 512h81l5 1c3 10 2 97 1 113h-87zm62 36c-13-5-21-7-33-2-14 6-16 26-9 38l9 11h4c34 3 53-18 29-47"/><path fill="#c6ae77" d="m3211 512 5 1c3 10 2 97 1 113h-45c9-4 29-4 39-5 4-7-3-37 0-47q2-7 1-14l-1-1c-5 32-12 60-52 39v-3h4c34 3 53-18 29-47 4-2 2-1 8-1l9 6c5-12-1-33 2-41"/><path d="M2641 502c36-1 71 2 107 0l-1 134h-106zm10 124h87l-1-114h-86z"/><path fill="#bdaa7b" d="M2651 512h86l1 114h-87zm53 84c9-5 16-9 19-20q1-10-3-18-7-12-21-14h-15c-32 21-18 52 11 52z"/><path fill="#c7ac6b" d="M2657 515c16 0 65-3 74 4 3 18 1 81 0 101h-71c1-12 1-15-2-28v26c-2-7-5-96-1-103m47 81c9-5 16-9 19-20q1-10-3-18-7-12-21-14h-15c-32 21-18 52 11 52z"/><path d="M500 503h19l-1 133h-89q-8 1-16-2c-2-9 0-116 0-131zm-25 93c34-15 24-50-13-54-40 15-31 56 13 54"/><path fill="#c7ac6b" d="M422 512h87v114h-87zm53 84c34-15 24-50-13-54-40 15-31 56 13 54"/><path d="M732 503c33 2 72 0 106 0v133H731zm82 57c-20-24-33-21-57-4-4 59 62 52 57 4"/><path fill="#c7ac6b" d="M742 531c0-7-2-13 2-18 15-3 65-1 84-1v114h-86zm72 29c-20-24-33-21-57-4-4 59 62 52 57 4"/><path fill="#bdaa7b" d="M742 531c4 17 9 68 9 86 19 0 48 1 66-1 3-4 2-1 1-7l-3-3q1-8 6-15v-3l-3-1-2 2c-33 39-81 6-63-31l4-2c-4 59 62 52 57 4 6 7 2 14 7 25 8-16 4-27 6-45l1-2v88h-86z"/><path d="M2801 503h107c-2 41-1 91-1 133h-106zm60 93c36-15 27-47-8-54-41 12-35 54 8 54"/><path fill="#c7ac6b" d="M2811 512h86v114c-19 0-67 2-84-1q-3-8-2-19v-94m50 84c36-15 27-47-8-54-41 12-35 54 8 54"/><path fill="#c6ae77" d="M2811 512h86v114c-19 0-67 2-84-1q-3-8-2-19l3 10c12 7 61 6 73 3 9-16 8-82 0-99-10-6-58-3-72-3-1 13 2 59-4 66z"/><path fill="#e1e1df" d="M1379 512h37c0 15 1 89-2 98q-11 3-23 2l-2-25-3 1c-1 9 0 16-6 23q-9 4-16-2l-8 3h-25V512l36 1 7 42z"/><path fill="#32312e" d="m1356 612 1-52 7 49z"/><path fill="#666767" d="m1388 569 4 1-1 42-2-25-3 1z"/><path fill="silver" d="m1388 569 1-8 2-1 1 10z"/><path fill="#e1e1df" d="M1211 510c34 2 35 27 35 55-1 27-2 43-30 50q-34 0-37-34c-2-31-6-65 32-71"/><path fill="#0f130f" d="m1210 529 4 2c4 9 1 51 1 65l-4-1c-5-8-2-55-1-66"/><path fill="#e1e1df" d="m1526 513 27-1v100c-8 0-29-3-34 1-40 9-30-55-23-77 3-11 17-3 26-6 5-6 3-7 4-17"/><path fill="#0f130f" d="m1520 545 3 1c5 6 2 41 2 51h-3c-6-8-3-41-2-52"/><path fill="#e1e1df" d="M1593 530h29v82c-82 0-61-4-62-82h28c0 13-2 58 2 67 2-16-2-54 3-67"/><path fill="#0f130f" d="M1590 597c2-16-2-54 3-67 1 12 3 59-2 67z"/><path fill="#e1e1df" d="M1442 530h21c32 9 33 67 5 83-6 0-17 2-22 0-33-9-32-67-4-83"/><path fill="#32312e" d="m1452 545 5 3c2 14 1 35 0 50l-3-1c-5-7-2-42-2-52"/><path fill="#e1e1df" d="M1728 593c-10 18-26 30-46 18s-23-53-12-71c9-13 38-15 48-3 10 10 9 24 9 37 2 9 2 9 1 19"/><path fill="#32312e" d="M1728 593q0-10-4-15h-21c-7 5 1 9-4 19h-4c-3-6-3-16 0-22q15-3 32-1c2 9 2 9 1 19M1694 545c7 4 5 7 5 15l-3-1c-4-5-3-6-2-14"/><path fill="#e1e1df" d="M1114 513c38-1 73-6 59 49-3 12-19 8-29 12l-1 5 1 33h-30z"/><path fill="#0f130f" d="m1144 531 5 2q3 11 0 21l-4-1q-3-11-1-22"/><path fill="#e1e1df" d="M1253 512c11 0 36-1 46 2 3 9 5 12-2 18-7 1-8 0-14 4-3 9-3 5 0 12q10 3 15 10c1 6 2 7-1 12-10 2-13 1-17 12 2 7 0 4 4 9 10 0 11-1 17 3 5 27-30 18-48 18zM1630 513l28-1v100h-28z"/><path fill="#464644" d="M760 707c11-1 35-4 44 2-8 2-38 4-44-2"/><path fill="#0f130f" d="M904 1050c1-15-2-41 7-50 11-5 37-1 50 0 0 9-1 42 2 50h9c3-10 2-39 2-50q29-3 58-1v50h11l1-50h23c44-2 35 10 36 50l9 2c2 6 5 19 14 18 11 2 13 3 24 2l8-4v1l4-1c6-7 6-8 10-17h8c3-12 1-37 2-50h56l1 52c5-4 5-3 12-3l1-50 55 1c2 14 1 35 1 49 10 1 12-1 17 4 3 15 1 113 1 136v316c0 14 1 122-2 127q-8 3-16 0c-1 16 4 34-2 46-11 10-38 11-50 3-8-5-5-36-5-48l-11-1c-1 18 5 36-3 48-10 7-17 6-29 6-37 2-27-28-26-55l-8 2q-2 17-1 34c-1 7 0 7-5 13-12 9-40 9-52 0-5-9-4-36-4-47l-9-1c-2 16 1 31-2 45-2 13-45 8-51 4-9-6-8-37-9-49l-8 1c-2 15 5 48-11 50-64 12-45-17-49-50h-9c-2 13 0 31-2 44-2 14-45 8-55 4-6-9-3-36-3-48l-9-1c-2 16 4 35-4 49-12 7-43 8-53-1-8-16-5-29-4-47h-9c-1 14 3 32-2 45-9 11-46 10-55 1-5-5-2-36-4-47l-9 1c1 13 4 36-2 47-11 8-42 7-53 0-4-8-2-38-2-48h-2q-8 2-15 0c-3-6-2-91-2-105v-345c0-19-1-119 2-130 5-4 8-2 16-2l1-1v-50h56v52l13-1v-50h56c1 12 0 39 7 48 17-6-21-72 59-47 8 9 6 35 5 47v2z"/><path fill="#426154" d="M698 999h56v52l13-1 1 6c4 8 4 8 11 14 7 5 8 4 10 10h-16c-41-1-65-2-64 46q2 147 1 293-1 72 1 143c0 16 8 32 27 33h521c23-1 29-21 29-40v-423c1-32 0-52-38-53l-99 1-1-9 8-4v1l4-1c6-7 6-8 10-17h8c3-12 1-37 2-50h56l1 52c5-4 5-3 12-3l1-50 55 1c2 14 1 35 1 49 10 1 12-1 17 4 3 15 1 113 1 136v316c0 14 1 122-2 127q-8 3-16 0c-1 16 4 34-2 46-11 10-38 11-50 3-8-5-5-36-5-48l-11-1c-1 18 5 36-3 48-10 7-17 6-29 6-37 2-27-28-26-55l-8 2q-2 17-1 34c-1 7 0 7-5 13-12 9-40 9-52 0-5-9-4-36-4-47l-9-1c-2 16 1 31-2 45-2 13-45 8-51 4-9-6-8-37-9-49l-8 1c-2 15 5 48-11 50-64 12-45-17-49-50h-9c-2 13 0 31-2 44-2 14-45 8-55 4-6-9-3-36-3-48l-9-1c-2 16 4 35-4 49-12 7-43 8-53-1-8-16-5-29-4-47h-9c-1 14 3 32-2 45-9 11-46 10-55 1-5-5-2-36-4-47l-9 1c1 13 4 36-2 47-11 8-42 7-53 0-4-8-2-38-2-48h-2q-8 2-15 0c-3-6-2-91-2-105v-345c0-19-1-119 2-130 5-4 8-2 16-2l1-1z"/><path fill="#0f130f" d="M851 1605c26-1 37 0 44 27-2 16 4 35-4 49-12 7-43 8-53-1-8-16-5-29-4-47 3-15 6-18 17-28"/><path fill="#999" d="M844 1634c-5-28 28-36 42-11v54h-42z"/><path fill="#bdaa7b" d="M844 1634c-5-28 28-36 42-11l-3 6-3 1c-6-7-7-11-15-13-16 4-12 12-21 17"/><path fill="#999" d="M1116 1616c22-26 48-13 58 17q-2 17-1 34c-1 7 0 7-5 13-12 9-40 9-52 0-5-9-4-36-4-47z"/><path d="m1116 1616 5 2-1 14c2 8 1 36 1 45 10 0 31 2 41-2l3-6 8-2c-1 7 0 7-5 13-12 9-40 9-52 0-5-9-4-36-4-47z"/><path fill="#222b1b" d="M1116 1616c22-26 48-13 58 17q-2 17-1 34l-8 2c-2-10-2-33-1-44-9-21-26-22-43-7z"/><path fill="#bdaa7b" d="M1121 1618c17-15 34-14 43 7l-5 5-3-1-1-2c-4-5-5-7-11-10-12 1-12 4-19 13l-5 2z"/><path fill="#0f130f" d="M1041 1632c8-29 16-28 44-27 10 10 15 13 18 27-2 16 1 31-2 45-2 13-45 8-51 4-9-6-8-37-9-49"/><path fill="#999" d="M1051 1633c-3-33 42-35 43 0v44h-43z"/><path fill="#bdaa7b" d="M1051 1633c-3-33 42-35 43 0-6-2-9-9-19-15-14 0-14 8-24 15"/><path fill="#0f130f" d="M904 1633c8-42 54-35 60 0-2 13 0 31-2 44-2 14-45 8-55 4-6-9-3-36-3-48"/><path fill="#999" d="M911 1632c1-29 34-33 45-7v52h-43c0-11 0-35-2-45"/><path fill="#bdaa7b" d="M911 1632c1-29 34-33 45-7l-4 4c-8-2-8-10-16-11-13-3-14 12-25 14"/><path fill="#999" d="M985 1614c18-9 23-8 38 4l6-1 4 16c-2 15 5 48-11 50-64 12-45-17-49-50 2-11 3-14 10-22z"/><path fill="#0f130f" d="m983 1611 2 3c-4 8-4 9-4 19l1 44h43c0-11 1-34-1-45l-1-14 6-1 4 16c-2 15 5 48-11 50-64 12-45-17-49-50 2-11 3-14 10-22"/><path fill="#bdaa7b" d="M985 1614c18-9 23-8 38 4l1 14c-8-3-14-15-23-14-10 5-11 9-20 15 0-10 0-11 4-19"/><path fill="#0f130f" d="m1252 999 55 1c2 14 1 35 1 49l1 5c-3 9-12 25-25 19l-19-4-8-3q-6-7-6-17z"/><path fill="#999" d="M1258 1006h43c0 8-1 35 1 41-11 4-9 14-25 15-6-3-6-3-10-8l-8-9z"/><path fill="#bdaa7b" d="m1259 1045 8 9c4 5 4 5 10 8 16-1 14-11 25-15-1 17-4 19-18 26l-19-4c-8-9-9-12-6-24"/><path fill="#0f130f" d="M698 999h56v57c-6 13-7 14-21 20l-3-1v-2l-20-4-5-2q-6-8-7-18z"/><path fill="#999" d="M706 1006h41v41c-7 3-6 8-17 15-7 1-7 1-13-2-4-5-5-8-11-10z"/><path fill="#bdaa7b" d="M706 1050c6 2 7 5 11 10 6 3 6 3 13 2 11-7 10-12 17-15 1 16-3 20-17 26l-20-4c-5-8-8-10-4-19"/><path fill="#999" d="M1182 1000h56l1 52c-2 8-6 19-16 19-15 1-18 1-31-5h-2c-6-5-6-8-10-16 3-12 1-37 2-50"/><path fill="#0f130f" d="M1182 1000h56l1 52c-2 8-6 19-16 19 8-10 9-12 9-25v-40h-43v41c-1 9-1 10 3 19h-2c-6-5-6-8-10-16 3-12 1-37 2-50"/><path fill="#bdaa7b" d="M1189 1047c13 5 7 15 24 16 13-6 7-12 19-17 0 13-1 15-9 25-15 1-18 1-31-5-4-9-4-10-3-19"/><path fill="#e1e1df" d="M1308 1049c10 1 12-1 17 4 3 15 1 113 1 136v316c0 14 1 122-2 127q-8 3-16 0v-3c8-1 7 0 12-5 3-51 0-146 0-201l1-355c0-8 0-9-4-14h-8z"/><path fill="#999" d="M1259 1631c12-5 8-15 24-14 7 5 7 6 13 12l5 1 1-3 2-12q4 7 4 14v3c-1 16 4 34-2 46-11 10-38 11-50 3-8-5-5-36-5-48 0-8 1-10 4-17l4 3z"/><path fill="#0f130f" d="m1255 1616 4 3v58h42v-47l1-3 2-12q4 7 4 14v3c-1 16 4 34-2 46-11 10-38 11-50 3-8-5-5-36-5-48 0-8 1-10 4-17"/><path fill="#999" d="m774 1632 5-2c6-9 6-12 17-13 10 2 8 8 17 13l3-4h1l6-5 2 12c-1 14 3 32-2 45-9 11-46 10-55 1-5-5-2-36-4-47 6 2 5 3 10 2z"/><path d="m817 1626 6-5 2 12c-1 14 3 32-2 45-9 11-46 10-55 1-5-5-2-36-4-47 6 2 5 3 10 2v43h43z"/><path fill="#e1e1df" d="M696 1632q-8 2-15 0c-3-6-2-91-2-105v-345c0-19-1-119 2-130 5-4 8-2 16-2l-2 4-9 2c-2 12-1 58-1 73v371c0 30-2 96 1 125q6 3 10 7"/><path fill="#999" d="M706 1631c7-6 8-10 17-12 16-4 12 5 19 10l4-3h2l6-1 1 8c1 13 4 36-2 47-11 8-42 7-53 0-4-8-2-38-2-48l5-4z"/><path fill="#0f130f" d="m748 1626 6-1 1 8c1 13 4 36-2 47-11 8-42 7-53 0-4-8-2-38-2-48l5-4 3 3c-2 12-1 33-1 46h43z"/><path fill="#999" d="M1189 1633c13-6 6-14 25-15 8 3 7 7 14 12l4-3 1-4 6-1 1 10c-1 18 5 36-3 48-10 7-17 6-29 6-37 2-27-28-26-55l4 2c4 10 2 31 3 43z"/><path d="m1233 1623 6-1 1 10c-1 18 5 36-3 48-10 7-17 6-29 6-37 2-27-28-26-55l4 2c4 10 2 31 3 43 10 2 33 1 44 1 0-13 1-38-1-50z"/><path fill="url(#b)" d="m767 1050 1 6c4 8 4 8 11 14 7 5 8 4 10 10h-16c-8-2-30-3-40-4 14-6 15-7 21-20v-5z"/><path fill="silver" d="m767 1050 1 6h-14v-5z"/><path fill="#bdaa7b" d="M1189 1633c1-30 29-33 44-10l-1 4-4 3c-7-5-6-9-14-12-19 1-12 9-25 15M774 1632c-2-29 35-33 42-6l-3 4c-9-5-7-11-17-13-11 1-11 4-17 13z"/><path fill="#222b1b" d="m1182 1631-1-5q2-11 11-17c16-11 37-4 47 13l-6 1c-15-23-43-20-44 10v43c-1-12 1-33-3-43z"/><path fill="#bdaa7b" d="M703 1628c8-25 37-29 43-2l-4 3c-7-5-3-14-19-10-9 2-10 6-17 12zM1259 1619c17-15 34-15 43 8l-1 3-5-1c-6-6-6-7-13-12-16-1-12 9-24 14z"/><path fill="#222b1b" d="M764 1632q1-14 13-23 10-7 22-5 15 3 24 17l-6 5h-1c-7-27-44-23-42 6v2c-5 1-4 0-10-2M698 1632c-2-28 21-28 41-27q11 8 15 20l-6 1h-2c-6-27-35-23-43 2zM1255 1616c15-15 35-18 49-1l-2 12c-9-23-26-23-43-8z"/><path fill="#3e5246" d="M983 1611q27-20 46 6l-6 1c-15-12-20-13-38-4z"/><path fill="#999" d="M823 1000c1 12 0 39 7 48 17-6-21-72 59-47 8 9 6 35 5 47v2c-1 4-3 11-7 11-14 10-18 13-35 8q-2-3-8-5l-3-1-7-12-3-2-5 1q-4 11-13 18h-2c-14 4-17 5-31 0l-1 2c-7-6-7-6-11-14l-1-6v-50z"/><path fill="#999" d="M844 1006h42v41l1 14c-14 10-18 13-35 8q-2-3-8-5l-1-18z"/><path fill="#bdaa7b" d="M843 1046c8 7 10 12 20 16 13-1 13-9 23-15l1 14c-14 10-18 13-35 8q-2-3-8-5z"/><path fill="#0f130f" d="M823 1000c1 12 0 39 7 48 17-6-21-72 59-47 8 9 6 35 5 47v2c-1 4-3 11-7 11l-1-14v-41h-42l-1 40 1 18-3-1-7-12-3-2-5 1q-4 11-13 18h-2c5-10 6-9 5-21l1-41h-43v40c-1 10-1 13 6 22l-1 2c-7-6-7-6-11-14l-1-6v-50z"/><path fill="#bdaa7b" d="M774 1046c8 6 11 11 21 17 13-4 12-11 21-16 1 12 0 11-5 21-14 4-17 5-31 0-7-9-7-12-6-22"/><path fill="#0f130f" d="M974 1000q29-3 58-1v50c-2 9-2 11-8 18-4 2-3 2-8 2l-10 3-2 3h-7c0 4-1 2 1 5l-2 1-6-3c-9-10-13-15-18-28 3-10 2-39 2-50"/><path fill="#999" d="M982 1006h42v41l-4 2-12 12c-8 2-4 2-13-1-6-6-7-8-14-13z"/><path fill="#bdaa7b" d="M981 1047c7 5 8 7 14 13 9 3 5 3 13 1l12-12 4-2c0 12 0 14-8 22l-10 3c-17-1-27-6-25-25"/><path fill="#999" d="M1044 999h23c44-2 35 10 36 50-7 9-2 14-15 22h-5c-12 0-15 0-27-3q-2 1-5-1c-5-7-5-9-8-18z"/><path fill="#0f130f" d="M1044 999h23c44-2 35 10 36 50-7 9-2 14-15 22h-5c10-9 11-11 11-24v-41h-43c0 10 1 33-1 42 0 11 1 11 6 20q-2 1-5-1c-5-7-5-9-8-18z"/><path fill="#bdaa7b" d="M1050 1048c11 3 8 9 19 15 18 0 12-10 25-16 0 13-1 15-11 24-12 0-15 0-27-3-5-9-6-9-6-20"/><path fill="#999" d="M904 1050c1-15-2-41 7-50 11-5 37-1 50 0 0 9-1 42 2 50-2 6-4 20-14 18q-10 4-22 4l-15-9q-6-4-8-13"/><path fill="#0f130f" d="M904 1050c1-15-2-41 7-50 11-5 37-1 50 0 0 9-1 42 2 50-2 6-4 20-14 18 5-10 6-9 6-21l-1-41h-41v39l-1 18q-6-4-8-13"/><path fill="#bdaa7b" d="M913 1045c7 8 9 12 18 16 13 0 13-9 24-14 0 12-1 11-6 21q-10 4-22 4l-15-9z"/><path fill="#3e5246" d="M1032 1049h11c3 9 3 11 8 18q2 2 5 1c12 3 15 3 27 3h5c13-8 8-13 15-22l9 2c2 6 5 19 14 18 11 2 13 3 24 2l1 9H998c-2-3-1-1-1-5h7l2-3 10-3c5 0 4 0 8-2 6-7 6-9 8-18"/><path fill="url(#c)" d="M894 1050h10q2 9 8 13l15 9-4 8h-61l-10-11c17 5 21 2 35-8 4 0 6-7 7-11"/><path fill="#3e5246" d="M811 1068h2q9-7 13-18l5-1 3 2 7 12 3 1q6 2 8 5l10 11h-73c-2-6-3-5-10-10l1-2c14 5 17 4 31 0"/><path fill="#426154" d="M963 1050h9c5 13 9 18 18 28l6 3c-20-2-51-1-73-1l4-8q12 0 22-4c10 2 12-12 14-18"/><path fill="#666767" d="M736 1086h513c11 1 26 3 29 15q5 24 4 49l-1 408c0 19-3 28-23 32l-377-1q-73 2-147 0c-16-4-17-21-17-33v-389c0-20-2-44 2-65 1-8 10-12 17-16"/><path fill="#999" d="M757 1100c55 0 467-4 485 3q12 5 17 16c5 16 5 382 3 426q0 10-3 18c-6 6-8 6-17 8q-160 2-322 0c-55 0-111 3-167-1q-17-5-17-25c1-143-2-287 2-429 0-7 14-13 19-16"/><path fill="#464644" d="M1192 1128a25 25 0 1 1 13 49 25 25 0 0 1-13-49M860 1502q13 3 18 13c-2 30-52 20-41-4 8-4 4-3 13-2l-7 4c-3 6-3 3-1 10 9 9 19 7 30 2 2-6 2-3 1-9-6-2-8 0-16 3l-3-4-1 1v-1z"/><path fill="#666767" d="M789 1523h31l2 2 1 4-2 2c-11 1-23 3-32-3z"/><path fill="#8a8987" d="M793 1505q9 1 15 6h-3c-6 3-6 4-11 3z"/><path fill="#e1e1df" d="m368 2246 855 1c2 104 0 220 0 325H367l-1-227c0-15-1-89 2-99m9 316h835v-306H377z"/><path fill="#232220" d="M377 2256h835v306H377zm380 187c-61 54 25 133 81 81q15-17 16-40c-1-14-9-37-22-44 38-38-16-42-25-49l1-6c9-8 19 1 29-5l1-6-1-2c23-25 23-59-4-81a60 60 0 0 0-44-14c-74 8-55 103-24 101l3-3c0 17 3 40-6 54-6 3-8 3-15 3l-3 3 1 4c5 3 5 3 12 4m-133-135a27 27 0 1 0 21 49 27 27 0 0 0-21-49m499 73a48 48 0 1 0-15-96 48 48 0 0 0 15 96m-495 77c-37 18-24 54 16 52q13-6 18-19 2-11-4-20-11-15-30-13m318-150a27 27 0 1 0 18 50 27 27 0 0 0-18-50m-461 72a49 49 0 1 0-20-95 49 49 0 0 0 20 95m625 78a27 27 0 1 0 11 53 27 27 0 0 0-11-53m-612 42a33 33 0 0 0-5-36c-14-15-33-4-44 8-6 36 21 49 49 28m442-71a57 57 0 1 0 30 111 57 57 0 0 0-30-111"/><path fill="#c7ac6b" d="m768 2375-3 3c-31 2-50-93 24-101q24-1 44 14c27 22 27 56 4 81l1 2-1 6c-10 6-20-3-29 5l-1 6c9 7 63 11 25 49 13 7 21 30 22 44q0 23-16 40c-56 52-142-27-81-81-7-1-7-1-12-4l-1-4 3-3c7 0 9 0 15-3 9-14 6-37 6-54m35-16a27 27 0 1 0-16-51 27 27 0 0 0 16 51m-4 152a27 27 0 1 0-8-53 27 27 0 0 0 8 53"/><path fill="#c7ac6b" d="m768 2375-3 3c-31 2-50-93 24-101q24-1 44 14c27 22 27 56 4 81l1 2c-10-1-36-4-43 2l-1 5-13-2-2 6-2-8c-5-4-2-3-9-2m35-16a27 27 0 1 0-16-51 27 27 0 0 0 16 51"/><path d="m768 2375-3 3c-31 2-50-93 24-101q24-1 44 14c27 22 27 56 4 81l-9-1c0-7 37-35 4-70a51 51 0 0 0-74 0q-12 14-13 34c1 25 15 28 23 40"/><path fill="#232220" d="m794 2381 1-5c7-6 33-3 43-2l-1 6c-10 6-20-3-29 5l-1 6c9 7 63 11 25 49l-13 2-24-5q-7 3-14 2l5-5-12 1c-8 5-8 6-17 8-7-1-7-1-12-4l-1-4 3-3c7 0 9 0 15-3 9-14 6-37 6-54 7-1 4-2 9 2l2 8 2-6z"/><path fill="#e1e1df" d="m794 2381 1-5c7-6 33-3 43-2l-1 6c-10 6-20-3-29 5l-1 6c9 7 63 11 25 49l-13 2-24-5c-2-5-3-4-1-9 10-4 16 8 32 3 5-7 5-22-1-28-12-1-16 13-28 4-5-8-3-16-3-26M768 2375c7-1 4-2 9 2l2 8c1 19 3 34-5 50-8 5-8 6-17 8-7-1-7-1-12-4l-1-4 3-3c7 0 9 0 15-3 9-14 6-37 6-54"/><path d="m774 2435 12-1-5 5c-28 14-47 36-30 70 18 36 86 26 93-15 5-24-9-38-25-52l13-2c13 7 21 30 22 44q0 23-16 40c-56 52-142-27-81-81 9-2 9-3 17-8M621 2277a57 57 0 1 1 28 112 57 57 0 0 1-28-112m22 81a27 27 0 1 0-17-51 27 27 0 0 0 17 51"/><path fill="#c7ac6b" d="M626 2285a49 49 0 1 1 18 96 49 49 0 0 1-18-96m17 73a27 27 0 1 0-17-51 27 27 0 0 0 17 51"/><path d="M1102 2277a57 57 0 1 1 26 111 57 57 0 0 1-26-111m21 104a48 48 0 1 0-15-96 48 48 0 0 0 15 96"/><path fill="#c7ac6b" d="M1108 2285a48 48 0 1 1 15 96 48 48 0 0 1-15-96m15 73a27 27 0 1 0-15-51 27 27 0 0 0 15 51"/><path d="M940 2429a57 57 0 1 1 30 111 57 57 0 0 1-30-111m21 81a27 27 0 1 0-12-52 27 27 0 0 0 12 52"/><path fill="#c7ac6b" d="M924 2522a48 48 0 1 1 63-74 48 48 0 0 1-63 74m37-12a27 27 0 1 0-12-52 27 27 0 0 0 12 52"/><path fill="#bdaa7b" d="M924 2522a48 48 0 1 1 74-60c-31-9-11-20-53-15-52 5-16 33-32 56 9 7 9 5 11 19"/><path d="M459 2430a57 57 0 1 1 33 109 57 57 0 0 1-33-109m39 70a33 33 0 0 0-5-36c-14-15-33-4-44 8-6 36 21 49 49 28"/><path fill="#c7ac6b" d="M438 2453a48 48 0 1 1 74 63 48 48 0 0 1-74-63m60 47a33 33 0 0 0-5-36c-14-15-33-4-44 8-6 36 21 49 49 28"/><path fill="#c6ae77" d="M438 2453v15c6 3 6 1 11 4-6 36 21 49 49 28 5 12-4 9 8 22a48 48 0 0 1-68-69"/><path d="M464 2277a57 57 0 1 1 21 112 57 57 0 0 1-21-112m21 103a49 49 0 1 0-20-95 49 49 0 0 0 20 95"/><path fill="#c7ac6b" d="M466 2285a49 49 0 1 1 18 96 49 49 0 0 1-18-96m19 73a27 27 0 1 0-21-50 27 27 0 0 0 21 50"/><path d="M945 2277a57 57 0 1 1 21 112 57 57 0 0 1-21-112m18 82a27 27 0 1 0-16-52 27 27 0 0 0 16 52"/><path fill="#c7ac6b" d="M946 2285a49 49 0 1 1 18 96 49 49 0 0 1-18-96m17 74a27 27 0 1 0-16-52 27 27 0 0 0 16 52"/><path d="M1104 2429a57 57 0 1 1 23 112 57 57 0 0 1-23-112m17 82a27 27 0 1 0-11-53 27 27 0 0 0 11 53"/><path fill="#c7ac6b" d="M1067 2491a48 48 0 1 1 96-13 48 48 0 0 1-96 13m54 20a27 27 0 1 0-11-53 27 27 0 0 0 11 53"/><path fill="#bdaa7b" d="m1067 2491 6 8c7 11 21 21 32 25 12 4 28 2 38-5 9-5 8-16 20-24a48 48 0 0 1-96-4"/><path d="M624 2429a57 57 0 1 1 21 112 57 57 0 0 1-21-112m20 81q13-6 18-19 2-11-4-20-11-15-30-13c-37 18-24 54 16 52"/><path fill="#c7ac6b" d="M595 2457a48 48 0 1 1 80 55 48 48 0 0 1-80-55m49 53q13-6 18-19 2-11-4-20-11-15-30-13c-37 18-24 54 16 52"/><path fill="#bdaa7b" d="M648 2531a48 48 0 0 1-53-74c0 16-4 50 9 60 10 8 31 14 44 14"/><path d="M20 817q48 3 97 1h168l1 23c10-4 55-3 65-2v74l1 2 62 1v37l-64 1v1c1 9 2 10 1 18 23 2 40 2 63 1v38h-50q-4 8-3 19 17 0 33 3c10 0 11-2 18 2 4 9 1 22 2 34h-79l16 2v20l63 1v36c-16 0-50-1-64 1v1c4 13 2 59 1 75-14 3-98 3-113 1q0 5-2 6c-7 4-190 4-199 1-6-2-3-8-6-13l-9-1c-4-7-2-110-2-126z"/><path fill="#e1e1df" d="M350 1131c4 13 2 59 1 75-14 3-98 3-113 1 1-3 0-2 3-5q20-2 39 1l3-8c7-6 41-3 52-3 3-16 2-53 7-60z"/><path fill="#e1e1df" d="M238 1207c1-3 0-2 3-5q20-2 39 1c5 6 57 1 71 3-14 3-98 3-113 1M351 839v74h-10c-8-14 1-52-5-61h-3l-5-3-1-6 4-3z"/><path fill="#999" d="M325 1173v-39c5-7 2-4 10-7l12 3h3v1l-8 1c-5 7-4 44-7 60l-1-13c-10-2-41 6-51 0v-4c6-3 33-2 42-2"/><path fill="url(#d)" d="M333 852h3c6 9-3 47 5 61h10l1 2c-9 1-17 5-24 3-6-13-2-42-2-56 1-7 2-6 7-10"/><path fill="#999" d="m345 1032-13 4c-7-4-4-1-8-9 0-9 1-9 4-18l22 3v1c2 8 2 10 2 18z"/><path fill="#e1e1df" d="M350 1013c2 8 2 10 2 18l-7 1c-7-2-6-2-8-9 2-10 5-9 13-10"/><path fill="#999" d="M339 1092q-6 6-12 2c-4-10-3-14 0-25l4-1 4 2 16 2v20z"/><path fill="#e1e1df" d="m339 1092-1-15c5-5 4-3 13-5v20z"/><path fill="#8a8987" d="m339 975-8 3-4-2q-5-13 0-25c6-2 11 2 19 3h4v1c1 9 2 10 1 18z"/><path fill="#e1e1df" d="M339 975c-1-9-3-14 3-20h8c1 9 2 10 1 18z"/><path fill="silver" d="M286 841c10-4 55-3 65-2l-20 1-4 3 1 6c-8-13-29 2-42-8"/><path fill="#0f130f" d="M350 1012h14q-4 8-3 19 17 0 33 3c-13 0-30 1-42-3 0-8 0-10-2-18z"/><path fill="silver" d="M28 826h247v26h42v52c-17 0-31-3-44 8v6c11 11 29 8 44 8v37c-8 0-33-2-36 1-25 29 30 21 36 21l-1 39h-41v22h42v40h-30c-5 0-5 0-9 2-4 8-7 10-1 18 10 3 28 2 40 2v58l-43-1v29H28z"/><path fill="#999" d="M362 924c13 0 29-3 40 2 5 6 4 9 4 18-10 2-75 3-80-3 0-10-2-8 3-14 9-4 23-3 33-3"/><path fill="#8a8987" d="M406 944c-10 2-75 3-80-3 0-10-2-8 3-14 9-4 23-3 33-3 0 10-2 11 3 17 13 6 24 0 41 3M406 1120c-16 4-70 6-80-9 4-18 64-12 80-10z"/><path fill="#999" d="M406 1101v19c-16-3-33 5-43-6-1-7-2-5 0-11 12-2 26 0 40-2z"/><path fill="#8a8987" d="M406 1002c-16 4-69 6-81-8 3-18 65-13 80-11z"/><path fill="#999" d="m405 983 1 19c-15-1-34 3-42-5-2-5-3-6-1-12q18-1 40-1zM39 1203c13-3 55-2 71-2l105 1c8 0 8-1 12 4l-3 1H43zM363 1042c15-1 33-3 45 6l1 6c-11 9-18 9-31 8h-16z"/><path fill="#8a8987" d="M362 1062c-13 0-30 3-38-9l2-4c11-10 21-8 37-7z"/><path fill="#999" d="M282 971c13-1 30-5 37 6q-18 3-34-1zM281 913q18-3 34 0l2 6c-12 1-28 4-36-6M282 1095q16-3 33 0l3 5c-13 1-28 5-36-5"/><path fill="#8a8987" d="M282 1033c13-2 27-5 36 4-11 2-28 5-36-4"/><path fill="#e1e1df" d="M3562 2436c-56-100-20-211 78-266 54-30 117-37 176-20 55 16 102 53 129 103 17 31 35 99 18 130-7 2-4 0-8 5l6 3-2 2c-27 6-103 6-138 10-11 30-22 68-30 99l3 2c-17 17-72-14-102-7l1 2-14-3-40 4-4 2c-16-7-34-22-46-34l-1-1q-7-6-11-13-3-1-6-5l-4-6c9-18 57 2 70 12 1-26-1-57-20-76-28-29-49 42-55 57"/><path fill="#32312e" d="M3797 2182c52 48 14 91 33 110 6-14-3-26 0-36 15 10-6 80-14 94l-6-7-8 2-18 24 1 6 7 4c-18 13-27 29-54 27-22-2-36-15-50-31-7-11-10-27-17-33l-7 3-1-2c12-6 15-7 20-21-2-5-1-3-5-7-6 2-6 3-12 1-17-13-35-55-2-63l2-1c7-10-4-24 10-46l3 2c16-6 10-8 21-14 8-7 11-8 21-13 25 3 42 14 68 5z"/><path fill="#e1e1df" d="M3700 2194c8-7 11-8 21-13 25 3 42 14 68 5 27 10 38 44 32 71h-2l-1-3-2 2c-14-4-16 2-30 2h-4q-7 9-1 20c3 12 11 22 6 33-11 6-51 2-65-1l-13 18c-10-9-12-10-19-21-3-21-5-50 7-68-4-22-5-24 3-45"/><path fill="#0f130f" d="M3786 2258c13-11 19-16 32-4l-2 2c-14-4-16 2-30 2"/><path fill="silver" d="M3758 2265h2q8 7 5 17c-22-26-16-1-35-1l-3-5v5l-3-1-3 3-17-5 5-5-6-3 2-2c7-2 42-1 53-3"/><path fill="#232220" d="M3727 2245c8-1 23 2 29 9q-8 3-16 0c-12-2-16 2-28 1q7-7 15-10"/><path fill="#e1e1df" d="M3755 2371q-30-14-34-46l2-3 4 2q12-2 25 3 22 4 44 3c5-4 5-5 10-6 2 5-3 16-4 21l-18 24c-11 3-18 2-29 2"/><path fill="#32312e" d="M3727 2324c21 16 35 19 60 12l2 1v3c-20 11-25 8-47 2z"/><path fill="#8a8987" d="M3748 2352c13 2 21 0 32 2-15 6-18 5-32-2"/><path fill="#d4d2d2" d="M3786 2258c14 0 16-6 30-2 12 10 11 60-1 70-6-2-4-7-12-13-5 0-3-1-6 2q-6-12-10-25l2-2 5-1-8-2 1-3c9 1 7 2 14-2 3-5 3-5 3-12l-2-3c-15-2-12 9-21 13q-6-11 1-20z"/><path fill="#e1e1df" d="M3659 2254c28 1 26 46 13 62-19-11-34-45-13-62"/><path fill="#666767" d="M3658 2262c18 3 17 25 10 38l-2-2c1-9 5-17-2-23l-8 3q-2-8 2-16"/><path fill="#e1e1df" d="M3681 2339c22 23 35 45 70 52l17 1-1 4c-41 18-82-15-86-57"/><path fill="#999" d="M3694 2331c4 2 18 28 22 35-14-8-18-21-22-35"/><path fill="#0f130f" d="M3710 2336q10 8 7 21c-8-8-9-9-7-21"/><path fill="silver" d="M3685 2321c8 4 8 16 10 25-8-8-8-14-10-25"/><path fill="#232220" d="m3664 2345 7-3c7 6 10 22 17 33 14 16 28 29 50 31 27 2 36-14 54-27l-7-4-1-6 18-24 8-2 6 7-3 7c2 4 30 19 39 28l-36 3-13 10c-8 20-15 53-21 76-13-21-27-29-52-36q-33 9-61 27l-4 3-26-3v-2l8-18c8-16 13-26 7-44h-2l-6 31c-5-29-10-57-44-64 5-6 51-22 61-25z"/><path fill="#e1e1df" d="m3664 2345 7-3c7 6 10 22 17 33 14 16 28 29 50 31 27 2 36-14 54-27l2 2v2c-21 51-89 38-116 0q-15-20-13-36z"/><path fill="#d4d2d2" d="m3664 2345 7-3c7 6 10 22 17 33 2 7 2 5 1 11l-3-1c-15-17-12-23-21-38z"/><path fill="#e1e1df" d="M3665 2468c36 3 55-34 86 6 5 6 6 6 9 14l-1 5c-6 2-7 0-11-4l-1 4-1 5c-12 1-15-16-30-12 2 3 9 5 13 8-10 2-24-9-37 3l1 2-14-3-40 4-4 2c-16-7-34-22-46-34 7-5 39-3 50-3z"/><path fill="#666767" d="M3747 2493c-8-14-13-15-27-22l2-2c9 1 23 10 26 20z"/><path fill="#666767" d="m3814 2397 1 4c-5 14-30 90-30 101h6l3 2c-17 17-72-14-102-7 13-12 27-1 37-3-4-3-11-5-13-8 15-4 18 13 30 12l1-5 1-4c4 4 5 6 11 4l1-5c-3-8-4-8-9-14-31-40-50-3-86-6l4-3c16 2 40-16 63-19 36 11 33 25 49 31 15-9 16-61 33-80"/><path fill="silver" d="m3777 2491 3 3-4 5c-8 4-7 4-16 3l-1-2c14-4 10-1 18-9"/><path fill="#0f130f" d="M3676 2206c22-40 85-51 121-24l-8 4c-26 9-43-2-68-5-10 5-13 6-21 13-11 6-5 8-21 14z"/><path fill="#32312e" d="M3571 2449c43-13 44 11 68 14v2c-11 0-43-2-50 3l-1-1q-7-6-11-13-3-1-6-5"/><path fill="#e1e1df" d="M3577 2454c17-3 21-3 37 3l2 2c-11 5-20 3-28 8q-7-6-11-13"/><path fill="#666767" d="m3814 2397 14-4 2 2-15 6z"/><path fill="#232220" d="M3734 2148c11-2 32-1 43 1 119 17 200 112 181 232q-48 1-96 5a84 84 0 0 0-40-31c10-23 22-60 19-85-8-67-29-118-110-108-58 10-69 45-72 82 0 1-34 18-17 49 14 27 14 26 34 35-64 30-87 14-116 91-56-134 36-258 174-271"/><path fill="#e1e1df" d="M3579 1750c38-2 346-1 370 7 6 11 8 150 8 169l-12 8c-1 4-5 17-10 18q-30 6-61 13c-4 1-8-4-11-7h-3l-7 9c-18 5-29 9-48 7-21 5-43 4-65 6-18-13-9 6-31 6-7-4-5-3-10-11-12-4-21 27-33 30q-7 0-15-4c-7 0-9 4-15 11h-2c-33 5-35 5-54 31-18-3-20-2-38 1-12-19-34-32-1-49l30-16-14-18 2-35c4-55 5-110 11-164q2-8 9-12"/><path fill="#232220" d="M3582 1764h357c1 20 9 145 2 156q-7 3-12 9 1 8-2 14c-10 4-17-2-22-1-8 1-16 10-27 11-26-19-21-3-46 7-11 4-26 3-37 4-7 2-41 3-51 3l-11-6c-10 1-7 1-17 9-9 1-2-5-14-10-23 3-24 24-40 31-18-2-20-3-33 11-15 2-30 2-41 15-8 9-10 15-22 12-24-5-16 7-32-15 16-9 46-19 50-34-1-9-8-14-13-21 1-61 7-134 11-195"/><path fill="#e1e1df" d="m3723 1900-12-1c-13-11-3-32-7-53-8 1-4 0-10 4-7 18 7 38-6 49-7 1-7 1-13-1-5-8 0-37-3-48-2-5-7 0-12-9 2-7 0-5 5-8 17 0 48-4 63 3q5 3 6 11h1l3-15h26c1 6 1 18 3 21 13-13 32-15 42 3-1 8-2 30 0 38l-3 5q-19 4-39-3l-4 4-18-1-2-14c-1 9 0 10-7 15l-4-1c-7-7-5-5-7-16z"/><path fill="#e1e1df" d="M3767 1853c13-13 32-15 42 3-1 8-2 30 0 38l-3 5q-19 4-39-3c0-29 0-16 13-29l-9-1c-5-3-3-4-4-13"/><path fill="#32312e" d="M3764 1832c1 6 1 18 3 21 1 9-1 10 4 13l9 1c-13 13-13 0-13 29l-4 4c0-18-1-51 1-68"/><path fill="#999" d="M3743 1885c0-7-2-10 2-15q5 14 0 29z"/><path fill="silver" d="M3723 1900c-1-12-3-18 1-30q3 6 1 13z"/><path fill="#e1e1df" d="M3812 1852c5-10 9-8 19-8 7-5 5-2 7-10q6-3 16-2c1 6 1 20 3 24 1 9 2 22 0 31l-1 2-2 11c-21-1-30 4-43-7v-1l-2 2c-2-8-1-30 0-38z"/><path fill="#464644" d="M3854 1832c1 6 1 20 3 24 1 9 2 22 0 31l-1 2-2 11zM3812 1852c1 11 2 32-1 41v-1l-2 2c-2-8-1-30 0-38zM3831 1855l3 2q2 15 1 32l-3-3q-2-16-1-31"/><path fill="#e1e1df" d="M3640 1872c9 0 13-2 19 2q3 12-5 22-8 7-19 6c-23-5-23-43-18-60 6-22 55-10 42 18-8 5-9 3-20 3-3 4-2 2-2 9l2 1z"/><path fill="#464644" d="M3640 1872c1 9 2 7-2 15l-2-1c-1-9-3-34 4-40v15l-1 2c-3 4-2 2-2 9l2 1z"/><path fill="#e1e1df" d="M3857 1856c17-24 49-13 41 18v1c8 29-28 34-41 12 2-9 1-22 0-31"/><path fill="#32312e" d="M3898 1875h-10c-7 4-5 3-8 12l-3-1c0-7-1-7 2-11q10-2 19-1z"/><path d="M206 2943a161 161 0 1 1 36 320 161 161 0 0 1-36-320m27 240a81 81 0 1 0-17-161 81 81 0 0 0 17 161"/><path fill="#c7ac6b" d="M159 2967a151 151 0 1 1 131 273 151 151 0 0 1-131-273m74 216a81 81 0 1 0-17-161 81 81 0 0 0 17 161"/><path fill="#c6ae77" d="M159 2967c65-32 144-12 187 46-9-3-41-33-58-42-47-24-86 1-129-4"/><path d="M3855 2943a161 161 0 1 1 32 320 161 161 0 0 1-32-320m89 123a81 81 0 1 0-146 73 81 81 0 0 0 146-73"/><path fill="#c7ac6b" d="M3769 2994c6-9 28-21 38-25 35-14 83-17 118-3q58 21 87 75c17 33 19 71 8 106q-4 11-9 20-13 28-38 46c-33 39-127 47-170 21-24-5-54-37-66-57q-27-42-20-92c4-36 23-69 52-91m175 72a81 81 0 1 0-146 73 81 81 0 0 0 146-73"/><path fill="#c6ae77" d="M3925 2966q58 21 87 75c17 33 19 71 8 106q-4 11-9 20 0-12 4-23c14-40 5-55-7-94q-13-43-55-62c-8-4-25-13-28-22M3737 3177q-27-42-20-92c4-36 23-69 52-91l-1 3c-4 7-13 14-18 21q-33 45-24 100l2 14c-5 9-4 3-2 13 4 11 13 20 11 32M3877 3022c19-12 71 15 67 44a81 81 0 0 0-67-44"/><path d="M213 1406a161 161 0 1 1 22 321 161 161 0 0 1-22-321"/><path fill="#c7ac6b" d="M118 1459a151 151 0 1 1 213 214 151 151 0 0 1-213-214"/><path fill="#c6ae77" d="M131 1685c12 1 34 16 48 21 20 7 70-1 86 6-46 13-96 3-134-27"/><path fill="#e1e1df" d="M212 1487a80 80 0 1 1 24 158 80 80 0 0 1-24-158"/><path d="M3863 1406a161 161 0 1 1 16 321 161 161 0 0 1-16-321m21 239a80 80 0 1 0-28-158 80 80 0 0 0 28 158"/><path fill="#c7ac6b" d="M3720 1558a151 151 0 1 1 302 16 151 151 0 0 1-302-16m164 87a80 80 0 1 0-28-158 80 80 0 0 0 28 158"/><path d="M223 48a160 160 0 1 1 0 319 160 160 0 0 1 0-319m15 236c100-21 91-161-31-154q-35 8-55 37a74 74 0 0 0-9 58q9 33 38 49 27 15 57 10"/><path fill="#c7ac6b" d="M150 79c36-19 88-24 126-8q41 13 69 47 37 42 33 98-5 60-51 100a162 162 0 0 1-228-21c-19-22-34-63-30-93q1-15 4-30c12-44 39-71 77-93m88 205c100-21 91-161-31-154q-35 8-55 37a74 74 0 0 0-9 58q9 33 38 49 27 15 57 10"/><path fill="#c6ae77" d="M276 71q41 13 69 47c-4-1-57-38-67-42l-2-2z"/><path d="M3838 51a160 160 0 1 1 64 313 160 160 0 0 1-64-313m48 233c98-20 88-161-32-154q-34 7-54 36a73 73 0 0 0-11 55q8 34 36 52c18 11 41 15 61 11"/><path fill="#c7ac6b" d="M3774 92a150 150 0 1 1 192 230 150 150 0 0 1-192-230m112 192c98-20 88-161-32-154q-34 7-54 36a73 73 0 0 0-11 55q8 34 36 52c18 11 41 15 61 11"/><path fill="#bdaa7b" d="M3774 92c42-35 101-45 152-24-12 1-18-2-29-3q-36-3-72 5c-18 5-35 19-51 22M3724 243c13 12 22 41 34 56 3 4 12 16 12 20q-34-31-46-76"/><path fill="#c6ae77" d="M3985 304v-5l5-10q10-28 27-54-7 39-32 69"/><path fill="#e1e1df" d="M734 2749c26-3 38 4 42 31l90 51c16-10 36-11 48 7q6 11 3 23c-4 11-10 14-19 20l-1 91c41 23 15 73-30 49q-42 22-81 46c-17 11-7 19-30 34-25 2-37-5-42-30l-89-50c-37 23-77-21-31-49l-1-92q-10-5-15-14c-17-40 23-47 44-37 4 3 48-23 56-27 10-5 39-20 40-33 3-12 7-13 16-20"/><path fill="#232220" d="M722 2796c18 13 28 13 47 0l88 49c1 22 3 25 21 36v91c-17 10-17 13-21 32-10 11-67 39-83 49-27 16-19-99-19-110 19-11 22-20 13-40-14-12-35-15-45 2q-6 9-3 19c2 11 8 14 17 19v101c-8 3-10 5-17 11-26-14-64-32-85-51-6-5 4-17-22-32v-91c27-16 15-28 24-35 23-17 59-35 85-50"/><path fill="#e1e1df" d="m685 2848 7 6c1 9-22 36-26 49-7 29 12 52 25 75q2 6-4 12c-24-12-39-49-37-76 3-30 14-46 35-66M801 2848c26 6 40 47 39 71-1 31-11 49-33 70q-5-1-6-5c-4-12 24-38 25-55 2-29-10-45-25-67-4-6-2-8 0-14"/><path fill="#e1e1df" d="M779 2870c19 4 32 30 30 48-1 23-8 34-24 49q-6-1-9-6c1-11 18-26 19-36 1-16-9-30-17-42q-3-6 1-13M706 2870l7 4c2 12-13 26-16 39-6 25 22 32 15 55-20-6-31-31-30-50 1-22 8-33 24-48"/><path d="M516 1706c28-1 99-6 126 7 13 6-7 31 19 34 8 1 9 36 9 48 8 0 21 0 27 6 13 16 13 48-1 63-7 7-17 6-26 6v17c0 9 1 24-5 30l-11-1c-12 11-1 17-13 36-17 11-102 7-126 5-27-3-14-29-21-40-7-4-10-2-20-2 0-9 1-41-1-47-10-22-29-49 1-67 0-16-2-38 5-51 6-4 4-3 13-1 9-7 3-20 7-32 6-7 8-7 17-11"/><path fill="#e4d8b5" d="M482 1756h168q1 75 1 150-84 2-169 0z"/><path fill="#0f130f" d="M550 1767a66 66 0 1 1 32 128 66 66 0 0 1-32-128"/><path fill="#e1e1df" d="M552 1773a60 60 0 1 1 28 116 60 60 0 0 1-28-116"/><path fill="#0f130f" d="M562 1777a54 54 0 1 1 7 108 54 54 0 0 1-7-108"/><path fill="#e4d8b5" d="M561 1783a48 48 0 1 1 10 96 48 48 0 0 1-10-96"/><path fill="#232220" d="M560 1818a15 15 0 1 1 12 27 15 15 0 0 1-12-27"/><path fill="silver" d="M563 1823a10 10 0 1 1 5 18 10 10 0 0 1-5-18"/><path fill="#999" d="M511 1750c-11-5-9-21-5-30l6-5c31-4 68-2 100-2q18 0 27 10c3 6 3 20-1 25l-10 1c-36 2-81 1-117 1"/><path fill="#bdaa7b" d="M511 1750q-1-5 2-7c23-11 84-5 108-4l7 10c-36 2-81 1-117 1"/><path fill="#999" d="M628 1914h7q7 6 6 15c5 27-51 22-68 22-28-1-83 11-68-35q3-2 8-3z"/><path fill="#bdaa7b" d="m513 1913 115 1-5 10c-20 2-87 5-104 0-6-6-4-3-6-11"/><path fill="#999" d="M668 1804c23-1 30 5 30 31-1 25-9 27-31 27q-6-2-8-5c-4-12-4-40 1-51z"/><path fill="#8a8987" d="M667 1862q-6-2-8-5c-4-12-4-40 1-51l8-2c2 12 4 47-1 58"/><path fill="silver" d="m472 1809 3 3c2 10 1 32 0 44l-5-7c-2-11-3-29 2-40"/><path fill="#e1e1df" d="m658 1870 4 4q3 20-1 38l-3-2zM657 1755c8 8 5 30 4 41l-2-2c-2-7-2-31-2-39M129 2705c65-6 148-13 211-22v52c-38 1-79 7-117 8l10 4c25 0 81 7 107 11v54c-31 3-84 9-112 9v4c26-1 85 7 112 11v52c-69-8-142-17-210-23v-67c27-2 55-9 85-10l4-5q-45-4-90-12z"/><path fill="#999" d="M228 2825q-14 2-26-1l1-2 25-1z"/><path fill="silver" d="M233 2747q-14 2-27-2c7-3 10-2 17-2z"/><path fill="#666767" d="m219 2783 12 1v1l-16 3z"/><path fill="#e1e1df" d="M130 1975h210v69l-82 9 8 5q38 2 74 7v70H130v-48c18-3 67 1 76-5l-77-10v-34c24-1 61-7 85-11-7-5-26-4-38-5q-23 0-46-1z"/><path fill="silver" d="M130 2021c18-3 112-2 129 0v1c-7 2-8 2-16 1l-29 4c-7-5-26-4-38-5q-23 0-46-1"/><path fill="#32312e" d="M176 2022c17 0 52-2 67 1l-29 4c-7-5-26-4-38-5M206 2082l30 3-11 3c-29 0-68 1-95-1 18-3 67 1 76-5"/><path fill="#999" d="M236 2085q9 0 16 3c-11 2-16 1-27 0zM266 2058c-8 0-9-1-18-3l1-1 9-1z"/><path d="M3609 1235c7-5 35-5 42 0 8-4 58-2 68-1 29 2 29 88 6 95-17 4-58 3-78 1l-1 3c-9 1-30 2-37-3-8 4-54 3-68 0-34-7-27-84-5-95 3-2 66-3 73 0"/><path fill="#8a8987" d="M3609 1330c10-1 29-3 38 0l-1 3c-9 1-30 2-37-3"/><path fill="#999" d="M3609 1235c7-5 35-5 42 0q-21 2-42 0"/><path fill="#6a5041" d="M3584 1242h93q12-3 21 2c7 13 4 58 3 74-1 7-18 6-24 5-22 0-99 2-115 0-5-11-5-68 1-80q10-3 21-1"/><path fill="#999" d="M3677 1242q12-3 21 2c7 13 4 58 3 74-1 7-18 6-24 5zM3562 1323c-5-11-5-68 1-80q10-3 21-1c0 17 1 63-1 79q-10 3-21 2M3705 1240q10-1 17 4c17 17 13 63 1 79l-18 1-2-3c7-13 3-50 4-65 0-8-3-7-2-16M3537 1242q8-2 18 0c0 22-6 55 1 77 0 3 1 1-1 5l-14-1c-20-13-16-63-4-81"/><path fill="#6a5041" d="M3609 1093c8-5 27-4 37-3l3 3c8-4 52-2 63-1 39-9 33 77 16 93-8 8-70 7-78 3l-1-2c-5 6-32 6-38 0-6 4-74 3-78-1-18-15-24-89 10-94 13-2 58-3 66 2"/><path fill="#999" d="M3611 1186c-6 4-74 3-78-1-18-15-24-89 10-94 13-2 58-3 66 2l11 1c-17 8-37 1-56 5l-4 6c-1 17-4 62 3 74l2 1c11 5 36-1 46 3z"/><path d="M3611 1186c-6 4-74 3-78-1-18-15-24-89 10-94 13-2 58-3 66 2l11 1c-17 8-37 1-56 5l-4 6-5-5c-8-2-8-2-16 0-17 14-15 66 0 82 11 1 14 2 24-3l2 1c11 5 36-1 46 3z"/><path fill="#0f130f" d="m3555 1100 5 5c-1 17-4 62 3 74-10 5-13 4-24 3l16-2 1-3c-5-14-4-62-1-77M3712 1092c39-9 33 77 16 93-8 8-70 7-78 3l-1-2c7-9 34 1 49-6h1c4-12 4-67 0-79q5-7 13-9"/><path d="M3698 1180zc6 4 7 4 15 5-9 5-54 4-64 3l-1-2c7-9 34 1 49-6"/><path fill="#999" d="M3703 1098c15-1 24 2 28 18 4 19 3 47-7 64-10 2-19 5-19-6 1-19 6-58-2-76M3677 1100l20-1 2 2c4 12 4 67 0 79h-22zM3564 1099l19 1 1 80h-19l-2-1c-7-12-4-57-3-74z"/><path fill="#232220" d="M3609 1093c8-5 27-4 37-3l3 3c8-4 52-2 63-1q-8 2-13 9l-2-2-20 1h-94l-19-1c19-4 39 3 56-5z"/><path fill="#0f130f" d="M3649 1093c8-4 52-2 63-1q-8 2-13 9l-2-2c-9-5-37 1-52-3l1-2z"/><path fill="#999" d="M3609 1093c8-5 27-4 37-3l3 3-3 1h-26z"/><path fill="#232220" d="M3677 1180h21c-15 7-42-3-49 6-5 6-32 6-38 0v-3c-10-4-35 2-46-3h112"/><path fill="#999" d="M3611 1186h38c-5 6-32 6-38 0"/><path fill="#6a5041" d="M3612 949c8-2 29-2 37 0v2c8-3 70-3 77 1 20 12 19 73 5 90-8 9-70 7-80 4h-1c-8 4-32 4-39 0l-2-1c-15 2-73 8-81-5-13-21-19-86 18-90 18-2 48-2 65 1z"/><path fill="#0f130f" d="M3612 949c8-2 29-2 37 0v2c8-3 70-3 77 1 20 12 19 73 5 90-8 9-70 7-80 4 2-4 1-3 5-5l13-1h28v-2c7-9 5-65 2-78l-2-1c-8-3-96 0-115-1l-21 1c-2 15-5 65 0 78l2 1c9 2 11 2 19 1l25 4 2 2c-15 2-73 8-81-5-13-21-19-86 18-90 18-2 48-2 65 1z"/><path fill="#999" d="m3556 957 5 2c-2 15-5 65 0 78l-4 3c-5 0-19 0-21-3-11-17-13-60 1-75 4-5 14-5 19-5"/><path fill="#0f130f" d="m3556 957 5 2c-2 15-5 65 0 78l-4 3c-7-17-6-65-1-83"/><path fill="#999" d="M3704 958c6 0 14-2 18 3 14 15 14 59 1 75-3 4-15 5-20 5l-6-1v-2c7-9 5-65 2-78z"/><path fill="#0f130f" d="m3699 960 5-2c4 15 5 69-1 83l-6-1v-2c7-9 5-65 2-78"/><path fill="#999" d="M3612 949c8-2 29-2 37 0v2c-10 2-28 1-38 0z"/><path fill="#464644" d="M3612 949c8-2 29-2 37 0z"/><path fill="#999" d="m3561 959 21-1c3 9 1 64 1 77l-2 2-18 1-2-1c-5-13-2-63 0-78M3697 1038l-19-1c-3-6-1-65-1-76q9-3 20-2l2 1c3 13 5 69-2 78"/><path fill="#232220" d="M3582 1039c12 0 83-2 91 1h-4l-13 1c-4 2-3 1-5 5h-1c-8 4-32 4-39 0l-2-1-2-2z"/><path fill="#999" d="M3611 1046c9-3 29-3 39 0-8 4-32 4-39 0"/><path d="M523 1199c-2-14-3-69 6-78 13-14 84-15 94 2 6 11 3 56 3 72 3 9 3 25 2 34l-2 2c3 12 3 38 3 51 0 44-48 36-77 35-30-2-29-22-30-46q-1-19 1-35c-1-7-3-31 0-37"/><path fill="#6a5041" d="M616 1170h1q1 34 1 68l-1 20h-85v-88h1c11 2 75 3 83 0"/><path fill="#999" d="M532 1144c11-3 75-4 84 0v4l3 12-2 10h-1c-8 3-72 2-83 0h-1l-1-16 1-3z"/><path fill="#0f130f" d="M532 1144c11-3 75-4 84 0v4c-16 0-74-3-84 3z"/><path fill="silver" d="M533 1170c10-6 66-7 79-5l4 5c-8 3-72 2-83 0"/><path fill="#999" d="M529 1283c16 5 74 5 90 1 0 7 0 8-3 15-16 16-60 16-79 4-7-4-7-13-8-20M532 1258h85v21c-14 3-70 5-83-1q-3-10-2-20M532 1144c-2-8-2-7 0-14 12-17 76-18 86 2l-2 12c-9-4-73-3-84 0"/><path fill="#0f130f" d="M529 1283c-2-14 0-123 2-129l1 16v88q-1 10 2 20c13 6 69 4 83 1l2 5c-16 4-74 4-90-1M619 1160c6 9-3 26 5 38v10c-5 15-1 20-6 30q0-34-1-68z"/><path fill="#999" d="M626 1195c3 9 3 25 2 34l-2 2c-3-4-2-16-2-23v-10zM523 1199c5 6 3 30 0 37-1-7-3-31 0-37"/><path fill="#e1e1df" d="M130 2395h210v52c-11 0-33-1-43 1 34 76-52 62-98 61l-70 1v-51c41 0 98 2 140-2q3 0 4-4l-2-4c-8-5-123-2-141-2zM130 1782h210c0 32 5 76-12 101q-17 12-39 11c-60 1-75 4-75-59l-85 1z"/><path fill="#232220" d="M250 1836c12-1 43-4 51 4v8c-11 1-34 4-44-1q-7-4-7-11"/><path fill="#e1e1df" d="M185 2150c43 0 120-13 120 51 0 66-44 63-93 63 0-11 1-56-3-63-10 0-43-3-49 8 10 9 31 7 44 6l-1 49c-19 1-38 2-56-11-25-18-29-59-10-83 14-16 28-18 48-20"/><path fill="#0f130f" d="M239 2202c11-1 24-3 33 3l1 6c-16 2-28 7-34-9"/><path fill="#e1e1df" d="M199 2316q5-11 12-20 15-19 38-22c52-6 72 54 44 92-10 14-31 14-47 15v-47l19-1c6-3 4-1 6-7l-4-3c-24-7-34 22-46 40-18 28-52 28-78 12-21-13-21-68-4-85 15-15 33-13 53-14q-1 20 1 40z"/><path fill="#232220" d="m160 2323 34 1q-11 18-32 11c-4-7-3-3-2-12"/><path fill="#32312e" d="M193 2316h6l-5 8-34-1c13-4 23 3 33-7"/><path d="M3725 438h128q-3 58-2 118c-16 2-105 0-126 0 2-37 0-81 0-118m10 109h107l-1-100-106-1z"/><path fill="#c7ac6b" d="m3735 446 106 1 1 100h-107zm63 78a28 28 0 1 0-18-54 28 28 0 0 0 18 54"/><path d="M3522 3034a68 68 0 1 1 19 135 68 68 0 0 1-19-135"/><path fill="#6a5041" d="M3525 3044c29-2 57 12 66 41q7 24-4 44c-11 19-26 26-46 31-32 0-61-11-70-45q-5-24 7-44c12-18 28-23 47-27"/><path fill="#c7ac6b" d="M3527 3073a29 29 0 1 1 10 58 29 29 0 0 1-10-58"/><path d="M3729 2614h124c2 35 0 81 0 117-39 2-85 1-124 0zm65 88a29 29 0 1 0-6-59 29 29 0 0 0 6 59"/><path fill="#c7ac6b" d="M3738 2623h105v29l1 70h-105zm56 79a29 29 0 1 0-6-59 29 29 0 0 0 6 59"/><path d="M468 224c41-2 81 2 123 0q2 58-1 115c-6 4-107 2-122 2 1-38-2-80 0-117m64 87c39-12 31-50-1-54q-15-1-24 11-7 8-6 19 2 12 12 19 9 5 19 5"/><path fill="#c7ac6b" d="M478 234h99q3 1 4 4v91c-7 6-88 3-103 3zm54 77c39-12 31-50-1-54q-15-1-24 11-7 8-6 19 2 12 12 19 9 5 19 5"/><path fill="#c6ae77" d="M478 234h99q3 1 4 4h-1c-104 12-97-36-97 86 25-1 64 1 87-1 8-9 1-13 8-19l3 3c-1 6-2 8 0 14v8c-7 6-88 3-103 3z"/><path d="M805 1789c8-6 64-6 73 0 11 0 16-1 26 2 5 5 3 2 4 10l-3 5 2 2c1 14 4 43-4 54q5 10-3 19c-35 3-76-1-111 0q-21 1-15-21c-5-6-6-50 0-57-3-5-2-2-2-8 6-8 26-10 33-6"/><path fill="#999" d="M805 1789c8-6 64-6 73 0zM774 1860c-5-6-6-50 0-57 2 11 2 47 0 57"/><path fill="silver" d="m905 1806 2 2c1 14 4 43-4 54 0-13-1-44 2-56"/><path fill="#458cce" d="M782 1796h115v79H781z"/><path fill="#e1e1df" d="M280 2591h26c9 28 12 34 34 53v32l-146-1h-64v-51c20 0 134 5 144-5 7-7 6-19 6-28"/><path fill="#6a5041" d="M661 791a61 61 0 1 1 18 120 61 61 0 0 1-18-120"/><path fill="#c7ac6b" d="M665 822a30 30 0 1 1 11 59 30 30 0 0 1-11-59"/><path fill="#6a5041" d="M3941 763a60 60 0 1 1 23 118 60 60 0 0 1-23-118"/><path fill="#c7ac6b" d="M3941 794a30 30 0 1 1 22 56 30 30 0 0 1-22-56"/><path d="M3777 592q22-3 42 7 22 13 28 36 6 21-4 41c-11 17-25 24-43 30-18 1-31 0-47-10q-20-14-25-38-5-23 9-42 15-20 40-24m-30 84c18 29 70 26 86-4q9-18 3-37c-8-26-35-42-62-32-32 8-52 51-27 73"/><path fill="#c7ac6b" d="M3774 603c27-10 54 6 62 32q6 19-3 37c-16 30-68 33-86 4-25-22-5-65 27-73m23 72a28 28 0 1 0-17-53 28 28 0 0 0 17 53"/><path fill="#bdaa7b" d="M3747 676c-25-22-5-65 27-73-10 12-18 19-28 34 0 13-3 26 1 39"/><path d="M3941 440c29 0 56 12 66 41q7 23-5 44c-10 18-23 24-41 29-18 1-28 2-44-7q-21-12-28-37-6-22 6-43c11-17 27-23 46-27m38 57c-8-28-28-34-52-19-5 8-9 13-7 24q2 11 13 18c20 12 40-1 46-23"/><path fill="#c7ac6b" d="M3907 468c13-12 23-19 41-19q23 2 39 17c16 17 18 44 1 62-32 43-122 2-81-60m72 29c-8-28-28-34-52-19-5 8-9 13-7 24q2 11 13 18c20 12 40-1 46-23"/><path fill="#c6ae77" d="M3907 468c13-12 23-19 41-19q23 2 39 17c16 17 18 44 1 62l1-7c-6-14-9-4-10-24-8-28-28-34-52-19-7-5-11-9-20-10"/><path d="M3946 591c29 2 54 14 62 44q6 21-6 41c-12 20-28 25-49 30-30-2-60-15-65-48q-4-23 10-42 20-24 48-25m11 84a28 28 0 1 0-18-53 28 28 0 0 0 18 53"/><path fill="#c7ac6b" d="M3948 601q17 0 31 9 17 13 20 33 1 19-9 34c-11 14-24 18-40 20-26-1-49-15-53-43q-2-18 10-34 16-19 41-19m9 74a28 28 0 1 0-18-53 28 28 0 0 0 18 53"/><path d="M3778 2768c32-3 64 10 72 44q5 21-6 41-16 23-43 27c-30 2-59-8-69-40q-7-22 4-43c10-17 24-24 42-29m63 45c-18-46-81-50-98-7q-8 20 1 39c16 35 71 36 87 8 12-13 12-23 10-40"/><path fill="#c7ac6b" d="M3831 2853c-16 28-71 27-87-8q-9-19-1-39c17-43 80-39 98 7 2 17 2 27-10 40m-11-28a29 29 0 1 0-59-2 29 29 0 0 0 59 2"/><path fill="#c6ae77" d="M3841 2813c2 17 2 27-10 40-2-14 5-4 2-15-10 1-7 9-24 9q9-8 11-22 0-2 3-2l6 10h4z"/><path d="M3949 2768c27 0 54 15 61 42q5 23-8 44c-11 19-27 24-46 28-32-1-62-16-67-50q-3-22 11-39c12-17 29-22 49-25m11 83a29 29 0 1 0-20-54 29 29 0 0 0 20 54"/><path fill="#c7ac6b" d="M3938 2777c26-2 51 5 61 31q7 18-1 36c-7 15-19 21-34 27q-19 5-36-3-19-8-27-29-6-17 2-35 12-21 35-27m22 74a29 29 0 1 0-20-54 29 29 0 0 0 20 54"/><path d="M3936 2617c31-2 61 6 72 39q7 22-2 42c-9 17-23 24-41 30-29 5-59-4-72-33q-9-23 1-45c9-19 23-26 42-33m23 84a29 29 0 1 0-18-56 29 29 0 0 0 18 56"/><path fill="#c7ac6b" d="M3943 2626c23-1 45 7 55 29q8 19-1 38c-8 18-21 23-38 29-27 0-52-8-60-38q-4-19 6-35c10-15 22-20 38-23m16 75a29 29 0 1 0-18-56 29 29 0 0 0 18 56"/><path d="M2438 226c30 0 58 13 67 44q5 21-6 41c-11 17-26 24-45 29-28 1-57-12-66-41q-6-22 5-43c11-19 26-24 45-30m17 84c34-19 21-54-20-52-13 10-26 25-13 41q8 9 22 11z"/><path fill="#c7ac6b" d="M2437 236a49 49 0 1 1 18 95 49 49 0 0 1-18-95m18 74c34-19 21-54-20-52-13 10-26 25-13 41q8 9 22 11z"/><path d="M2750 228c32-2 62 5 74 40q6 21-3 40-14 23-40 30c-72 14-111-79-31-110m25 82c34-20 19-54-20-52-30 22-19 52 12 52z"/><path fill="#c7ac6b" d="M2757 236a49 49 0 1 1 18 95 49 49 0 0 1-18-95m18 74c34-20 19-54-20-52-30 22-19 52 12 52z"/><path d="M1803 225a58 58 0 1 1 7 116 58 58 0 0 1-7-116m12 85a27 27 0 1 0-18-52 27 27 0 0 0 18 52"/><path fill="#c7ac6b" d="M1775 247a49 49 0 1 1 63 73 49 49 0 0 1-63-73m40 63a27 27 0 1 0-18-52 27 27 0 0 0 18 52"/><path fill="#bdaa7b" d="M1775 247a49 49 0 0 1 71 9c-33-17-33-17-71-9"/><path d="M1007 227c11-1 26 4 36 10a55 55 0 0 1 13 79c-12 17-26 21-45 24-31-2-58-17-63-50q-3-23 12-42 19-20 47-21m11 82a27 27 0 1 0-20-50 27 27 0 0 0 20 50"/><path fill="#c7ac6b" d="M1018 331a49 49 0 1 1-21-95 49 49 0 0 1 21 95m0-22a27 27 0 1 0-20-50 27 27 0 0 0 20 50"/><path fill="#bdaa7b" d="M1018 331a49 49 0 1 1 15-6c7-14 26-29 22-46-7-37-66-51-86-16-8 13-7 21-6 35 13 18 21 27 45 31q5 0 10 2"/><path d="M2120 227q20-1 38 8 21 13 27 37 5 24-9 43c-12 16-25 21-44 24q-22 2-41-10-19-15-24-38-3-22 10-40 16-22 43-24m15 83c34-20 19-55-19-52-34 23-19 54 19 52"/><path fill="#c7ac6b" d="M2118 236a49 49 0 1 1 16 95 49 49 0 0 1-16-95m17 74c34-20 19-55-19-52-34 23-19 54 19 52"/><path d="M3070 228c31-3 62 6 73 40q6 20-4 41-13 23-39 29c-46 6-86-23-71-74 5-19 24-29 41-36m25 81a27 27 0 1 0-20-50 27 27 0 0 0 20 50"/><path fill="#c7ac6b" d="M3079 236c23 0 45 9 54 31q7 18-2 35c-8 17-19 22-35 28h-2c-27 1-51-8-58-36q-4-18 5-35c10-14 22-19 38-23m16 73a27 27 0 1 0-20-50 27 27 0 0 0 20 50"/><path d="M675 228c14-1 23-2 36 3q23 9 33 32c15 36-6 63-40 75-31 4-60-5-72-36q-8-20 1-40c9-20 23-27 42-34m22 82a27 27 0 1 0-17-52 27 27 0 0 0 17 52"/><path fill="#c7ac6b" d="M680 236a49 49 0 1 1 18 95 49 49 0 0 1-18-95m17 74a27 27 0 1 0-17-52 27 27 0 0 0 17 52"/><path d="M1162 76q17-2 32 6 22 10 30 33 8 22-3 44-15 24-42 30c-32 0-62-10-70-45q-6-21 6-40c11-18 27-24 47-28m11 84a27 27 0 1 0-12-53 27 27 0 0 0 12 53"/><path fill="#c7ac6b" d="M1137 171a49 49 0 1 1 60-76 49 49 0 0 1-60 76m36-11a27 27 0 1 0-12-53 27 27 0 0 0 12 53"/><path fill="#bdaa7b" d="M1137 171a49 49 0 1 1 60-76 49 49 0 0 1-60 76c11 0 27 8 36 7 39-8 51-58 17-80l-7-4c-12-2-35 0-45 6-20 12-15 47-4 63z"/><path d="M840 76q19-1 37 8 22 12 29 35 6 23-7 44c-10 16-24 22-41 26-31-1-60-10-69-44q-5-21 6-40c11-18 26-24 45-29m11 84c37-8 31-50-5-54-38 15-33 51 5 54"/><path fill="#c7ac6b" d="M865 177c-45 19-85-34-57-73 15-21 50-24 70-8 11 8 17 15 20 29q3 19-9 34-9 13-24 18m-14-17c37-8 31-50-5-54-38 15-33 51 5 54"/><path fill="#bdaa7b" d="M878 96c11 8 17 15 20 29q3 19-9 34-9 13-24 18c4-6 16-16 21-21l1-4c9-28 2-32-9-56"/><path d="M2919 77c30-1 59 13 66 45q4 23-9 42c-11 16-24 21-42 24-32 1-61-11-67-46q-4-23 10-42 17-20 42-23m13 83c9-4 16-7 20-17q4-11-1-20c-5-12-18-17-30-17-37 17-31 53 11 54"/><path fill="#c7ac6b" d="M2915 85a49 49 0 1 1 21 96 49 49 0 0 1-21-96m17 75c9-4 16-7 20-17q4-11-1-20c-5-12-18-17-30-17-37 17-31 53 11 54"/><path d="M1639 77q21-2 39 8a55 55 0 0 1 19 79 61 61 0 0 1-42 25c-86-1-92-97-16-112m16 82c34-16 19-53-13-53-40 19-26 57 13 53"/><path fill="#c7ac6b" d="M1654 181a49 49 0 1 1-15-96 49 49 0 0 1 15 96m1-22c34-16 19-53-13-53-40 19-26 57 13 53"/><path fill="#bdaa7b" d="M1654 181a49 49 0 1 1 16-6c5-15 17-11 22-46q-15-48-64-34c-29 9-24 30-24 55 20 36 39 19 50 31"/><path d="M2598 77c28-1 56 9 66 39q6 20-4 40c-9 19-23 26-42 32-32 1-62-8-70-43q-5-23 7-43 16-21 43-25m11 83c42-10 27-55-9-54-35 17-30 50 9 54"/><path fill="#c7ac6b" d="M2595 86a49 49 0 1 1 22 94 49 49 0 0 1-22-94m14 74c42-10 27-55-9-54-35 17-30 50 9 54"/><path d="M2281 76c32 1 61 18 65 52q2 22-12 39a64 64 0 0 1-83 11q-19-13-24-37c-6-36 20-60 54-65m16 104a49 49 0 1 0-22-94 49 49 0 0 0 22 94"/><path fill="#c7ac6b" d="M2275 86a49 49 0 1 1 22 94 49 49 0 0 1-22-94m16 74a27 27 0 1 0-10-53 27 27 0 0 0 10 53"/><path d="M1961 76c12 0 28 4 38 10q20 13 26 36 4 23-9 43a61 61 0 0 1-42 24c-31 0-59-12-67-46q-4-21 8-40c11-17 27-23 46-27m11 84c37-13 24-52-11-54-37 18-29 53 11 54"/><path fill="#c7ac6b" d="M2002 164q-4 6-13 10-21 11-43 3-18-7-25-24-8-18-1-37c11-28 40-37 67-25q20 8 27 28a42 42 0 0 1-12 45m-30-4c37-13 24-52-11-54-37 18-29 53 11 54"/><path fill="#bdaa7b" d="M1987 91q20 8 27 28a42 42 0 0 1-12 45c7-50 18-27-14-72z"/><path d="M3389 227a58 58 0 1 1 32 112 58 58 0 0 1-32-112m27 82c34-23 16-54-23-51-32 26-16 55 23 51"/><path fill="#c7ac6b" d="M3399 236q15-1 28 5 19 8 25 26 7 18-1 35c-8 17-20 23-36 28-27 1-52-7-59-36q-4-18 5-34c9-15 22-20 38-24m17 73c34-23 16-54-23-51-32 26-16 55 23 51"/><path d="M1480 227c31 0 60 14 66 48q3 23-12 42-17 21-44 22c-15-1-23-1-37-9q-20-14-25-37-4-22 8-40 17-23 44-26m16 83c34-21 19-54-18-52-35 21-22 54 18 52"/><path fill="#c7ac6b" d="M1478 236a49 49 0 1 1 17 95 49 49 0 0 1-17-95m18 74c34-21 19-54-18-52-35 21-22 54 18 52"/><path d="M2276 228c28-1 55 8 66 37q7 20-1 40c-10 20-24 27-43 34q-22 4-43-6-21-11-28-35-6-21 5-41c11-17 25-24 44-29m20 81a27 27 0 1 0-21-50 27 27 0 0 0 21 50"/><path fill="#c7ac6b" d="M2276 236a49 49 0 1 1 20 95 49 49 0 0 1-20-95m20 73a27 27 0 1 0-21-50 27 27 0 0 0 21 50"/><path d="M2596 228c28-2 54 7 65 35q9 22-1 43c-9 19-24 27-43 33q-24 3-45-8-18-12-25-34c-9-37 16-60 49-69m20 82c34-22 17-55-20-52-34 21-20 54 20 52"/><path fill="#c7ac6b" d="M2568 252q18-17 42-16 21 2 35 19c17 20 14 51-9 66l-14 7-8 2q-22 3-40-10c-24-18-24-46-6-68m48 58c34-22 17-55-20-52-34 21-20 54 20 52"/><path fill="#bdaa7b" d="M2568 252c1 50-12 73 54 76l-8 2q-22 3-40-10c-24-18-24-46-6-68"/><path d="M3237 77c30-2 59 12 67 43q5 23-8 42c-11 17-26 22-44 26q-20 2-38-7a55 55 0 0 1-20-78q15-23 43-26m17 82c9-4 14-7 18-17q3-9-1-19-11-18-32-17c-37 18-28 55 15 53"/><path fill="#c7ac6b" d="M3197 123a49 49 0 1 1 96 20 49 49 0 0 1-96-20m57 36c9-4 14-7 18-17q3-9-1-19-11-18-32-17c-37 18-28 55 15 53"/><path fill="#bdaa7b" d="M3197 123a49 49 0 1 1 90 35l3-28c0-16-15-25-26-36-26-2-43-5-60 21z"/><path d="M527 77c28 1 55 14 62 44q4 22-8 40c-11 18-27 23-46 27q-22 2-40-10-20-13-25-37-3-23 11-42 19-21 46-22m11 82c15-7 15-11 22-25-8-16-13-27-33-28-40 14-32 54 11 53"/><path fill="#c7ac6b" d="M517 86a49 49 0 1 1 24 94 49 49 0 0 1-24-94m21 73c15-7 15-11 22-25-8-16-13-27-33-28-40 14-32 54 11 53"/><path d="M2430 79c30-5 63 6 73 37q6 21-3 41c-10 19-23 25-42 31-28 2-55-4-68-32q-9-22 0-44c8-19 22-26 40-33m22 81c15-5 26-16 21-33q-4-12-15-17-8-4-17-4c-38 17-29 52 11 54"/><path fill="#c7ac6b" d="M2434 86a49 49 0 1 1 24 94 49 49 0 0 1-24-94m18 74c15-5 26-16 21-33q-4-12-15-17-8-4-17-4c-38 17-29 52 11 54"/><path d="M1315 228c29-3 58 8 68 38q7 24-4 44c-9 17-23 24-41 29q-22 3-42-7-21-13-28-36c-9-35 15-59 47-68m24 81c12-9 13-11 18-25-10-21-14-27-39-26-35 20-21 57 21 51"/><path fill="#c7ac6b" d="M1303 241a49 49 0 1 1 47 85 49 49 0 0 1-47-85m36 68c12-9 13-11 18-25-10-21-14-27-39-26-35 20-21 57 21 51"/><path fill="#c6ae77" d="M1303 241a49 49 0 0 1 71 53l-2-3q3-36-30-49c-16 2-23 1-39-1"/><path d="M1951 227a58 58 0 1 1 29 113 58 58 0 0 1-29-113m27 83c30-25 17-53-21-52-36 21-21 55 21 52"/><path fill="#c7ac6b" d="M1957 236a49 49 0 1 1 18 95 49 49 0 0 1-18-95m21 74c30-25 17-53-21-52-36 21-21 55 21 52"/><path d="M3550 78c29-2 56 4 69 33q9 21 2 41c-8 19-21 28-39 36-31 2-61-3-74-36q-9-20 1-41c8-19 23-26 41-33m23 81c36-17 20-54-15-53-37 19-28 53 15 53"/><path fill="#c7ac6b" d="M3553 85a49 49 0 1 1 22 96 49 49 0 0 1-22-96m20 74c36-17 20-54-15-53-37 19-28 53 15 53"/><path d="M2750 78c30-2 59 5 71 35q8 22 0 42c-9 19-23 26-41 33-30 2-59-5-72-36q-7-20 1-41c9-18 23-26 41-33m21 82a27 27 0 1 0-11-54 27 27 0 0 0 11 54"/><path fill="#c7ac6b" d="M2722 112a49 49 0 1 1 88 42 49 49 0 0 1-88-42m49 48a27 27 0 1 0-11-54 27 27 0 0 0 11 54"/><path fill="#bdaa7b" d="M2722 112c-7 31 11 47 29 67a49 49 0 0 1-29-67"/><path d="M2109 79q22-5 42 3 22 10 31 33 9 21-1 40c-8 18-22 26-40 32-14 1-23 3-37-2-29-10-46-42-35-71 7-19 22-28 40-35m22 81q13-3 20-13 5-9 2-20t-14-17q-8-4-17-4c-37 16-32 52 9 54"/><path fill="#c7ac6b" d="M2087 104a49 49 0 1 1 78 58 49 49 0 0 1-78-58m44 56q13-3 20-13 5-9 2-20t-14-17q-8-4-17-4c-37 16-32 52 9 54"/><path fill="#bdaa7b" d="M2087 104c3 4 5 4 4 8-17 52 5 36 20 67a49 49 0 0 1-24-75"/><path d="M1633 228c29-1 58 5 69 36q8 21-1 41-14 25-40 34-22 4-42-5-22-11-30-33-7-21 2-41c10-18 24-25 42-32m25 82c30-24 16-54-17-52h-4c-35 20-21 55 21 52"/><path fill="#c6ae77" d="M1637 236a49 49 0 1 1 19 95 49 49 0 0 1-19-95m21 74c30-24 16-54-17-52h-4c-35 20-21 55 21 52"/><path d="M3555 228c28-3 55 7 66 36q7 21-2 41c-9 20-22 26-41 33-31 4-64-8-72-42q-5-22 7-41c10-16 24-22 42-27m20 82c34-24 16-55-21-52-35 22-19 54 21 52"/><path fill="#c7ac6b" d="M3555 235a49 49 0 1 1 18 97 49 49 0 0 1-18-97m20 75c34-24 16-55-21-52-35 22-19 54 21 52"/><path d="M1789 79c31-3 61 2 74 35q7 20-2 40c-9 20-22 26-41 34-29 2-54-4-69-31q-9-20-2-41c7-20 22-29 40-37m24 81a27 27 0 1 0-13-53 27 27 0 0 0 13 53"/><path fill="#c7ac6b" d="M1795 86a49 49 0 1 1 23 94 49 49 0 0 1-23-94m18 74a27 27 0 1 0-13-53 27 27 0 0 0 13 53"/><path d="M2917 228c27-2 55 10 65 36q8 24-3 44c-10 19-26 26-45 32-30 0-59-12-67-44q-6-21 6-40c11-18 26-23 44-28m18 82c35-22 18-54-19-52-35 22-19 54 19 52"/><path fill="#c7ac6b" d="M2881 260c9-11 24-24 39-25 71-1 77 100-1 95-6 0-18-3-22-9q-14-8-19-22-6-21 3-39m54 50c35-22 18-54-19-52-35 22-19 54 19 52"/><path fill="#c6ae77" d="M2881 260a129 129 0 0 0 16 61q-14-8-19-22-6-21 3-39"/><path d="M3072 78c29-3 57 6 69 35q8 23-2 44c-9 18-23 25-41 31-30 2-60-7-70-38q-7-20 2-41c9-18 24-25 42-31m25 102a49 49 0 1 0-23-95 49 49 0 0 0 23 95"/><path fill="#c7ac6b" d="M3074 85a49 49 0 1 1 23 95 49 49 0 0 1-23-95m19 74a27 27 0 1 0-16-52 27 27 0 0 0 16 52"/><path d="M3237 228c76-5 97 86 19 111q-23 3-42-8-21-12-27-35-5-23 7-42c11-16 25-22 43-26m18 82c10-6 16-10 18-22q3-10-4-18c-9-13-20-13-34-12-34 22-19 54 20 52"/><path fill="#c6ae77" d="M3235 235a49 49 0 1 1 20 96 49 49 0 0 1-20-96m20 75c10-6 16-10 18-22q3-10-4-18c-9-13-20-13-34-12-34 22-19 54 20 52"/><path d="M1470 78c30-2 58 3 71 34q9 20 1 41c-8 19-23 28-41 35-30 2-57-3-71-34q-7-21 0-42c8-19 22-26 40-34m27 102a49 49 0 1 0-21-94 49 49 0 0 0 21 94"/><path fill="#c7ac6b" d="M1475 86a49 49 0 1 1 23 94 49 49 0 0 1-23-94m-16 37c-1 25 1 32 27 37 10-2 17-3 23-12q7-10 4-21c-3-13-17-22-30-21-13 5-15 7-24 17"/><path d="M1153 227a58 58 0 1 1 28 113 58 58 0 0 1-28-113m24 83c33-20 19-54-19-52-34 22-21 53 19 52"/><path fill="#c7ac6b" d="M1157 236a49 49 0 1 1 20 95 49 49 0 0 1-20-95m20 74c33-20 19-54-19-52-34 22-21 53 19 52"/><path d="M836 228c29-2 57 7 68 36q8 21-1 41c-9 19-23 26-41 33q-22 4-42-5-22-11-29-35-6-21 4-40 14-24 41-30m23 82c33-22 17-55-20-52-35 22-20 54 20 52"/><path fill="#c6ae77" d="M839 236a49 49 0 1 1 19 95 49 49 0 0 1-19-95m20 74c33-22 17-55-20-52-35 22-20 54 20 52"/><path d="M3394 78c81-5 97 84 23 110-74 13-106-87-23-110m36 96c33-15 34-67-2-83q-21-9-44-1c-28 11-38 37-24 64 16 25 42 34 70 20"/><path fill="#c7ac6b" d="M3360 154c-14-27-4-53 24-64q23-8 44 1c36 16 35 68 2 83-28 14-54 5-70-20m55 5c14-8 24-20 15-37q-8-12-20-15l-12-1c-37 18-26 55 16 53z"/><path fill="#bdaa7b" d="M3360 154c29 14 24 23 61 16l9 4c-28 14-54 5-70-20"/><path d="M674 78c30-4 59 6 71 36q7 21-2 40c-9 20-23 27-42 34q-20 3-39-5-23-12-30-35c-11-34 11-60 42-70m21 82a27 27 0 1 0-13-53 27 27 0 0 0 13 53"/><path fill="#c7ac6b" d="M676 86a49 49 0 1 1 25 94 49 49 0 0 1-25-94m19 74a27 27 0 1 0-13-53 27 27 0 0 0 13 53"/><path d="M1311 78c30-2 60 4 72 36q8 21-2 41c-8 18-22 25-39 32-30 3-58-3-71-34q-8-20 0-41c9-19 22-26 40-34m21 82c35-11 28-50-8-54-38 14-35 51 8 54"/><path fill="#c7ac6b" d="M1315 86a49 49 0 1 1 23 94 49 49 0 0 1-23-94m17 74c35-11 28-50-8-54-38 14-35 51 8 54"/><path d="M992 78c46-3 67 11 77 56-9 30-14 40-44 52q-22 6-43-3-23-10-31-32-7-21 2-41c8-17 22-25 39-32m23 81c36-15 22-51-11-53-38 16-31 53 11 53"/><path fill="#c7ac6b" d="M996 86a49 49 0 1 1 23 94 49 49 0 0 1-23-94m19 73c36-15 22-51-11-53-38 16-31 53 11 53"/><path fill="#e1e1df" d="M129 1905h173v54H130zM345 1254c9 0 24 1 31 9 20 19 17 77 4 99l-11 6c9 7 11-1 19 7 1 5 1 5-1 10l-5 1-7 1c-12 0-13 1-23-4-14-6-37-24-38-41-1-34-12-79 31-88"/><path fill="#232220" d="m348 1274 4 2c5 10 3 67 1 79l-4-3c-5-11-3-64-1-78"/><path fill="#e1e1df" d="m3150 3179 7 1c12 8 49 73 57 89 3 6 3 8 1 14-12 7-41 4-56 4-13 0-56 2-65-4-4-14 44-91 56-104"/><path fill="#0f130f" d="M3146 3207c4 0 12-1 13 2 5 9-1 31-3 41l-2 2c-6-6-7-36-8-45M3152 3258a7 7 0 1 1 4 15 7 7 0 0 1-4-15"/><path fill="#e1e1df" d="m1949 3178 7 2c12 12 65 90 58 103-12 7-42 4-57 4s-51 2-63-3l-2-4c2-18 45-88 57-102"/><path fill="#232220" d="M1945 3207h12l3 4c2 10-2 27-3 39l-3 2c-7-6-8-35-9-45"/><path fill="#0f130f" d="M1952 3258a8 8 0 1 1 2 15 8 8 0 0 1-2-15"/><path fill="#e1e1df" d="M498 1534c0 13 3 56-4 63q-11 0-21-6c-58 40-61-76-41-101q9-11 23-12c12-1 26 4 34 11 10 9 9 24 9 35h-33c0-10 3-20-7-24 0 8-2 27 1 34z"/><path fill="#464644" d="M458 1500c0 8-2 27 1 34 0 7 0 10 2 17l3 2-5 2c-3 9-1 14-2 23-3-12-2-65 1-78"/><path fill="#0f130f" d="M457 1578c1-9-1-14 2-23l5-2q5 12 0 22c-4 3-3 2-7 3"/><path fill="#e1e1df" d="M202 1254c41-1 42 21 42 54h-33c0-7 1-28-5-32-6 12-10 70 0 78 10-5 1-19 7-28l4-1h27q2 16-4 30-8 14-23 19c-45 14-53-32-50-64 2-30-2-50 35-56M603 1480c27-2 56-2 51 34-6 5-21 3-28 2-7-7 1-7-5-16h-4c-10 19 21 29 36 43l1 2c6 29 8 44-24 54-38 1-45-10-46-45h31c0 12-2 15 6 23l-1-1 5-1v-13c-12-13-29-21-38-36q-10-14-3-29c5-9 10-12 19-17"/><path fill="#6a5041" d="M911 863q14-3 26 0l2 2 1 3c3-4 3-6 9-6s32-3 35 2c31 45-10 52-40 47l-3-3c-9 7-19 5-30 2q-4 3-9 2c-47 3-44-8-38-49 10-1 40-4 47 0"/><path fill="#0f130f" d="M911 863q14-3 26 0l2 2 1 3c7 1 19 1 24 3h-14c-20 0-45-2-63 0l1 32h51l-1 3 3 2c-9 7-19 5-30 2q-4 3-9 2c-47 3-44-8-38-49 10-1 40-4 47 0"/><path fill="#999" d="m938 906 3 2c-9 7-19 5-30 2 8-6 16-4 27-4M911 863q14-3 26 0l2 2q-15 6-28-2M871 869l9 2c5 10 2 24 2 35-6-2-7-1-11-6-5-12-2-18 0-31"/><path d="M940 868c3-4 3-6 9-6s32-3 35 2c31 45-10 52-40 47l-3-3-3-2 1-3 25 1v-2c2-6 2-23 2-31h-2c-5-2-17-2-24-3"/><path fill="#999" d="M970 871c9-1 6-2 12 2q9 15-2 30l-10 1zM887 871c5 0 14-1 16 4q12 27-15 28zM950 871h16c0 8 0 25-2 31q-6 1-12-1c-5-8-3-20-2-30"/><path fill="#e1e1df" d="m2391 3205 5-1c17 0 65-3 78 4l2 4c-3 6-2 5-10 8 5 18-2 31 5 43v5q12 8 20-1l-1 5c-6 3-18 2-25 1l-16-2c-9-8 3-42-6-54l-14 2c-13 14 4 27-6 49-7 5-6 3-17 3l-7-2c-11 10-17-3-22-10l-3 2-2 8-3 2c-9 0-5 1-12-3-5-13 3-48 6-64 11 0 17-1 28 1"/><path fill="#e1e1df" d="M2363 3204c11 0 17-1 28 1l1 16 7 40v8c-11 10-17-3-22-10l-3 2-2 8-3 2c-9 0-5 1-12-3-5-13 3-48 6-64"/><path fill="#0f130f" d="m2392 3221 14-2v41l-7 1z"/><path fill="#32312e" d="m2465 3273 1-53c5 18-2 31 5 43v5q12 8 20-1l-1 5c-6 3-18 2-25 1M2391 3205l5-1c0 8-2 8 2 13l8 2-14 2z"/><path fill="#0f130f" d="M2406 3260v11l-7-2v-8z"/><path fill="#e1e1df" d="m509 1481 34-1c36-3 49 41 27 65-7 8-17 3-27 6l-1 4v41h-33z"/><path fill="#232220" d="m543 1501 6 4c4 10 2 15-2 25-9-5-5-21-4-29"/><path fill="#e1e1df" d="M746 750c0-8-1-9 2-15 14-2 53-2 67 0 2 7 3 6 1 13q-8 8-19 9l18 2 3 16-1 4c-5 31 11 45-44 42-30-2-41-25-13-44q-6-3-14-3c0-15-2-14 10-21z"/><path fill="#e1e1df" d="M746 750c0-8-1-9 2-15 14-2 53-2 67 0 2 7 3 6 1 13q-8 8-19 9l18 2 3 16c-16-2-55-1-72-1 0-15-2-14 10-21z"/><path fill="#464644" d="M746 750q10-1 19 2-4 3-9 1z"/><path fill="#32312e" d="M746 774c17 0 56-1 72 1l-1 4c-7 0-30-1-35 1-11 3-1 12-4 21-8 2-10 1-18 1l-1-3 11-3c3-4 2-5 3-11-5-7-3-5-13-8q-6-3-14-3M789 796q7 0 13 2l1 4q-7 1-14-1z"/><path fill="#e1e1df" d="M108 1256c11-1 28-2 38 4 33 22-7 70-21 91 12 0 24-4 31 6q2 7 0 14c-11 3-42 1-55 1-8 0-5 1-11-2-10-25 52-75 35-95l-4 2c-5 8-3 10-4 20H89c0-22-1-29 19-41M1077 2649c1-10 0-26 4-34 11-7 53-11 63-1 5 5 4 27 3 35l-1 5c1 10 3 8-1 16q-9 5-19 7c10 0 14-1 22 4 0 7 1 4-4 9-13 5-61 10-67-6 3-8 1-4 8-10l1-2-8-2 1-17z"/><path fill="#e1e1df" d="M1079 2653c12 2 56 3 67 1 1 10 3 8-1 16q-9 5-19 7c10 0 14-1 22 4 0 7 1 4-4 9-13 5-61 10-67-6 3-8 1-4 8-10l1-2-8-2z"/><path fill="#464644" d="M1078 2670q12-3 21 2-5 3-14 2l1-2z"/><path fill="#32312e" d="M1077 2649h70l-1 5c-11 2-55 1-67-1z"/><path fill="#464644" d="M1090 2628c11-1 36-4 46 2-12 2-36 3-46-2"/><path fill="#e1e1df" d="M2911 3204c9 0 8-2 16 2 6 9 6 14 9 24 1-8-1-20 4-26l3-2c14 6 11 57 7 69-9 0-7 1-14-2q-5-12-8-25c-1 10 1 20-5 26-6 1-7 1-13-1l-3 1-34 1v-67h38"/><path fill="#e1e1df" d="M2911 3204c9 0 8-2 16 2 6 9 6 14 9 24 1-8-1-20 4-26l3-2c14 6 11 57 7 69-9 0-7 1-14-2q-5-12-8-25c-1 10 1 20-5 26-6 1-7 1-13-1 2-13 1-50 1-65"/><path fill="#32312e" d="M2907 3204h4c0 15 1 52-1 65l-3 1-2-11h3c1-9 2-9-1-17l-5-1 2-5c-2-10-5 0-12-11 3-13 10 1 15-21"/><path fill="#0f130f" d="m2902 3241 5 1c3 8 2 8 1 17h-3l-9-2c-5-5-4-2-5-9 5-6 3-4 11-7"/><path fill="#e1e1df" d="M2221 3204h30c11 0 9-1 17 3q5 6 2 13l2 2c6-10 0-24 21-17l-3 13c-5 16-8 47-14 53l-13-1-4 1c-9 0-11 2-18-3l-7-11c0 10 2 8-3 15q-12 6-24-1 2-34 7-66z"/><path fill="#e1e1df" d="M2251 3204c11 0 9-1 17 3q5 6 2 13l2 2c6-10 0-24 21-17l-3 13c-5 16-8 47-14 53l-13-1c2-28-4-39-12-66"/><path fill="#32312e" d="m2214 3205 7-1c-2 17-10 51-5 64q6 7 15 1l3-12c0 10 2 8-3 15q-12 6-24-1 2-34 7-66M2249 3204h2c8 27 14 38 12 66l-4 1c-4-17-9-50-10-67"/><path fill="#e1e1df" d="M346 2151a39 39 0 1 1 19 77 39 39 0 0 1-19-77"/><path fill="#32312e" d="M351 2184a7 7 0 1 1 10 10 7 7 0 0 1-10-10"/><path fill="#e1e1df" d="M394 1256h69q3 11-1 21l-12 2c-9 10-5 60-5 77v16h-33c0-15 3-84-3-91-7-1-8 0-13-3q-5-10-2-22M3657 2061c13 0 27-2 37 7 7 6 6 4 16 4 5 3 3 1 5 7l3 4c2-8 0-6 4-10 15-1 15 1 19-12 0 19 1 49-1 67-2-12 1-25-2-38l-3 8c-2 20-6 52-35 34 1-6 0-3 6-9 0-8-4-30-8-36-6 5 1 5-7 13l-13 2c-4 9-1 10-1 21l-3 4h-15c-4-6-2-55-2-66"/><path fill="#8a8987" d="m3715 2079 3 4c2-8 0-6 4-10 15-1 15 1 19-12 0 19 1 49-1 67-2-12 1-25-2-38l-3 8c1-10 5-19-6-24-11 5-9 16-11 28z"/><path fill="#464644" d="m3677 2073 4 5-1 7h-2l-2-1z"/><path fill="#e1e1df" d="M2160 3205c11-5 12-5 24-3q6 11 5 24l5-1q-1-10 3-19c8-4 8-2 17-1q-5 32-7 66h-24l-6-32-4 32h-23c-2-12-9-58-7-66q9-2 17 0"/><path fill="#32312e" d="M2160 3205c11-5 12-5 24-3q-11 0-16 7c-4 9-3 23-5 34z"/><path fill="#666767" d="m2189 3226 5-1q-1 9-3 13z"/><path fill="#999" d="M1112 1051c-1-17-4-35 5-48 12-8 37-5 52-4 1 12 1 43 3 51-4 9-4 10-10 17l-4 1v-1l-8 4c-11 1-13 0-24-2-9 1-12-12-14-18"/><path d="M1112 1051c-1-17-4-35 5-48 12-8 37-5 52-4 1 12 1 43 3 51-4 9-4 10-10 17l-4 1v-1c5-8 5-11 4-21l1-40h-43q1 20-1 41c0 12 0 12 7 22-9 1-12-12-14-18"/><path fill="#bdaa7b" d="M1119 1047c9 6 10 10 21 15 13 1 14-10 22-16 1 10 1 13-4 21l-8 4c-11 1-13 0-24-2-7-10-7-10-7-22"/><path fill="#e1e1df" d="M3772 2062c5-2 20-1 26-1l2 15 1-2c2 10 3 27 0 36l-1-1-2 19h-18l-3-12c-1 9 1 6-4 12-6 0-6 0-11-2l-5 1-17 1c2-18 1-48 1-67q13-1 24 2z"/><path fill="#464644" d="m3798 2061 2 15 1-2c2 10 3 27 0 36l-1-1-2 19c-2-13-1-55 0-67"/><path fill="#999" d="M3777 2116q-1-7 2-13c3 10 3 14 1 25z"/><path fill="#464644" d="M3757 2127c0-8 0-10 2-18q3 8 3 17z"/><path fill="#32312e" d="m3765 2063 7-1-3 13-1-1z"/><path fill="#e1e1df" d="M46 1256h34v116H46zM490 3184c7-13 15-33 28-38 16 4 12 57 9 69-6 2-5 2-11 1-5-4-4-1-4-10v-33q-6 16-17 28c-16 5-21-13-27-25 0 12 3 33-5 42-21 4-13-56-12-70 26-1 28 14 39 36M819 3148c26-1 28 16 39 37 6-12 17-40 31-39 10 8 10 59 6 70h-12c-5-5-3-2-3-10v-31c-6 12-12 30-27 26q-11-10-17-25c0 11 2 28-2 38-5 4-3 3-12 2-6-7-3-55-3-68M3639 2500l40-4 14 3-1-2c30-7 85 24 102 7 12 7 61-7 75-5l-1 2h1c-8 7-10 4-15 7q-4 3-9 5c-65 22-99 13-164-2-19-5-25 4-46-9z"/><path fill="#232220" d="m3639 2500 40-4 14 3c8 0 69 14 77 18v1c-23 4-57-8-80-11-15-2-38-3-51-7"/><path fill="#32312e" d="M3845 2513c-5-9-57 12-70 6l1-2c19-9 57-9 78-9q-4 3-9 5"/><path fill="#e1e1df" d="M944 2214c-33-2-35-15-14-39 3-3-12-16-11-27 11-2 58-4 68 0 1 6 1 6-1 12-13 10-25 0-43 4-6 5-4 2-6 10 19 7 18 9 35 18l4-1v-11l4-2c6 1 4-1 8 4 0 8 1 25-1 32-12 2-29-11-41-18-2 8-2 10-2 18"/><path fill="#32312e" d="m944 2214-2-11-10-10c8-1 5-1 14 3-2 8-2 10-2 18"/><path fill="#e1e1df" d="M3371 2802a30 30 0 1 1 21 57 30 30 0 0 1-21-57M285 1254h24l-36 120h-25zM722 3175c0-8-2-19 2-25q6-3 13-2c5 8 3 56 2 68q-8 3-15-2c-4-6-2-17-2-25h-29q3 15-2 27c-7 0-7 1-14-1-3-14-1-51-1-67q9-1 16 2 4 12 1 25zM2585 3272q-9 0-17-4c0-15-4-55 5-66 6-1 3-1 9 2 5 7 5 7 6 15v7l3 1c6-10-4-13 3-22 7-1 7-2 15-1 4 6 4 62-1 69-10 0-13 3-23-1"/><path fill="#0f130f" d="M2585 3272c4-10 1-18 4-28 6 23-4 25 19 29-10 0-13 3-23-1"/><path fill="#e1e1df" d="M2672 3249zc9-8-5-28 4-44 8-4 6-2 16-2l9 28c0-11-2-18 4-27l6-1c12 9 9 55 2 67-5 3-2 2-8 1-6-4-6-5-8-11l-4 11-17 1-2-1z"/><path fill="#464644" d="M2672 3249zc9-8-5-28 4-44 8-4 6-2 16-2q-10 0-15 4-1 32-1 65l-2-1z"/><path fill="#32312e" d="M2694 3271v-20h2l2 9z"/><path fill="#e1e1df" d="M779 2183q-26-1-21-27c4-20 69-22 71 3q3 24-21 22c-5 3-5 5-11 6l-34-1 17-2z"/><path fill="#32312e" d="M779 2183c11-3 18 1 27-9 1-9 1-5-3-13l8-4 3 2c-1 14-6 1-6 22-5 3-5 5-11 6l-34-1 17-2zM768 2160c10-1 18-4 25 4-11 1-16 3-25-4"/><path fill="#e1e1df" d="M1049 3175c0-8-1-20 3-27 7-1 4-1 10 2 8 13 4 49 4 66q-8 2-15-2c-4-6-2-17-2-25h-26q3 13-1 25c-5 3-4 2-13 2-6-7-3-56-3-68q9-1 16 2 4 12 1 25zM2519 3219c16-39 53-5 43 13-7 2-7 1-15 1q-5-7-3-18 0 12-5 20-1 12 1 23l3 1 1-4 2-10q10-4 17 2c3 13-6 21-16 26-12 3-16 3-27-4l-2 2-4-26c3-5 3-17 5-26"/><path fill="#32312e" d="M2519 3219c1 26-8 50 24 53l4 1c-12 3-16 3-27-4l-2 2-4-26c3-5 3-17 5-26"/><path fill="#0f130f" d="M2539 3235c-1-8-1-10 1-17l4-3q0 12-5 20"/><path fill="#e1e1df" d="m1104 2700 4 1 2-1c8-1 28-3 34 1 0 13 7 17 3 28-10 14-48 15-60 7-20-14-13-37 15-36z"/><path fill="#464644" d="m1104 2700 4 1 2-1c-1 8-1 9 1 17l1 2-2 2h-19v-3l10-1c4-6 3-9 3-17"/><path fill="#32312e" d="m1123 2718 6-1 2 3-6 2z"/><path fill="#e1e1df" d="M2983 3230c0-12-2-19 8-27l5 2q6 9 4 22c0 6 0 16 3 20h2l-4 23h-1c-7 1-9 2-15 0-6-6-8-19-11-28l-1 27c-5 4-2 3-9 3-11-11-9-56-1-68 14-5 16 16 20 26"/><path fill="#32312e" d="M3000 3227c0 6 0 16 3 20h2l-4 23h-1z"/><path fill="#e1e1df" d="M607 2133h36c27 2 41 17 16 39l-27 1c-27 0-52-14-25-40"/><path fill="#464644" d="M608 2151c11-2 43-4 51 3-11 2-42 4-51-3"/><path fill="#e1e1df" d="M2785 3242c0-14-2-28 7-38 12-2 16 19 19 28 0-8-1-21 3-28 6-2 3-2 10 0 6 10 6 61-5 69-9-2-10-7-13-15-3 6-3 6-4 13q-10 1-18-3z"/><path fill="#32312e" d="M2802 3271v-21l2-1 2 9c-3 6-3 6-4 13"/><path fill="#e1e1df" d="M51 1908c12 0 50-5 57 8q9 20-11 30l-30 1c-32 1-40-25-16-39"/><path fill="#32312e" d="M48 1927c11-3 43-4 52 2-11 1-42 3-52-2"/><path fill="#e1e1df" d="M313 700c31-2 34 18 31 45-1 11-2 15-11 23h-5c-37 2-33-53-15-68"/><path fill="#32312e" d="m322 709 3 4c1 13 1 33-1 46l-4-4c-1-13-2-33 2-46"/><path fill="#e1e1df" d="M3801 2074c20-34 58-4 42 16q-8 2-17 0l-4-2v12l5 1c10-1 10-3 17 1 10 22-29 46-43 8 3-9 2-26 0-36"/><path fill="#464644" d="M3822 2088c0-8-1-7 3-13q4 6 1 15z"/><path fill="#32312e" d="m3822 2100 5 1q1 6-2 13c-4-5-2-6-3-14"/><path fill="#e1e1df" d="M544 3148c12 0 42-3 50 3q2 6-1 10c-12 5-27-3-34 7 8 10 25 4 32 11v7c-4 4-24 3-31 3l3 12c11 5 21-4 32 3 2 7 2 4-1 10-7 5-39 3-50 2zM197 2520l37 1v67h-37zM2747 3204h26l6 36 6 2-1 26q-6 5-15 3l-7-11c-6 6-12 14-21 11-5-11 3-52 6-67"/><path fill="#32312e" d="m2785 3242-1 26-5-28z"/><path fill="#e1e1df" d="M1077 2148q-2-11 3-19c15-1 50 5 67 7v27c-11 1-62 11-69 7v-17z"/><path fill="#32312e" d="m1077 2148 16-1 5 5-20 1z"/><path fill="#999" d="M1093 2147q10-1 19 3l-14 2z"/><path fill="#e1e1df" d="M625 3147q20-2 35 7v4c-10 14-20-2-34 6 7 12 42 14 40 38q-11 13-26 16c-11-2-26-3-33-10 0-6-1-3 3-9 12-5 25 10 35-1-6-9-25-10-37-25-4-14 6-20 17-26M101 1790c8-1 8 1 10 7-2 16-22 14-36 15 11 2 29 1 35 8q1 7-2 13-9 3-20 0l-49-6v-27zM2683 700c13-1 22-1 30 9 1 8 2 5-1 10-11 0-14-7-20-6-1 6-2 6 0 11h16c6 7 4 4 6 14 0 12-1 32-18 31-32-3-32-52-13-69"/><path fill="#0f130f" d="m2691 733 4 2q5 11 0 23l-4-3q-2-11 0-22"/><path fill="#e1e1df" d="M453 700c19-1 27 2 31 23 6 30-11 61-43 36 1-8 0-7 6-11 10 0 10 8 18 7v-9l-2-2c-6 0-16 2-19-4-8-15-4-31 9-40"/><path fill="#32312e" d="m459 710 5 3q3 10 1 21l-5-2q-2-10-1-22"/><path fill="#e1e1df" d="m923 2647 18 1 5 5 40 5v26c-16 2-50 8-65 8q-3-8-2-18l1-6c-2-7-2-8-1-15l4-3z"/><path fill="#32312e" d="m920 2668 23 1-1 5h-23z"/><path fill="#464644" d="m923 2647 18 1 5 5-23-3z"/><path fill="#999" d="M943 2669c6 1 9-1 13 3l-14 2z"/><path fill="#e1e1df" d="M770 3148c10-1 30-2 35 8-6 11-23 3-35 9l1 4c9 7 18 5 26 10 24 14 8 33-11 38-10-1-32-1-35-12 11-13 27 2 39-6l-1-3c-12-12-35-9-38-30q6-13 19-18M3010 3204h27c2 10 12 58 9 64-6 5-3 4-11 4l-5-2-3-10h-3c-6 8-4 8-11 11l-12-1 4-23zM2480 3204h26l8 41 4 26h-13q-5-3-8-7l-2-3h-3l-1 6q-8 9-20 1v-5z"/><path fill="#464644" d="M2494 3227c2 9 2 11 2 21l-4-3c-2-8 0-11 2-18"/><path fill="#e1e1df" d="M2638 3204h27l7 45 3 22q-8 1-15-1l-8-10-3 1-2 9-4 2c-7-1-8 0-13-4-1-5 7-55 8-64"/><path fill="#32312e" d="M2652 3229q3 8 1 15l-2 1q-3-7 1-16"/><path fill="#e1e1df" d="M943 2734q-12 1-21-4-7-10-6-23c7-11 17-10 29-10 12 1 24-3 35 0 6 4 7 5 8 13 3 26-12 24-31 25l-3-14h-8q-4 6-3 13"/><path fill="#464644" d="M954 2721c3-11 12-11 21-8v3c-7 2-9 2-16 2l-2 17zM943 2734l-1-11-10-10 6-1c7 3 4 1 8 9q-4 6-3 13"/><path fill="#e1e1df" d="M2075 3204h27l9 58v9c-15 0-11 1-21-10-8 3-12 15-21 11-5-11 4-54 6-68"/><path fill="#32312e" d="M2089 3229q4 7 1 15h-2q-3-5 1-15"/><path fill="#e1e1df" d="M3150 722q0-10 5-18c6-3 18-8 25-6 13 5 8 25 10 34 2 12 9 16 2 29-13 13-45 4-42-15 7-7 6-6 16-8l-1-4 3-8c-7-3-8 0-18-4"/><path fill="#32312e" d="M3150 722c19-1 10-1 25-9 0 9 2 6-2 11l-5 2c-7-3-8 0-18-4M3165 734q17 6 8 21l-2 1c-4-9 1-11-5-18z"/><path fill="#e1e1df" d="M1577 3191c32 2 18 13 29 16 7-5 19-16 27-13 1 11-20 16-28 29l1 2 7 1c8 0 17-2 22 5-8 7-59 4-73 4-1-22-5-31 15-44"/><path fill="#32312e" d="m1579 3200 10 4c6 8 10 16 0 23l-13-1c-5-5-3-2-5-9 2-9 2-9 8-17"/><path fill="#e1e1df" d="M923 2647c-5-7-11-24-3-30 13-9 57-12 68 0 5 15-6 37-24 32q-8-4-8-15l-4 2h-9l-2 12z"/><path fill="#464644" d="M952 2636c8-12 9-10 23-9v2l-19 5zM943 2636l-2-3-10-3 1-3h6c7 3 5 1 9 9z"/><path fill="#e1e1df" d="M1101 2174c14-1 28-3 41 5 22 15-8 46-24 32l1-8q4-7 13-10c-5-2-15-2-21-2l-3 2c12 26-14 21-31 20l1-34c4-4 2-3 7-3 5 7 2 13 7 21l3-1c-1-11-1-14 6-22M2299 3206c16-6 28-7 36 12v4c-6 4-3 2-11 2-5-3-5-3-8-8l-2 2v5c17 15 47 45 3 49q-18 2-22-17c3-8 1-5 7-9 7-1 4-1 10 3l1 9 3 2 3-3c0-13-18-17-25-29q0-5-4-10l3-13z"/><path fill="#464644" d="m2293 3205 6 1c-4 10-4 12-5 22q0-5-4-10z"/><path fill="#e1e1df" d="M607 738c11-1 23-3 35 2 21 8 16 34-6 37q-6 1-10-2v-6c3-7 5-7 11-12l2-1q-10-3-21-2l-4 3c12 26-13 20-32 20 0-9-1-31 3-38 6 4 10 15 14 22 8-12-2-7 8-23M2833 701c11 0 36-4 38 8l-3 2q-9-1-18 2l-1 5 2 2c7-1 9-2 16 0 14 11 10 27 3 42q-6 7-15 7c-15-2-20-5-23-20 3-7 0-4 7-8 20 1 5 7 14 16 4-3 5-15 7-20l-6-5-10 4c-15-4-11-22-11-35M487 2137l5-1c9 5 9 1 18 7 1 13-14 11-16 25q0 5-3 8c-8 1-19-4-27-6-8-3-20-5-26-11-1-7 0-8 1-14 13-13 28 1 48-8M3007 701h24l1 27c1 21 8 36-16 40l-2-2c-2-15-11-8-22-18 2-11 11-35 15-47M83 1864c1-11-1-9 6-14 25-4 33 38 2 38-14 0-31-18-38-14-3 8-2 11-8 14-5-4-5-2-5-8v-35l39 21z"/><path fill="#32312e" d="M83 1864c8 1 9 0 13 5-6 4-11 0-17-3z"/><path fill="#e1e1df" d="M382 856a25 25 0 1 1 10 49 25 25 0 0 1-10-49M625 2200c-2 9 0 8-6 14-21 6-27-33-12-39 14-4 34 12 46 18l2-2q0-6 2-12c7-1 4-1 10 1 3 8 4 29-4 34-10 0-26-11-35-17z"/><path fill="#32312e" d="M625 2200q-7 0-13-4v-2c8-1 8 0 16 3z"/><path fill="#e1e1df" d="M462 2199c1 35-37 8-22-18 16-13 40 10 54 8 2-7 2-11 10-11 6 7 10 29-2 35-13-1-25-10-37-17z"/><path fill="#32312e" d="M462 2199q-6 1-12-3l1-2c7-2 7-1 14 2z"/><path fill="#e1e1df" d="M3329 724c-10 0-9 1-15-4-6-19 23-28 34-15 17 19-9 31-13 48 8 7 16-5 16 10l-2 3c-11 2-29 1-41 1q10-18 21-35z"/><path fill="#32312e" d="M3329 724c0-8-1-7 3-12 4 3 2 1 3 8l-6 12z"/><path fill="#e1e1df" d="M624 2663c0 7 1 12-7 15q-7 1-12-2c-8-6-10-23-5-31 16-12 37 6 55 8 1-6 1-6 6-12h3c5 6 6 20 6 28-9 16-31-1-43-8z"/><path fill="#32312e" d="m624 2663-12-2v-3c8-1 6-1 15 3z"/><path fill="#e1e1df" d="M784 2673q1 6-3 12c-20 12-36-28-11-35 17-5 31 17 44 13l3-10c6-3 3-3 9-1 4 7 4 29-4 35-10 0-26-11-35-17z"/><path fill="#0f130f" d="M784 2673q-7 0-13-4l1-2c7-1 9 0 15 3z"/><path fill="#e1e1df" d="M769 2608c28 0 31 15 45 15l3-14c5-1 3-1 8 1 5 11 7 30-6 35-7-1-9-3-16-7-8-5-22-14-31-13 7 6 11 8 12 18l-3 2c-30-1-31-23-12-37M936 3148c11 0 53-2 60 1 3 7 3 4 2 10-6 4-13 3-21 5-2 6-1 28-1 36 0 10 1 11-7 18-17 3-11-44-10-56h-17c-6-5-4-4-6-14M566 3241c13-3 21-3 31 8h3c7-2 9-3 17-1q14 9 4 22-11 6-22 2l-2 2c-11-1-10-2-18-11l-4 1c-1 6 0 4-3 9l-4-2-7-3 1-13z"/><path fill="#e1e1df" d="M600 3249c7-2 9-3 17-1q14 9 4 22-11 6-22 2l-2 2c-9-14-7-11 0-25z"/><path fill="#32312e" d="M597 3249h3l2 4h10l2 2c-11 6-9 0-15 8v9l-2 2c-9-14-7-11 0-25M566 3241c0 9 0 23 2 30l-7-3 1-13z"/><path fill="#e1e1df" d="M310 1905h30v54h-30zM2829 3204c9 0 39-2 44 4-4 6-7 7-12 12-3 12-2 33-1 46l-3 4c-6 1-7 2-13 0-10-11-1-30-3-44s-2-4-12-12zM2114 3204q11-1 19 2c2 14-2 41 3 49 7 5 9 4 10 10l-3 5q-13 2-27 1h-5v-9c5-17 1-39 3-58"/><path fill="#666767" d="M2111 3262c5-17 1-39 3-58 3 23 0 46 2 67h-5z"/><path fill="#e1e1df" d="M3820 1188h52l-17 21c3 2 10 8 11 11 6 12 2 31-13 35q-13 3-27-2c-5-4-5-4-7-10l2-2c13 4 37 12 41-8-5-12-16-9-23-18q4-10 13-19c-13 1-27 5-32-8M2511 781l5 1c12 17-9 49 14 60 30-2 8-49 22-60l3 2 2 4c0 17 4 98-42 52-9-10-7-46-4-59M579 1420c12-2 61-5 68 5 30 45-35 37-58 37-6-1-3 0-8-4 5-16 66 11 64-21-12-14-44-6-62-11zM3838 1044c58 4 18 42-3 61 12-1 20-3 30 3l-1 3q-12 5-27 3c-9-1-8 1-15-3-1-17 40-33 37-52-11-10-25 2-35-2v-4q6-7 14-9M599 2607c14-1 64 5 70 18-1 6-1 5-5 9l-8-1c-9-2-35-10-43-8l-2 12c-6 3-3 3-10 1-4-6-2-22-2-31M439 2607c14-1 65 4 70 17-2 7 0 5-5 9l-7-1c-11-2-37-10-45-6l-1 11c-5 3-2 2-9 1-6-6-3-21-3-31M626 1354c7 4 6 10 11 11 8 2 10-2 17 4v4c-8 5-8 0-20 3-3 6-2 23-1 31l-51-18c-3-1-2 0-5-4l1-3c12-6 29 8 44 9l2-4c-6-16-19-10-23-19 8-3 9-3 17-3 6-3 4-2 8-11M3777 1188c10-2 26 0 34 8-3 5-1 3-7 6l-8-2c-33-9-31 33-16 44 7 2 7 2 14 1 6-4 6-5 13-3l1 3-2 5c-34 25-68-29-29-62M3776 904q19-3 34 7v3l-4 4q-15-5-31 1c-13 6-5 31 3 40 7 4 8 3 16 3 8-5 6-5 13-4l1 3q-6 13-19 11c-39-4-36-47-13-68M438 2641c17 1 59-5 70 7q1 6-2 10l-6 1-37 1-9 7c-12 0-15-16-16-26M3776 1046c11-1 31-3 32 11l-3 3c-12-2-38-6-37 11 1 21 5 32 26 34 6-5 5-6 12-6l1 4-2 5c-33 26-67-28-29-62M291 699c8 7 9 60-1 68-7 1-7 1-13-2q2-21 0-42l-9-5-3-2 1-2q12-9 25-15M797 2187l28 1c4 5 3 5 3 10-1 14-38-2-50 13q-3 3-7 2c-6-7-8-10-12-18 0-6-1-4 4-9zM3505 699l5 3c4 12 7 58-6 65-7-1-4 1-10-4l1-27c-1-19-2-10-13-21l2-3c9-4 11-5 19-12zM3823 2429q13 0 25 5c14 6 15-2 28-5 5 7 3 18-3 23l-6-1-1-2c-6 6-8 9-17 9-25-16-15-3-29-5-1-6 2-17 3-24M3844 903l5 1c6 12-2 38 2 51 2 7 11 6 16 13l-2 3q-21 2-41 1v-7l3-3c7 1 7 1 13-1 2-13 4-21-1-32-5-5-3-4-13-4q8-12 18-22M2595 781l4 1c7 10 1 38 2 52 4 7 9 7 16 12l-1 3c-11 2-28 1-40 1l-3-5c6-7 10 0 18-6 1-10 2-28-2-36-6 3-7 4-14 5l-1-3c2-7 15-15 21-24M1625 3084c7 1 5-1 8 5 2 11 7 34-5 39l-3-2c-1-7 0-8-3-14-11-1-31-6-37 4l6 9-5 2c-5-1-25-19-32-24q34 0 68-1 3-8 3-18M1563 3138c20 7-4 36 22 32q7-11 10-24l4 1c3 9-1 10 6 18q9 5 21 2l6 1 2 5-1 2c-15 3-54 2-71 2q-1-20 1-39M912 3148q9-2 16 3c2 11 1 51 1 65-8 0-8 2-14-2-6-12-3-48-3-66M952 3253q8-8 21-5l1 3q-4 3-12 4c7 5 10 5 13 11-5 10-14 8-23 5h-6c-11 5-15 3-23-5v-11c10-11 16-9 27-3z"/><path fill="#e1e1df" d="M952 3253q8-8 21-5l1 3q-4 3-12 4c7 5 10 5 13 11-5 10-14 8-23 5l3-5 9 1v-2c-6-4-9-5-12-12"/><path fill="#32312e" d="m950 3252 2 1c3 7 6 8 12 12v2l-9-1-3 5h-6l-2-5h-9v-2c14-1 13 1 15-12"/><path fill="#e1e1df" d="M712 3271c-10 3-14 4-23-4-2-6-1-6 0-13 9-10 14-9 25-2h1q11-6 22-4l1 4-11 3q5 3 12 5l1 10c-9 5-12 5-22 1z"/><path fill="#e1e1df" d="M715 3252q11-6 22-4l1 4-11 3q5 3 12 5l1 10c-9 5-12 5-22 1q0-3 2-5l10 1c-6-8-10-4-15-15"/><path fill="#32312e" d="M714 3252h1c5 11 9 7 15 15l-10-1q-2 2-2 5h-6l-3-5-10-1c7-1 9-1 14-5z"/><path fill="#e1e1df" d="m863 1891 5 1c5 7 3 40 2 52 5 7 8 0 18 7l-1 4c-10 2-32 2-43 2 1-8-1-5 4-9q6 1 12-2c2-10 6-20 2-30-10-7-4 0-16-3q7-12 17-22M789 3240c21 0 41 3 28 29-9 4-18 7-26 0q-3-14-2-29"/><path fill="#0f130f" d="m798 3246 11 3c4 6 3 5 3 15-6 1-6 2-12 1-4-7-2-11-2-19"/><path fill="#e1e1df" d="m796 1890 4 1c8 9 4 44 4 57 13-1 26-5 31 7-10 2-30 1-41 2 1-21-1-48 2-67M561 3268c-8 5-8 5-16 5q-16-5-9-20c10-11 17-6 26 2zM896 3252c9-5 15-8 24-1l3 4v11l-3 4c-8 6-15 3-23 0z"/><path fill="#32312e" d="m920 3251 3 4v11l-3 4-3-4c-5 0-6 1-11-1-3-5-3-2-1-8 6-5 2-3 11-2z"/><path fill="#e1e1df" d="M744 3259q-1-12 2-21l10 9c15-3 18 16 12 26-8-1-6-8-6-16l-4-4h-2c-4 9-3 16-7 20l-5-3h-4l-1-10z"/><path fill="#32312e" d="m739 3260 5-1v11h-4z"/><path fill="#e1e1df" d="M681 3232c0 9 3 33-1 41h-4q-4-6-3-14c-8 2-2 9-13 9l-7-9-2 5-2-6 9-8 3 5c7-2 13-15 20-23M832 3247q8-2 15 3c5 6 4 3 4 9q-6 5-13 5h-2l1 2 8 1 2 1-1 3c-9 3-20 2-22-8 2-9 2-9 8-16M3900 2432l16-1c6 5 4 2 6 9q-5 22-24 10z"/><path fill="#666767" d="M3898 2450c-9 0-10 5-18-1q-4-17 11-21c6 2 4 0 7 5l2-1z"/><path fill="#e1e1df" d="M508 3238c17 7 1 14 10 27l9 1 2 1 4 5q-12 2-26 1zM892 3272h-7c-6-7-1-26 2-34h3c2 4 1 3 0 9l6 5 1 18z"/><path fill="#32312e" d="m890 3247 6 5 1 18-5 2z"/><path fill="#e1e1df" d="M853 3246c14 4 3 6 14 13 2-6 3-7 7-12h3l2 2-2 5-11 27q-9-17-13-35M651 3264v7l-3 2-2-2q-5-15-2-31l3-1c6 3 7 5 11 11l-9 8zM41 1891a8 8 0 1 1 12 11 8 8 0 0 1-12-11"/><path fill="#927b48" d="M1154 3442c105 0 225 3 328 0v44q12 4 20 13c-7 21-18 11-25 28 9 11 15 5 25 17-7 21-18 12-25 27 10 10 16 8 25 17-5 19-17 12-25 27 10 11 16 7 25 17-5 20-17 13-25 27 10 11 16 8 25 17-7 22-14 10-25 29 10 6 19 9 25 17-8 23-22 10-21 30 10 5 15 7 22 17-9 15-19 12-26 25 11 9 15 6 25 16-5 21-19 11-24 29 10 7 17 7 24 15-6 22-19 11-24 29 11 8 16 7 24 15-5 20-17 11-25 29 8 5 20 10 25 16-7 21-16 13-25 27 11 13 16 6 25 19-5 14-8 15-21 22l-1 31c1 13 1 18-12 25-33 17-100 19-137 19l-38 1c-28-2-48-3-77-7-21-3-47-7-61-23q-3-23-1-47c-6-1-15-2-16-9 6-5 7-4 16-5-6-16-19-11-23-28 6-7 12-8 20-13l3-3c-5-18-16-8-23-27 6-12 11-6 22-18-2-17-19-9-22-29 10-9 16-6 25-17-9-15-21-8-25-27q9-6 24-16c-6-15-14-9-26-26 9-12 18-8 26-21-10-13-23-10-23-27 8-8 15-5 24-17-8-11-17-8-27-24 7-9 16-10 27-21-8-13-21-7-24-26 8-8 16-6 24-18-10-13-21-8-24-26 12-12 14-4 23-19-8-12-19-7-24-25 11-10 17-7 24-19-8-12-23-9-23-26 9-9 16-6 23-18-8-13-20-10-24-26 10-3 13-4 23-5z"/><path fill="#c7ac6b" d="m1156 3861 73-3q80-4 161-11c12-1 81-9 88-8 10 7 17 7 24 15-6 22-19 11-24 29 11 8 16 7 24 15-5 20-17 11-25 29 8 5 20 10 25 16-7 21-16 13-25 27 11 13 16 6 25 19-5 14-8 15-21 22l-1 31c1 13 1 18-12 25-33 17-100 19-137 19l-38 1c-28-2-48-3-77-7-21-3-47-7-61-23q-3-23-1-47c-6-1-15-2-16-9 6-5 7-4 16-5-6-16-19-11-23-28 6-7 12-8 20-13l3-3c-5-18-16-8-23-27 6-12 11-6 22-18-2-17-19-9-22-29 10-9 16-6 25-17"/><path fill="#927b48" d="m1156 3861 73-3q80-4 161-11c12-1 81-9 88-8 10 7 17 7 24 15-6 22-19 11-24 29 11 8 16 7 24 15-5 20-17 11-25 29q-121 15-244 20c-9 0-75 3-79 5-5-18-16-8-23-27 6-12 11-6 22-18-2-17-19-9-22-29 10-9 16-6 25-17"/><path fill="#c7ac6b" d="m1156 3861 73-3q80-4 161-11c12-1 81-9 88-8 10 7 17 7 24 15-6 22-19 11-24 29l-122 11c-32 8-181 5-202 13h-1c-2-17-19-9-22-29 10-9 16-6 25-17"/><path fill="#927b48" d="M1502 3854c-6 22-19 11-24 29l-122 11c-32 8-181 5-202 13h-1c-2-17-19-9-22-29 18 14 351-13 371-24"/><path fill="#c7ac6b" d="M1154 3907c21-8 170-5 202-13l122-11c11 8 16 7 24 15-19 12-346 35-368 28l-3-1c6-12 11-6 22-18z"/><path fill="#c6ae77" d="m1154 3907 4 2c-5 13-12 16-24 17l-3-1c6-12 11-6 22-18z"/><path fill="#927b48" d="M1477 3927c8 5 20 10 25 16-7 21-16 13-25 27-18 5-61 9-80 11q-85 8-172 12c-13 0-63 0-71 3-6-16-19-11-23-28 6-7 12-8 20-13l3-3c4-2 70-5 79-5q123-6 244-20"/><path fill="#c7ac6b" d="M1477 3927c8 5 20 10 25 16-39 14-353 37-371 25 6-7 12-8 20-13l3-3c4-2 70-5 79-5q123-6 244-20M1477 3970c11 13 16 6 25 19a3359 3359 0 0 1-212 22l-94 4-42-5c-6-1-15-2-16-9 6-5 7-4 16-5 8-3 58-3 71-3q87-4 172-12c19-2 62-6 80-11"/><path fill="#927b48" d="M1502 3989c-5 14-8 15-21 22l-1 31c-1-10 1-21-4-26-12-4-103 7-127 6-50-2-102 0-153-7l94-4q75-4 150-13c14-1 49-4 62-9"/><path fill="#685426" d="m1154 4010 42 5c51 7 103 5 153 7 24 1 115-10 127-6l-33 6c-92 3-195 11-288-7v42q-3-23-1-47"/><path fill="#c6ae77" d="M1476 4016c5 5 3 16 4 26 1 13 1 18-12 25 11-21 8-21 4-45-11 1-18 3-29 0z"/><path fill="#c7ac6b" d="M1154 3442c105 0 225 3 328 0v44q12 4 20 13c-7 21-18 11-25 28 9 11 15 5 25 17-7 21-18 12-25 27 10 10 16 8 25 17-5 19-17 12-25 27l-321 23c-10-13-21-8-24-26 12-12 14-4 23-19-8-12-19-7-24-25 11-10 17-7 24-19-8-12-23-9-23-26 9-9 16-6 23-18-8-13-20-10-24-26 10-3 13-4 23-5z"/><path fill="#927b48" d="M1155 3549c23 1 68-3 93-4l156-12c10-1 67-7 73-6 9 11 15 5 25 17-7 21-18 12-25 27 10 10 16 8 25 17-5 19-17 12-25 27l-321 23c-10-13-21-8-24-26 12-12 14-4 23-19-8-12-19-7-24-25 11-10 17-7 24-19"/><path fill="#c7ac6b" d="M1155 3593c14 1 68-3 84-4q120-6 238-18c10 10 16 8 25 17-5 19-17 12-25 27l-321 23c-10-13-21-8-24-26 12-12 14-4 23-19"/><path fill="#927b48" d="M1502 3588c-5 19-17 12-25 27l-321 23c-10-13-21-8-24-26 20 9 344-14 370-24"/><path fill="#c7ac6b" d="M1155 3549c23 1 68-3 93-4l156-12c10-1 67-7 73-6 9 11 15 5 25 17-45 7-346 35-371 24 11-10 17-7 24-19"/><path fill="#927b48" d="M1502 3499c-7 21-18 11-25 28-6-1-63 5-73 6l-156 12c-25 1-70 5-93 4-8-12-23-9-23-26l2 2c11 10 338-20 368-26M1167 3485l87 7c14 1 44 1 56 3-40 5-95 7-136 9l-13-4c-7-6-6-3-7-10 5-5 4-4 13-5"/><path fill="#a18c54" d="M1155 3505c-8-13-20-10-24-26 13 6 22 3 36 6-9 1-8 0-13 5 1 7 0 4 7 10l13 4z"/><path fill="#c7ac6b" d="m1156 3638 321-23c10 11 16 7 25 17-5 20-17 13-25 27q-128 15-257 21c-9 0-58 4-64 2-8-13-21-7-24-26 8-8 16-6 24-18"/><path fill="#927b48" d="M1502 3632c-5 20-17 13-25 27q-128 15-257 21c-9 0-58 4-64 2-8-13-21-7-24-26 19 9 348-12 370-24"/><path fill="#927b48" d="M1156 3682c6 2 55-2 64-2q129-6 257-21c10 11 16 8 25 17-7 22-14 10-25 29-10-1-67 7-82 8l-160 11c-20 0-60 4-79 3-8-11-17-8-27-24 7-9 16-10 27-21"/><path fill="#c7ac6b" d="M1156 3682c6 2 55-2 64-2q129-6 257-21c10 11 16 8 25 17-25 14-333 29-373 27 7-9 16-10 27-21"/><path fill="#927b48" d="M1155 3818c2-2 23-2 28-3q147-5 294-21c11 9 15 6 25 16-5 21-19 11-24 29-7-1-76 7-88 8q-81 7-161 11l-73 3c-9-15-21-8-25-27q9-6 24-16"/><path fill="#c7ac6b" d="M1155 3818c2-2 23-2 28-3q147-5 294-21c11 9 15 6 25 16-18 11-352 35-371 24q9-6 24-16"/><path fill="#927b48" d="M1156 3727c19 1 59-3 79-3l160-11c15-1 72-9 82-8 10 6 19 9 25 17-8 23-22 10-21 30l-3-3c-20 1-51 6-73 8l-162 11c-27 1-62 4-88 3-10-13-23-10-23-27 8-8 15-5 24-17"/><path fill="#c7ac6b" d="M1156 3727c19 1 59-3 79-3l160-11c15-1 72-9 82-8 10 6 19 9 25 17-25 6-80 10-108 13q-85 8-172 12c-25 1-61 3-85 2-4-3-3-1-5-5 8-8 15-5 24-17M1155 3771c26 1 61-2 88-3l162-11c22-2 53-7 73-8l3 3c10 5 15 7 22 17-95 8-189 19-285 22-21 1-70 4-89 1 9-12 18-8 26-21M1439 3031h72l1 209c0 14 0 79-2 90q9 0 16 2c4 9 2 88 2 103h-427v-105h19c5-5 4-3 5-12-2-17-1-77-1-98v-189c12 0 64-1 72 2l1 3c1 23 2 258-1 263q-3 15-2 31h247l-2-47v-83c-3-54 0-114 0-169"/><path fill="#a18c54" d="M1439 3031h72l1 209c0 14 0 79-2 90-2-9-1-72-1-87v-160h-69c0 32 2 86-1 117-3-54 0-114 0-169M1129 3083c-5-9 0-19-2-28-6-25 51-22 64-17 5 7 4 3 4 11q-1-6 2-13c1 23 2 258-1 263-2-11-1-56-1-69l1-147z"/><path fill="#bdaa7b" d="M1124 3031c12 0 64-1 72 2l1 3q-3 6-2 13c0-8 1-4-4-11-13-5-70-8-64 17 2 9-3 19 2 28l2 54q2 66-3 131c-1 13-1 39-3 50-2-17-1-77-1-98z"/><path fill="#c7ac6b" d="M1283 3031h70v292h-70c0-38-2-106 0-142-2-17 0-76 0-95z"/><path fill="#a18c54" d="M1287 3084c9-17-3-43 11-47 10-3 38-4 48 2 6 4 2 33 4 44z"/><path fill="#927b48" d="M1283 3031h70v292h-70c0-38-2-106 0-142 4 17-1 109 6 113l1-5c0 10-2 17 6 25 9 2 47 4 55 2 1-29 3-217-1-233-2-11 2-40-4-44-10-6-38-5-48-2-14 4-2 30-11 47l-4 2z"/></svg>