<svg xmlns="http://www.w3.org/2000/svg" width="2420" height="4096" preserveAspectRatio="none" style="display:block" viewBox="0 0 4096 4096"><defs><linearGradient id="b" x1="709.5" x2="755.4" y1="2381.8" y2="2382.8" gradientUnits="userSpaceOnUse"><stop class="stop0" offset="0" stop-color="#256c25"/><stop class="stop1" offset="1" stop-color="#3e862f"/></linearGradient><linearGradient id="a" x1="4079.6" x2="3934.7" y1="3548" y2="3514.9" gradientUnits="userSpaceOnUse"><stop class="stop0" offset="0"/><stop class="stop1" offset="1" stop-color="#1d100a"/></linearGradient></defs><path fill="#0f100d" d="M235 0h3624c15 3 28 2 42 6 66 1 189 64 191 142v3779c0 34-10 55-36 78-77 67-177 61-270 61h-147q2 13-3 23c-12 9-21 2-37 7h-914c-13-7-9-18-6-30H296c-50 0-91 2-140-7q-21-4-40-12c-41-14-85-40-106-80-6-12-3-25-10-36V155c6-8 3-36 23-61C70 34 141 14 212 3c10 0 13-1 23-3m67 2545c168-27 108-163-49-150-35 5-74 15-97 45a51 51 0 0 0-3 55c30 47 100 56 149 50M264 224c52-2 101-14 117-69-17-54-66-66-116-68-163 8-143 138-1 137m3594-1c28-4 64-15 81-39 22-30 3-62-25-77-34-19-69-22-106-18-155 25-83 155 50 134m5 2320c19-2 29-4 47-10 59-20 86-78 25-117-29-19-79-28-114-23-169 22-122 162 42 150"/><path fill="#2d2c2d" d="M2785 2660h723l220-1c100 0 214-8 294 67q22 22 31 52c2 6 2 7 1 12v2c3 5 3 27 2 33l1 12 2 14c5 24 1 68 4 100q0-7 2-13 2 13 1 26h-3l-4 6-4 40 2 6-2 17 1 7 1 50 4 4 4-1c2-5 4-28 5-37 3 15-5 55-4 74v131q4 43 5 87-1 35-5 68c-1 16 2 38-1 53l3 37c9 64-7 140-1 205 1 10 4 41 0 49-4-11 1-21-3-31-2 14-3 33-7 46l7 7c-1 30-3 40-2 73h-2v-2c0-11 0-15-2-25v10c0 73-79 113-141 129-51 12-102 10-153 11h-127v-262c0-29 3-117-2-139-11-7-143-3-166-3v-34l-68 1c0 17 3 24-9 36-16 2-13-26-12-36h-49c1 9 4 33-10 34-11-10-8-21-7-34-18-2-31-2-50-1 0 9 3 33-10 34-9-9-7-22-6-35l-61 1v34h-25v-34h-58c1 16 3 25-8 36h-4c-10-11-7-20-7-36l-48 1 1 10c0 11 1 16-8 24-15-2-11-24-10-35l-48 1v33q-42 1-85-1v-33h-51v34c-22-2-141-2-156 3-8 19-4 354-4 401-82-2-167 2-249-1-75-2-171-26-210-96-14-25-10-48-9-75 55-2 112 1 167-5 31-4 71-43 41-72-31-30-84-25-125-25l-83-1v-57l78 1c41 0 137 6 138-52 2-57-102-51-136-51h-80l-1-51c41 6 115 1 159 0 21-1 61-23 59-49-3-58-89-53-130-52h-89l-2-1c0-23-3-68 1-87 0 7-1 5 2 11l3-1c-4-8-1-30-3-44l-3 19-1-1h2l-2-1 3-1-3-1c0-53 1-40 50-42 11-1 52 2 57-1l-5 3 5-2c-10-4-77 1-97-2l-4-3c-2-12-1-32-1-46 18 0 138 2 145-1-24 1-130-1-147-6-4-9-2-99-2-114 0-78-3-157 3-235 2-36-8-70 21-100 17-18 47-46 72-49 29-9 54-18 84-23 45-7 92-3 137-4 87-2 178 3 264 0"/><path fill="#120703" d="M2353 3191c-24 1-130-1-147-6-4-9-2-99-2-114 0-78-3-157 3-235 2-36-8-70 21-100 17-18 47-46 72-49-35 19-73 42-86 82l-4 15 77-1c41 0 93-5 126 25 16 15 20 40 1 54-37 29-84 24-128 24l-78-1v53c49-1 184-11 208 25 67 100-189 76-208 77v48l76 1c42 0 140-7 141 55 0 28-47 46-72 47"/><path fill="#dfb96a" d="M2210 2790c49 0 118-5 165 6 51 12 56 54 4 77-23 6-142 8-167 4-4-4-2-1-3-8 10-20 63-26 4-62-4-3-3-12-3-17"/><path fill="#e5b657" d="M2326 2795c26-2 60 3 76 27l-4-5c5 14 11 22-3 36-25 25-65 22-98 22-15 0-69 3-77-5 3-10 24-19 26-29 3-15-17-28-25-41l2-4c10-3 39 3 53 2z"/><path fill="#120703" d="M2306 2857c-31-2-24-45-11-50 26-9 102-10 96 34v-1c-6 14-20 25-35 22-24 3-28 0-50-5"/><path fill="#dfb96a" d="M2306 2857c-31-2-24-45-11-50 26-9 102-10 96 34v-1c-6 14-20 25-35 22q21-7 32-25c0-47-143-35-82 20"/><path fill="#f4f5f3" d="M2333 2813c40 0 64 28 16 44-48 1-69-33-16-44"/><path fill="#e5b657" d="M2372 2950c40 9 65 48 17 71q-16 8-34 10c-17 2-133 4-145-1l-1-8c8-15 47-21 24-48-9-9-26-9-27-24 8-8 23-6 33-5 25-1 114-4 133 5"/><path fill="#dfb96a" d="M2372 2950c40 9 65 48 17 71q-16 8-34 10c-17 2-133 4-145-1l-1-8c8-15 47-21 24-48-9-9-26-9-27-24 8-8 23-6 33-5l18 3c-7 0-28 0-34 2l-1 8c11 8 25 12 26 26 2 17-24 27-25 40 9 7 124 3 139-1 102-24 12-67 10-73"/><path fill="#120703" d="M2302 2969c26-11 37-11 67-3l4 1c38 2 19 78-76 49l-17-18c4-14 5-28 22-29"/><path fill="#dfb96a" d="M2280 2998c4-14 5-28 22-29-6 7-13 13-11 22 4 21 35 27 53 25 31-2 59-19 29-49 38 2 19 78-76 49z"/><path fill="#f4f5f3" d="M2334 2967c41 1 61 30 14 43-49 1-66-34-14-43"/><path fill="#e5b657" d="M2231 3159c25-41-31-41-23-60 10-7 126-3 146-1 75 5 84 75 6 84-39 4-109 5-149 1l-4-3c0-7 0-3 4-11l7-3z"/><path fill="#dfb96a" d="M2231 3159c25-41-31-41-23-60 10-7 126-3 146-1 75 5 84 75 6 84-39 4-109 5-149 1l-4-3c0-7 0-3 4-11l7-3c-2 5-3 6-1 12l4 2c38-3 217 21 174-57-6-11-46-23-60-21-16 1-108-5-117 2 5 16 44 28 17 54z"/><path fill="#dfb96a" d="M2327 3108q23-3 43 6c14 7 30 23 18 40-11 17-25 15-44 20-18-2-78-9-58-48 8-14 26-15 41-18"/><path fill="#120703" d="M2327 3112c54-2 88 37 25 56-58 4-90-38-25-56"/><path fill="#f4f5f3" d="M2328 3119c19-2 49 2 46 26-6 11-13 13-25 17-18 0-48-2-46-27 7-12 12-12 25-16"/><path fill="#060e04" d="M2208 2968q28 7 16 33-4 5-10 6l-4-2c-3-8-2-26-2-37"/><path fill="#0f100d" d="M2209 3119q27 12 11 37c-7 3-4 3-10 2-4-10-2-28-1-39M2211 2813c18 12 22 18 10 38l-6 2-3-2q-3-18-1-38"/><path fill="#070706" d="M4057 3190q4-4 9-7v78q4 43 5 87-1 35-5 68c-1 16 2 38-1 53-7 6 0 9-8 17l-2 1-7 1-1 1q7 1 11 4c-37 5-88-2-126 1-24 2-58-6-77-21-16-13-20-39-5-55 33-32 91-26 132-26l75-1v-48c-49-1-165 11-203-24q-12-11-12-28 0-16 12-28c37-34 154-23 204-22 0-15 1-37-1-51"/><path fill="#dfb96a" d="M4055 3487c-52 0-108 3-159-4-19-2-48-23-44-43 11-51 101-40 139-42 16 0 57-1 66 4 7 20-57 34-10 63 11 7 11 9 10 21z"/><path fill="#e5b657" d="M3919 3403c18 0 115-1 128 3v2l-24 24c-14 15 18 34 19 47-5 4-17 3-25 3q-53 3-105-1c-16-2-47-11-50-29-8-37 31-44 57-49"/><path fill="#dfb96a" d="M3908 3411c34 0 60-2 80 30-10 23-20 28-45 33-20 15-125-23-35-63"/><path fill="#120703" d="M3923 3415c60-1 75 46 10 57-60-1-74-48-10-57"/><path fill="#f4f5f3" d="M3926 3421c45 3 56 35 8 44-47-1-61-36-8-44"/><path fill="#e5b657" d="M3917 3335c-103-10-73-93 15-87 38 2 85-4 122 1l4 2c1 24-28 14-28 37 0 21 29 28 26 45-4 3-1 2-6 2-34 1-101 3-133 0"/><path fill="#dfb96a" d="M3917 3335c-103-10-73-93 15-87 38 2 85-4 122 1l4 2c1 24-28 14-28 37 0 21 29 28 26 45-4 3-1 2-6 2l-3-1c7-19-17-18-22-36-5-15 12-25 20-38l-1-4c-13-7-103-3-125-3-28 0-86 26-42 60l3 2-2 4c5 7 32 8 43 14z"/><path fill="#120703" d="M3914 3264c52-6 94 33 31 55-55 6-96-35-31-55"/><path fill="#f4f5f3" d="M3916 3270c18-1 50 1 48 26-5 11-12 13-23 17-39 5-75-26-25-43"/><path fill="#2d2c2d" d="m4054 3423 3 4c1 10 4 25-2 33l-6-1c-13-17-11-23 5-36"/><path fill="#060e04" d="m4052 3271 3 1c4 8 1 25 0 35l-4 2c-15-15-14-23 1-38"/><path fill="#120703" d="M4068 3506c9 64-7 140-1 205 1 10 4 41 0 49-4-11 1-21-3-31-2 14-3 33-7 46l7 7c-1 30-3 40-2 73h-2v-2c0-11 0-15-2-25l-1-22c-54-2-111 1-165-5-29-4-70-42-42-70 32-33 87-28 129-27h79v-58c-48 0-158 10-197-17q-15-11-19-29-1-16 9-28c14-17 38-24 59-26 6 0 15-1 19 3l-4 2c17 0 125-2 132 3 1 7 2 9-1 15l-6 2 9 8c0 9 0 33 5 41 5-7 4-98 4-114"/><path fill="#e5b657" d="M3925 3551c17 0 125-2 132 3 1 7 2 9-1 15l-6 2-9 6c-24 20-2 35 14 47q5 6 3 13c-8 6-119 1-137 2-37 2-102-36-50-73 17-12 34-14 54-15"/><path fill="#dfb96a" d="M3921 3561h2l3 1c56-10 84 62 8 66-20 0-61-6-67-28 2-7 1-7 5-11l3 2 1-2-2-5c1-7 0-4 6-9 5 0 32-10 42-12z"/><path fill="#120703" d="M3916 3568c57-3 89 38 26 55-55 5-91-37-26-55"/><path fill="#f4f5f3" d="M3914 3575c19-2 39-2 51 17 2 15-9 19-21 24-19 4-50 1-52-23 4-12 11-13 22-18"/><path fill="#dfb96a" d="M3918 3711c17-1 129-3 140 2 4 14-25 24-28 38-3 18 30 29 29 42-9 7-24 5-36 5-34 0-169 15-170-45 0-28 41-40 65-42"/><path fill="#e5b657" d="M3931 3715c17 0 103 1 113 4l1 2q-6 9-16 15c-14 47 10 30 18 52-7 7-34 5-46 5-55 0-94 9-138-23-3-52 27-49 68-55"/><path fill="#120703" d="M3938 3726c34-12 71 44 25 50-8 0-20 6-30 6-9 1-40-4-45-12-24-37 33-44 50-44"/><path fill="#dfb96a" d="M3938 3726c34-12 71 44 25 50 26-32 6-42-25-50"/><path fill="#f4f5f3" d="M3919 3732c41-2 70 29 20 44-43 2-70-29-20-44"/><path fill="#2d2c2d" d="m4053 3735 3 4c1 12 1 20-1 32l-3 1c-11-16-15-21 1-37"/><path fill="#060e04" d="m4053 3577 3 3c1 9 2 24 0 32l-4 2c-13-14-12-23 1-37"/><path fill="#120703" d="M4070 3056c3 15-5 55-4 74v53q-5 3-9 7c-18 5-111 0-136 1-18 1-63-11-71-26-45-86 112-79 157-77q27 0 50 2l4 4 4-1c2-5 4-28 5-37"/><path fill="#dfb96a" d="M3913 3097c16-2 127-2 141 0 10 21-13 19-21 30-16 22 21 36 25 51l-3 4q-14 5-30 2c-35 0-88 4-120-2-80-15-66-73 8-85"/><path fill="#e5b657" d="M3918 3101c18 0 118-3 126 3-2 11-18 18-21 34-3 17 13 24 23 38l-3 4 2-1c-10 4-25 2-36 2-37 0-132 9-145-32-14-43 34-41 54-48"/><path fill="#120703" d="M3954 3165c-22 5-50 5-67-12q-15-18 4-32c27-15 45-9 71-3q12 1 17 10 6 10 3 20c-4 15-14 18-28 17"/><path fill="#dfb96a" d="M3962 3118q12 1 17 10 6 10 3 20c-4 15-14 18-28 17 26-15 29-24 8-47"/><path fill="#f4f5f3" d="M3919 3118h14c15 1 33 10 31 28-7 11-12 12-25 15-41 5-72-28-20-43"/><path fill="#2d2c2d" d="m4053 3120 3 2c2 9 5 31-2 38l-4-2c-16-15-17-25 3-38"/><path fill="#120703" d="M2213 3241q33-2 66-2c36-1 143-4 147 49q0 17-11 29c-23 25-59 25-90 26q-59-1-118-1c0 10 1 41-1 50l-2-1c0-23-3-68 1-87 0 7-1 5 2 11l3-1c-4-8-1-30-3-44l-3 19-1-1h2l-2-1 3-1-3-1c0-53 1-40 50-42 11-1 52 2 57-1l-5 3 5-2c-10-4-77 1-97-2"/><path fill="#060e04" d="M2207 3270q40 20 3 44c-4-8-1-30-3-44"/><path fill="#dfb96a" d="M2234 3308c16-40-30-37-25-57 13-8 138-4 162 1 75 16 41 83-14 83-34-1-120 6-149-1l1-11c5-6 17-11 25-15"/><path fill="#e5b657" d="m2234 3308 5-3 3-2v1l1-1c9-18 2-35-15-43-13-6 4 5-7-2 3-1 26 3 33 3l50-2v2l-5 3c-8 5-15 8-17 17 3 8 5 5 8 12 12 25 34 29 61 26l9 8v2c-27 11-120-1-152 5l1-11c5-6 17-11 25-15"/><path fill="#120703" d="M2290 3293c4-13 5-15 18-24 21-13 90-5 75 32-4 10-21 16-32 18-27 3-49-1-61-26"/><path fill="#f4f5f3" d="M2326 3270c18-1 49 1 49 25-5 11-10 13-23 17-18 4-42 1-50-19 1-15 13-19 24-23"/><path fill="#dfb96a" d="M4055 3033c-48-1-102 4-149-2-73-10-72-75 0-85 20-2 147-8 153 4-6 16-67 44-2 66z"/><path fill="#e5b657" d="M3925 2949c20-1 104-1 117 8-3 11-23 7-21 38v3c8 10 20 16 24 25l-2 3c-8 4-20 2-29 2-42-1-104 4-141-17q-24-15-6-37c15-19 36-23 58-25"/><path fill="#120703" d="M3920 2960c54-3 84 42 18 57-58 2-85-42-18-57"/><path fill="#f4f5f3" d="M3922 2967c41-1 65 29 16 43-47 2-68-32-16-43"/><path fill="#dfb96a" d="m4054 2792 1 9c-3 8-14 12-19 17-29 29 23 37 19 58-9 4-67 3-80 3-37-1-85 5-115-23-13-12-11-33 3-45 19-17 46-21 72-21h119z"/><path fill="#e5b657" d="m3908 2794 3 1c32 7 105-7 134 3l1 2c-12 12-18 17-26 31-3 20 20 25 16 39q-7 4-17 3c-40-1-81 6-119-3-29-7-42-16-33-46 7-20 22-18 39-28z"/><path fill="#dfb96a" d="M3929 2801c9 2 15 0 23 2 67 12 13 74-22 64-21 1-68-7-57-40 5-15 41-27 56-26"/><path fill="#120703" d="M3923 2807c57-2 77 45 11 56-61-1-76-46-11-56"/><path fill="#f4f5f3" d="M3923 2812c17 1 35 3 41 21 1 16-13 19-26 24-48 1-68-33-15-45"/><path fill="#120703" d="M4053 2778c2 6 2 7 1 12h-119c-26 0-53 4-72 21-14 12-16 33-3 45 30 28 78 22 115 23 13 0 71 1 80-3 4-21-48-29-19-58 5-5 16-9 19-17l-1-9c3 5 3 27 2 33l1 12 2 14c5 24 1 68 4 100q0-7 2-13 2 13 1 26h-3l-4 6-4 40 2 6c-65-22-4-50 2-66-6-12-133-6-153-4-72 10-73 75 0 85 47 6 101 1 149 2l1 7c-25 1-44-2-78 0-42 5-176-2-128-77 25-37 167-26 207-25v-53c-30 1-262 24-208-74 22-41 152-24 202-28z"/><path fill="#060e04" d="M4057 2837c0 7 0 10-2 18l-3 1c-6-5-17-15-15-23 2-5 10-16 15-18q3 4 4 10zM4055 3010l-6-6c-9-9-13-25-2-34 8-2 5-3 12 0z"/><path fill="url(#a)" d="M4057 3486c8-8 1-11 8-17l3 37c0 16 1 107-4 114-5-8-5-32-5-41l-9-8 6-2c3-6 2-8 1-15-7-5-115-3-132-3l4-2c-4-4-13-3-19-3 19-3 122-2 147-2l1-51q-4-3-11-4l1-1 7-1z"/><path fill="#070706" d="M2533 2836c34-3 107 0 143 0h818q117 1 233-1c20 0 44 6 58 21q7 9 6 22c3 65 1 130 2 194q3 212-1 423c-14 20-20 23-42 29-22 4-87 3-113 3l-255-1h-728l-111-1c-21 0-51-7-56-32-5-29-4-62-5-93l1-172q-1-169 0-340c0-36 14-45 50-52"/><path fill="#e7e6e2" d="M2539 2843h1076q63-1 126 1c16 0 29 10 40 21 3 35 1 82 1 118v404l-1 98c-1 29-32 33-55 34H2548c-16-1-47-5-50-26q-3-43-1-86l-1-156 1-267-2-100c0-29 19-38 44-41"/><path fill="#0f100d" d="M3395 2927c48 1 100 15 116 65h41v-60l24-3v140c-19 0-78 6-90-7v-4c6-6 54-4 66-4v-48h-42c-11 33-32 44-63 56-51 15-102 9-145-24l22-8c35 28 96 31 135 8 55-33 13-88-39-94-39-5-63-2-96 21l-23-7c33-24 54-29 94-31M2747 2928q46-3 85 19c34 24 48 43 27 80-13 26-89 55-111 39-1-7-1-7 1-14 6-4 8-2 17-2l6-1c17-3 65-16 60-39-13-3-46 0-63-1l-3-4c-1-7-2-7 1-13 6-4 59-2 70-2-27-49-55-33-87-45-4-6-2-9-3-17M2783 3357c83-6 92 68 2 66l-21-5c-8-1-2 11-11 19-7 1-9 0-16-2-2-10 0-48 0-60q-1-11 5-18 8-1 16 4c5 2 19-3 25-4"/><path fill="#e7e6e2" d="M2780 3370c7 0 18-1 24 1q13 3 21 14c2 15-6 18-19 24-17 2-33 0-44-15-2-15 7-18 18-24"/><path fill="#0f100d" d="M3208 3356h2c83-4 84 74-9 66q-6-3-14-4c-7 5-4 9-10 18-6 2-8 1-14 0-5-4-6-68 0-77 8-3 4-2 14-2l8 6c9-4 13-5 23-7"/><path fill="#f4f5f3" d="M3202 3370h22q15 3 24 15c3 14-7 18-18 23-17 3-35 2-46-15-1-14 7-17 18-23"/><path fill="#0f100d" d="M2905 2928c145 0 170 120 29 140-7 0-24 2-29-3 0-6 0-7 2-13 26-5 81-9 88-45 9-51-52-55-87-62q-4-8-3-17M2615 3357c71-4 97 50 28 66-66 8-105-49-28-66"/><path fill="#e7e6e2" d="M2614 3371c32-4 69 16 29 37-17 4-33 3-44-12-4-15 3-19 15-25"/><path fill="#060e04" d="M3358 3202c19-1 75-1 67 39-2 8-18 18-26 21-61 12-104-36-41-60"/><path fill="#e7e6e2" d="M3364 3212c37-3 62 23 25 41l-15 1c-25-1-38-25-10-42"/><path fill="#0f100d" d="M3451 3357c83-5 89 58 14 67-18 2-38-7-52-19-3-6-2-7-4-14 9-18 70 0 83-9-11-23-57-3-74-9l1-3c12-11 16-10 32-13"/><path fill="#e7e6e2" d="M3435 3397c10-1 47-3 54 1l-2 5c-18 10-39 12-52-6"/><path fill="#0f100d" d="M3328 3357c79-5 89 56 15 67-17 2-39-7-52-19q-7-9-4-20c13-4 62 1 80-1v-3c-16-28-59 4-72-8l1-4c11-10 17-10 32-12"/><path fill="#e7e6e2" d="M3312 3397c12-1 47-4 54 2l-3 6c-16 7-41 10-51-8"/><path fill="#0f100d" d="M3574 3356c79-4 91 56 18 68-18 2-40-6-54-18-4-8-5-10-6-18 7-9 67-1 83-5l-1-3c-14-19-51-3-72-7v-3c12-11 16-11 32-14"/><path fill="#e7e6e2" d="M3558 3397c11-1 47-3 55 1l-2 5c-19 10-40 12-53-6"/><path fill="#0f100d" d="M3377 2958c30-2 65 0 81 28 14 23-9 38-28 45-24 9-53 8-77-2q-7-2-10-8l4-3c22-11 43 13 64 4 64-29-3-67-52-38l-19-9c15-10 21-12 37-17"/><path fill="#070706" d="M3107 3203c20-1 21 0 36 15 5 6 18 12 26 8 2-8 0-16 5-22 6-3 7-2 14-2 4 6 2 49 2 60-14 7-64 3-77-11-4-16 8-18 21-22-9-7-22-17-27-26"/><path fill="#e7e6e2" d="M3136 3238c10 0 24-2 33 2 5 5 3 2 2 11l-3 2h-8c-9 0-22 2-28-4-1-7-1-4 4-11"/><path fill="#0f100d" d="M2899 3356q21-3 40 5c21 10 28 38 18 58q-10 5-22 3c0-18 5-38-7-51-60-14-30 30-42 49q-11 3-22 2c-2-37-7-56 35-66M2662 3202c24-1 51 4 45 40-2 10-12 17-21 22-25 1-50-6-44-40q5-15 20-22"/><path fill="#e7e6e2" d="m2671 3209 10 4c11 13 9 31-2 43-25-4-24-34-8-47"/><path fill="#0f100d" d="M3053 3357c13-1 44-1 54 8l-1 3c-19 14-45-12-61 7 4 13 43 2 62 19 6 19-12 24-25 28-13 1-43 2-54-5v-5c11-11 34 4 53-3 3-5 3-2 2-8-17-8-53-3-63-20 1-17 19-22 33-24"/><path fill="#070706" d="M3682 3357c14-1 47-1 57 7v5c-15 10-46-8-62 4 2 12 62 6 65 32-5 9-17 13-26 17-12 1-53 4-57-8 12-13 47 5 56-9-4-15-47-4-63-23-3-18 17-22 30-25M2814 3202c13 0 41-2 45 13-1 9-4 10-8 17-7 9 5 8 6 20-4 6-8 7-15 11-13 2-36 4-43-10 1-11 8-14 7-20-15-17-15-21 8-31"/><path fill="#e7e6e2" d="M2820 3210c10 0 15 0 21 8 0 8 0 5-6 12-9 0-18 0-22-10 2-6 3-6 7-10M2818 3239q10-2 18 3c4 7 3 3 2 12q-11 3-20-2c-3-7-3-3 0-13"/><path fill="#0f100d" d="M3434 3203c20-1 17-2 28 14h36c5-8 12-18 22-15l2 5q-3 13-12 24c-13 22-29 52-52 16z"/><path fill="#e7e6e2" d="M3467 3226q12-1 23 2c0 7-2 7-6 14l-3 4c-6-3-10-13-14-20"/><path fill="#0f100d" d="M3616 3225c8-8 25-28 38-22 0 11-18 23-26 31l29 29c-23 4-26-4-41-20-14 14-16 17-34 23l-4-3c3-10 18-22 26-30-7-6-27-22-30-30 24-2 26 5 42 22"/><path fill="#070706" d="M2729 3203q7-2 13 1l7 10c10 1 28-1 35 6v5q-11 15-26 26l-2 2-2 2c-7 7-11 11-21 9-10-8-1-27-6-38-7-2-5 0-10-4v-5c12-5 11-4 12-14"/><path fill="#e7e6e2" d="M2746 3224c8 0 12-1 20 1v3l-5 6q-6 6-13 8c-4-6-2-9-2-18"/><path fill="#0f100d" d="M2968 3202c15-1 38-3 45 14-10 4-26-8-42-2q-10 13 3 22c6 1 19-5 26-7 6 1 4 0 8 5q1 14-3 28c-9 3-43 3-53-1l-1-3c9-15 35 5 40-12l-2-2c-13 0-31-1-39-14q-3-6-1-13 7-11 19-15M2872 3203c12 0 56-3 63 3-3 14-34 21-44 41l1 3c18 6 23-6 44-3-8 21-46 21-61 10-9-21 23-36 38-44-11-1-33 3-41-3zM2966 3358c48-10 46 35 43 68-4 5-4 4-13 6l-8-3-2-5c-6-4-11-5-12-13 15-17 20-35-5-45z"/><path fill="#070706" d="M3076 3202q8-1 15 2c7 14 3 42 3 60-13 0-59 2-67-3l1-3c4-5 1-4 10-4s32 1 37-3c1-8 2-6-1-12-14-4-30 5-39-5l1-3c8-4 30-3 40-3zM3210 3202c11 0 10-1 16 4 5 13 0 27 8 34 32 3 17-22 23-35 7-4 9-4 16 0l1 7c0 9 1 26-2 35-13 4-50 3-61-7-3-9-1-28-1-38"/><path fill="#0f100d" d="M2698 3359c9-1 12-3 19 1 7 11 3 39 3 56q-11 2-21-1c-2-12-1-43-1-56"/><path fill="#070706" d="M3539 3203c8-1 9-2 16 2 6 13 3 41 3 59q-9 1-16-2c-8-13-4-42-3-59M2700 3424q10-3 18 2c3 6 3 3 1 11-8 0-10 0-18-2-4-6-2-3-1-11M3194 2669c105-2 215-1 320-1v98h-320z"/><path fill="#374698" d="M3218 2675h285c0 15 3 74-2 84l-6 1-290-1c0-23-2-59 1-81 5-4 4-2 12-3"/><path fill="#070706" d="M3708 3730c14 0 50-3 60 2 8 4 3 14 11 16 9 2 21-2 28 5 8 8 4 122 4 141-1 38-28 14-36 25-5 6-1 11-10 19-15 1-44 3-58-4-10-5-3-14-11-16-14-2-21 2-32-8-2-16-1-136 0-154 11-14 22-3 34-10 3-12 2-11 10-16"/><path fill="#2d2c2d" d="M3679 3754c22 0 103-2 117 3 2 6 3 21 3 27-1 18 6 115-3 126h-122c-1-39-1-110 1-151z"/><path fill="#a7a8a6" d="M3712 3918c16 0 31-3 46 1 5 5 4 3 4 13-15 0-32 3-46-1-5-5-3-3-4-13M3707 3739c13-2 42-4 55 0q3 2 4 8c-13 1-44 3-56-1z"/><path fill="#120703" d="M2488 3738h114c0 25 1 54-1 78h-115c0-20-2-59 2-78"/><path fill="#a97557" d="m2498 3745 93-1v65l-93-1zM3629 2693l102-1h23v49c-47 2-105 0-153-1l1-47z"/><path fill="#070706" d="M3731 2692h23v49c-47 2-105 0-153-1l1-47h27c-8 5-5 3-15 4 22 5 12 16 14 35l10 2h80c2-16-3-29 3-39z"/><path fill="#b1b1af" d="M3614 2697c22 5 12 16 14 35-5 2-6 2-11 2-9-8-8-27-3-37M3728 2699c9 0 7-2 14 2 4 9 2 23 2 33q-8 1-14-2c-5-9-2-22-2-33"/><path fill="#070706" d="m3629 2693 102-1-10 3c-6 10-1 23-3 39-2-13-2-22-2-35h-78v35l-10-2c-2-19 8-30-14-35 10-1 7 1 15-4"/><path fill="#e7e6e2" d="M2490 3891c16 1 32-1 47 3l63 1v42c-16 0-70-1-83 1q-13 2-28 2c2-18 2-31 1-49"/><path fill="#060e04" d="M2490 3891c16 1 32-1 47 3h-39v26c-2 18 5 18 19 18q-13 2-28 2c2-18 2-31 1-49"/><path fill="#bfbab1" d="M2507 3899c12 0 82-2 87 1 2 5 2 24 2 32q-44 4-90 1z"/><path fill="#f4f5f3" d="M2509 3572h98c1 17 4 26-10 37-18 4-25-2-40 0-41 6-48 7-48-37"/><path fill="#2d2c2d" d="M2521 3579c13 0 28-4 34 7l-3 17c-11 3-19 5-28-3-4-8-3-12-3-21M2565 3579c11-1 24-4 31 5 0 8-1 11-3 18-10 2-15 4-25-2q-4-9-3-21"/><path fill="#f4f5f3" d="M3684 3552h96c0 16 4 26-10 37-24 4-35-8-64 5-20 9-23-26-22-42"/><path fill="#2d2c2d" d="M3695 3559c11-1 29-4 34 7-1 9 0 9-4 17-26 8-31 0-30-24M3740 3558c11 0 23-3 29 7 0 8-1 9-3 17-10 1-15 3-23-4q-5-8-3-20"/><path fill="#2a2006" d="M2438 2679c40-5 59 42-7 45-24 3-45-15-25-39 13-4 18-5 32-6"/><path fill="#dfb96a" d="M2431 2682c16 0 27 0 36 15 1 15-8 17-21 21-17 0-27 0-37-15-1-15 10-17 22-21"/><path fill="#e5b657" d="M2429 2690c11-1 23-2 25 12-4 7-3 5-11 9-10 1-23 0-24-13 3-5 4-5 10-8"/><path fill="#f4f5f3" d="M2500 3683c14-3 79-1 97-1 0 15 2 25-9 37-12 14-32 6-43-5-7-3-34 15-44 11 11-10 41-17 43-32-11-12-35 3-44-10"/><path fill="#060e04" d="M2554 3688h32c0 11 0 15-2 26-27 9-30-3-30-26"/><path fill="#e7e6e2" d="M2304 2710c14 0 67-6 64 17q-5 6-14 9l-3 1c1 8 14 10 17 23-26-3-12-23-49-22-7 5 0 13-6 21-6 0-3 1-8-3z"/><path fill="#2d2c2d" d="M2314 2716c14-1 27-3 39 2 5 7 3 3 3 11-10 3-30 8-39 0-3-2-2-10-3-13"/><path fill="#f4f5f3" d="M3705 3608h8l1 3-9 8c-7 6-11 9-12 18q8 6 19 6c14 0 17-20 26-28q12-8 26-4c27 9 20 28-1 38-7 0-4 1-10-3 7-6 18-14 17-24-22-19-32 18-46 27-11 8-34 0-39-12q-3-7 0-15c4-9 12-11 20-14M2527 3624q3 0 4 3c-6 8-24 14-18 27 28 22 31-19 47-26 31-12 60 24 16 38l-4-1v-3c7-6 18-13 15-23-27-22-31 23-48 27-31 9-63-28-12-42M2552 3828l7 2c5 6 3 9 5 18 9 3 31 3 40 1q3-6 2-17c4-4 2-3 8-3l3 3c1 11 1 40-1 50l-8-3q-3-12-2-23h-43c0 11 0 13-3 23l-4 2c-5-10-4-41-4-53M2495 3829c11-1 36 0 39 13-11 4-31-14-53-3q-5 4-5 10c-1 28 19 26 39 25 8-6 8-11 19-9v3c-35 42-114-22-39-39"/><path fill="#e7e6e2" d="m2411 2741 6 2q4 7 1 13l-1 3c3 3 28 2 34 2 3-3 1-11 2-18l3-1 3 2 1 10q6 2 9 6c-3 5-5 4-12 5l-1 1c-2 8-2 5 1 14-4 3-19 2-25 2-23 1-8-9-17-18l-14-1-1-4c13-6 11-5 11-18"/><path fill="#f4f5f3" d="m3771 3656 9 5v38c-3 4-1 3-7 4l-3-3q1-8-2-15c-10-3-41-1-54-1-11 0-20 2-30-2v-2c15-7 61-1 83-3q4-9 4-21"/><path fill="#bfbab1" d="M3857 2711c15 0 44-1 57 1l2 2c-4 3-14 2-22 3-3 5-2 15-2 22 0 6 2 16-5 20l-3-2c-5-6-3-32-2-41q-13 1-24-1z"/><path fill="#e7e6e2" d="M3948 2710c11 3 13 22 11 33-5 19-21 18-37 14-3-5-4-5-3-11 6 1 8 5 16 8 8-1 5 1 10-5 4-10 3-27 3-39M2608 3893l5 4c2 12 2 30-2 42l-4-4c-1-13-1-30 1-42"/><path fill="#a7a8a6" d="M3625 3579v509h-845c-25-1-65 1-88-1-5-5-3-4-4-12l1-55v-440h659l184 1c22 0 75 1 93-2"/><path fill="#070706" d="M3262 3688h125v42h-125z"/><path fill="#2d2c2d" d="M3275 3695h100l-1 28-101 1c0-9-1-22 2-29"/><path fill="#070706" d="M2940 3688h121v42c-23 2-95 0-121 0z"/><path fill="#2d2c2d" d="m2952 3696 98-1v28c-30 2-68 1-98 1z"/><path fill="#070706" d="M2315 3965c-24-4-67-34-86-51-49-45-33-110-33-166-1-47-6-91-2-139 4-40-7-82 2-122 2-12 3-30 3-43l1 1 1 20 2 1c7-21-9-54 4-69q9-2 17 1l-18 1c-2 12 1 48 1 63l4 3q-12 5-11 17c9 10 21 7 34 7h124c-28 2-139-2-151 4l1 51h80c34 0 138-6 136 51-1 58-97 52-138 52l-78-1v57l83 1c41 0 94-5 125 25 30 29-10 68-41 72-55 6-112 3-167 5-1 27-5 50 9 75 39 70 135 94 210 96 82 3 167-1 249 1 0-47-4-382 4-401 15-5 134-5 156-3v-34h51v33q42 2 85 1v-33l48-1c-1 11-5 33 10 35 9-8 8-13 8-24l-1-10 48-1c0 16-3 25 7 36h4c11-11 9-20 8-36h58v34h25v-34l61-1c-1 13-3 26 6 35 13-1 10-25 10-34 19-1 32-1 50 1-1 13-4 24 7 34 14-1 11-25 10-34h49c-1 10-4 38 12 36 12-12 9-19 9-36l68-1-10 3-1 2 1 29 1-3 2-21q-2 14 2 26c8 6 19 0 29 1 34 3 102-6 132 2-18 3-71 2-93 2l-184-1h-659v440l-1 55-1 5v3l-2 3v3h-2q0-13-4-23H296c-50 0-91 2-140-7l4-3 31 2c59 5 118 3 178 3l450-1 1169 1h381c99 0 208-2 307 0l-1-75c-56 1-264 5-305-7l-12-3z"/><path fill="#b1b1af" d="M3412 3546c14 0 32 1 46-1l1 29h-47z"/><path fill="#e5b657" d="M2205 3725c2-6 1-10 5-14 36-3 119-4 153 2 69 11 70 66-5 85-35 2-110 2-148-2q-3-1-5-7c2-6 2-6 7-9-1-6 0-3-3-8l-1-12z"/><path fill="#dfb96a" d="M2205 3725q6 2 11 3c14-2 32 10 32 26l-3 13c-8 6-25 16-26 22 10 12 123-4 139 9-35 2-110 2-148-2q-3-1-5-7c2-6 2-6 7-9-1-6 0-3-3-8l-1-12z"/><path fill="#120703" d="M2205 3725q6 2 11 3c30 17 31 43-4 52-1-6 0-3-3-8l-1-12z"/><path fill="#2d2c2d" d="M2208 3760c0-8-2-17 3-23l5-2c16 10 14 35-7 37z"/><path fill="#120703" d="M2324 3782c-5 2-17 0-22-2-27-13-25-42 2-52 32-12 76-8 91 26 6 13-12 20-23 21-19 7-27 7-48 7"/><path fill="#dfb96a" d="M2324 3782c-5 2-17 0-22-2-27-13-25-42 2-52 32-12 76-8 91 26 6 13-12 20-23 21 38-32-9-49-37-49-35 0-65 33-26 50z"/><path fill="#f4f5f3" d="M2329 3733c40-4 71 26 20 43-19 1-50-3-45-28 7-11 12-12 25-15"/><path fill="#e5b657" d="m2207 3552 132-1c66-1 113 56 36 84-20 6-145 6-167 3l-2-4c1-16 23-15 30-28 8-13-2-27-14-32-15-7-14-8-15-22"/><path fill="#120703" d="M2355 3568c22-4 54 21 34 43-19 19-51 18-75 14-41-6-29-65 4-56z"/><path fill="#dfb96a" d="M2355 3568c22-4 54 21 34 43-19 19-51 18-75 14-41-6-29-65 4-56-42 22-34 49 12 53 44 5 89-28 25-54"/><path fill="#f4f5f3" d="M2326 3575c18-1 49 0 49 24-6 11-11 13-23 17-18 2-49 0-49-24 5-12 11-13 23-17"/><path fill="#a7a8a6" d="M3199 3546h37v28h-36zM3115 3546h35v28h-34z"/><path fill="#b1b1af" d="M3341 3546h29l-1 28h-28zM3276 3546h28v28h-28z"/><path fill="#a7a8a6" d="M2848 3546h28v28h-28z"/><path fill="#b1b1af" d="M3048 3546h27v28h-27zM2983 3546h27v28h-28z"/><path fill="#060e04" d="M2209 3575c16 9 24 17 12 35-8 4-4 3-11 2-4-9-1-26-1-37"/><path fill="#070706" d="M235 0h3624c15 3 28 2 42 6-11 4-9 1-20 1h-78l-452 2c-15 0-146 3-151 0h3c-26 2-60 0-87 0l-149-1H708q-194 3-389-2c-14 0-99 2-107-3 10 0 13-1 23-3"/><path fill="#f4f5f3" d="M2159 2818q18-2 35 0c3 5 2 2 2 9-8 8-17-3-17 9v328l1 564v237h135l43 11q-28 3-55 2c-43 2-96-3-137 1l-5-4c-5-11-2-111-2-130-3-113-1-244 0-358l-1-443v-143c0-24-1-60 1-83"/><path fill="#e5b657" d="M2224 3398h2c35 3 195-16 189 47q-2 11-10 19c-9 9-15 13-27 17-31 10-107 5-145 6l1 2c-13 0-25 3-34-7q0-12 11-17l-4-3c0-15-3-51-1-63z"/><path fill="#dfb96a" d="M2224 3398h2c35 3 195-16 189 47q-2 11-10 19c1-13 7-17 1-29-15-30-55-33-85-32l-99 2c-2 16 26 13 26 35 0 18-29 30-29 40 32 7 84 3 117 3 11 0 35-5 42-2-31 10-107 5-145 6l1 2c-13 0-25 3-34-7q0-12 11-17l-4-3c0-15-3-51-1-63z"/><path fill="#120703" d="M2207 3462c0-15-3-51-1-63 2 8 0 11 7 17 10 7 24 12 26 25 3 27-30 19-32 41l1 3q13 3 25 2l1 2c-13 0-25 3-34-7q0-12 11-17z"/><path fill="#2d2c2d" d="m2207 3462 2-38c10 0 17 10 18 19-3 12-7 14-16 22z"/><path fill="#120703" d="M2285 3454c-5-27 4-35 30-43 25-7 107 11 73 49-6 6-19 11-29 10l-17 1c-14 0-24-3-38-7q-10-1-19-10"/><path fill="#dfb96a" d="M2285 3454c-5-27 4-35 30-43 25-7 107 11 73 49-6 6-19 11-29 10 34-18 41-40-1-52-31-9-92 5-54 46q-10-1-19-10"/><path fill="#f4f5f3" d="m2324 3422 9-1c17-1 41 4 43 24-5 11-12 14-22 19-19 1-51 0-52-25 5-10 12-12 22-17"/><path fill="#070706" d="M2954 2650q17 3 36 2c13-1 102-2 110 0h20l526-1h131c40 0 77-1 117 6 76 13 179 59 175 151q-3 65-4 130-2 6-2 13c-3-32 1-76-4-100l-2-14-1-12c1-6 1-28-2-33v-2c1-5 1-6-1-12q-9-30-31-52c-80-75-194-67-294-67l-220 1h-723c-11-2-23 0-31-5l2-3c59-8 136 7 198-2M4059 2970l4-6h3l4 92c-1 9-3 32-5 37l-4 1-4-4-1-50-1-7 2-17-2-6z"/><path fill="#4c4d4d" d="m2358 3976 12 3c-16 3-183 2-204 0 41-4 94 1 137-1q27 1 55-2"/><path fill="#b1b1af" d="M2954 2650c9-3 28-5 36 2q-19 1-36-2M3100 2652l2-4q11-2 18 4z"/><path fill="#347b27" d="m3504 330 2-5c11-3 123-1 142-1h224c28 0 129-3 147 3 4 5 3 6 3 14v1109l1 212q1 45-1 90 0 6-5 8c-23 5-444 3-450 1l-1-5 1-5c0-12 2-14-9-18l-6 9q11 19 5 41c0 10 1 9-4 14-15 2-120 3-128-2-2-14-4-45 2-58l-3-2-7 2q-3 9-1 19c-1 4 0 2-3 5-13 2-97 2-109 0l-2-4c-7 13-5 24-7 39-13 3-111 2-133 1l1-47-3-1v7h-1q1-8-2-14l-3 2-2-4v16c-1 4 0 2-4 5-13 2-96 3-106 0l-2-5 1-11c-5-8-2-6-10-9l-7 8 8 6-1 4 1 44h-133v-38c-4-7 0-15 2-21l-3-4c-12 4-9 9-8 22l-2 4c-10 2-52 1-64 1h-570v-27c-14 12-4 13-6 31l-1 31c-36 3-96 1-133 0v-45c-2 8-2 27-2 36-1-15-1-20-7-34l-1 2c-1 4 0 2-3 5-13 2-97 3-107-1l-2-4c-6 12-4 16-5 28l-2-15-1 29h-133v-47c2-6 1-4 5-9l-6-9c-12 5-7 11-8 23-1 4 0 3-3 5-14 2-96 3-107 0l-2-5v-15l-2-12c0 10 2 11-2 18q-5 2-6 3c2 10 1 36 1 47-38 2-93 1-132 1v-48l7-7-9-10-5-1c-4 3-3 1-5 6l2 16v5c-8 5-94 4-109 3l-4-3-3 4h-3l-1-5-1 5v34c-37 3-94 1-133 1l1-49c4-3 2-1 4-7l-6-10-6-2q-4 4-3 13l1 14-2 4c-12 2-101 3-111-1l-2-6c-4 10-4 14-5 25-1 7 0 9-3 16-10 5-113 3-131 2v-46c-2-8 1 1 3-11l-5-7-6-1c-5 7-3 15-2 24-1 4 0 2-3 5-14 2-96 3-107 0l-2-5c-1-8 1-31-2-35-5 4-4 6-5 13l-11 11 8 5c2 13 2 34 1 48-39 0-94 2-132 0-2-9-1-40-1-50l8-5-9-9c-14 4-6 15-7 28H678l-4 1c-5 10 0 23-5 36-13 6-117 2-141 2-9-6 1-24-7-36l1-2c-20-3-95 2-108-2l-2-5c-8 15 1 34-8 43-17 5-86 3-107 3v-2c10 0 33 1 41-2h-65c-2-10-1-40-1-51l3-8-4-3-5-2c-6 4-4 15-4 22l-1 5c-12 5-116-1-135 1-9 2-43 0-51-4q-4-10-3-22V513c0-54-3-132 1-184q7-7 17-6l200 1h2659c23 0 260-2 267 1l1 8 1 4c27 0 275 2 285-2z"/><path fill="#060e04" d="M174 366c17-17 28-22 52-23h3625c31 0 72-1 72 39l1 102v696c0 91-2 194 1 285-19 30-49 25-80 26q-49-1-98-1h-279v135c-1 37-23 43-57 44H963l-517-1-154 1q-44 1-87-2-22-3-34-22c-3-69-1-145-1-214v-385l-1-412c0-40-3-250 5-268"/><path fill="#4c4d4d" d="M182 1230V469c0-26-2-82 4-103q16-16 38-15l146-1h3484c18 0 58 0 59 26v167l1 320v580c-1 10 0 23-8 30q-12 10-26 10-71 2-142 1h-282v98c0 22 4 56-10 73-22 11-174 7-210 7H762q-261 0-523-1c-15 0-54 0-55-20-5-99 0-203-2-302-2 2-1 1-5 1-4-10-2-110-2-128 2 8 4 11 7 18"/><path fill="#070706" d="M175 1212c2 8 4 11 7 18v109c-2 2-1 1-5 1-4-10-2-110-2-128"/><path fill="#bfbab1" d="M290 381c10-2 55-1 68-1h3234c42 0 203-5 235 5q27 8 39 33v983l-1 2c-26 46-81 37-126 37h-124c-45 0-166-10-197 21l-8 13c-6 25-2 95-2 125a69 69 0 0 1-56 34q-58 2-117 1H304c-20 2-69-15-72-38-3-28-2-69-2-99l1-229V690l-1-249c0-41 23-54 60-60"/><path fill="#3b6935" d="m3504 330 2-5c11-3 123-1 142-1h224c28 0 129-3 147 3 4 5 3 6 3 14v1109l1 212q1 45-1 90 0 6-5 8c-23 5-444 3-450 1l-1-5c11-4 398-2 444-2l-1-565-2-3c-4-274-1-551-4-826q0-12-5-23c-15-3-92-2-110 0l1 3c19 8 29 6 39 28l1 3 4-7v45l-2-6c-2 32 0 69 2 101v858c0 24 5 56 1 80-5 22 4 30-22 45-9 5-42 14-51 12l18-4c-28 2-60 6-86 2 3-1 11 0 13-2-25-2-67 4-94-2 6-1 31 0 35-3q49 0 98 1c31-1 61 4 80-26-3-91-1-194-1-285V484l-1-102c0-40-41-39-72-39H226c-24 1-35 6-52 23l-1-5c13-18 23-14 32-23-12 2-17-4-30-2-26 3-52-1-79-1-13 20-4 322-7 367-1 17 2 53-1 72h-2v980c22 0 167-2 176 2l-1 5c-12 5-116-1-135 1-9 2-43 0-51-4q-4-10-3-22V513c0-54-3-132 1-184q7-7 17-6l200 1h2659c23 0 260-2 267 1l1 8 1 4c27 0 275 2 285-2z"/><path fill="#f4f5f3" d="m262 1756-1 5c-12 5-116-1-135 1-9 2-43 0-51-4q-4-10-3-22V513c0-54-3-132 1-184q7-7 17-6l200 1h2659c23 0 260-2 267 1l1 8c-23-3-79-2-105-2l-196 1H810c-240 0-485-4-724 0v1422c22 0 167-2 176 2M3504 330l2-5c11-3 123-1 142-1h224c28 0 129-3 147 3 4 5 3 6 3 14v1109l1 212q1 45-1 90 0 6-5 8c-23 5-444 3-450 1l-1-5c11-4 398-2 444-2l-1-565c2-26 1-71 1-100V891q1-280-1-559c-124-2-250 1-374 0-17-1-121 1-131-2"/><path fill="#354d0f" d="M2887 1720c0-10-2-8 2-15 7-4 21-1 30-2-5-4-17-3-20-5 19-1 135 1 148 5-2 6-2 22-2 30 5 2 3 2 8 1v2q1 8 7 12c13 2 21-4 37 0 9 3 31-1 41-2 6-8-1-41 12-41 22 0 153-2 164 4 1 12 0 28 3 37 8 7 20-1 30-1 15 0 47 8 58-4 1-11-8-18-2-29s23-9 34-9l1-2-10-2 1-2c28-1 57 4 84 6l58 1c-1 11-1 38-4 47 0-12 2-14-9-18l-6 9q11 19 5 41c0 10 1 9-4 14-15 2-120 3-128-2-2-14-4-45 2-58l-3-2-7 2q-3 9-1 19c-1 4 0 2-3 5-13 2-97 2-109 0l-2-4c-7 13-5 24-7 39-13 3-111 2-133 1l1-47-3-1v7h-1q1-8-2-14l-3 2-2-4v16c-1 4 0 2-4 5-13 2-96 3-106 0l-2-5 1-11c-5-8-2-6-10-9l-7 8 8 6-1 4 1 44h-133v-38c-4-7 0-15 2-21l-3-4c-12 4-9 9-8 22l-2-2z"/><path fill="#b1b1af" d="m3297 1733 2-9 2-1c3 8 2 23 2 32l-1 2c-7 13-5 24-7 39-13 3-111 2-133 1l1-47-3-1v7h-1q1-8-2-14l-3 2-2-4c0-6 0-4 3-8l5 1c5 7 12 17 17 21 5-1 5-1 9-4l8-7 8-3q29-13 56 2c8 4 10 9 20 13 3-1 13-15 17-20z"/><path fill="#2a2006" d="m3297 1733 2-9 2-1c3 8 2 23 2 32l-1 2c-7 13-5 24-7 39v-32l-7-2c-17 7-37-22-60-23-23 0-38 26-58 24-6-4-4-4-7-13l-3-1v7h-1q1-8-2-14l-3 2-2-4c0-6 0-4 3-8l5 1c5 7 12 17 17 21 5-1 5-1 9-4l8-7 8-3q29-13 56 2c8 4 10 9 20 13 3-1 13-15 17-20z"/><path fill="#a7a8a6" d="M3288 1762c2-5 1-7 5-9 2 5 2 5 2 11z"/><path fill="#b1b1af" d="M3496 1733q15 4 30 10 8 9 15 10l9-9 2-2q11 19 5 41c0 10 1 9-4 14-15 2-120 3-128-2-2-14-4-45 2-58 8 8 8 10 13 20 21-17 28-20 56-24"/><path fill="#2a2006" d="M3496 1733q15 4 30 10 8 9 15 10l9-9 2-2q11 19 5 41 0-13-2-25c-24 21-32-22-67-18-27 4-43 35-61 14-4 13-1 26-2 41-2-14-4-45 2-58 8 8 8 10 13 20 21-17 28-20 56-24"/><path fill="#b1b1af" d="M2901 1739c7 5 8 8 12 15 21-8 44-29 69-18 8 4 28 17 35 17q2-5 7-9l8 6-1 4 1 44h-133v-38c-4-7 0-15 2-21"/><path fill="#2a2006" d="M2901 1739c7 5 8 8 12 15 21-8 44-29 69-18 8 4 28 17 35 17q2-5 7-9l8 6-1 4-3 2-3 7c-21 7-42-33-70-22-14 5-38 24-49 22l-5-10-2 7c-4-7 0-15 2-21"/><path fill="#ebc84c" d="M3158 1711c20 0 128-3 138 2q-1 11 1 20l-2 2c-4 5-14 19-17 20-10-4-12-9-20-13q-27-14-56-2l-8 3-8 7c-4 3-4 3-9 4-5-4-12-14-17-21q2-11-2-22"/><path fill="#e5b657" d="M3186 1750q-18-8-14-26c15-13 83-3 107-2 2 6 2 4 1 9-20 11-69-16-86 12z"/><path fill="#dfb96a" d="M2898 1735v-22l2-2c13-1 126-2 134 3v6l-1 14-2 2-7 8q-5 4-7 9c-7 0-27-13-35-17-25-11-48 10-69 18-4-7-5-10-12-15z"/><path fill="#e5b657" d="M2963 1717c15-3 56-8 63 10-8 27-36 3-54 3-19-6-52 7-61-4l2-5c7-5 40-4 50-4M3421 1711c18 0 130-2 138 3l-1 19-6 9-2 2-9 9q-7-1-15-10-15-7-30-10c-28 4-35 7-56 24-5-10-5-12-13-20l-3-2c2-11-1-14-3-24"/><path fill="#dfb96a" d="M3421 1711c18 0 130-2 138 3l-1 19-6 9-2 2-9 9q-7-1-15-10c14 0 27 0 26-18-3-6-2-5-8-8-15-7-93 1-105 6-2 7-1 3 0 11q7 5 15 7l2-1c16-10 21-11 40-7-28 4-35 7-56 24-5-10-5-12-13-20l-3-2c2-11-1-14-3-24"/><path fill="#f4f5f3" d="M3303 1755c15-1 105-3 113 1-1 4 0 2-3 5-13 2-97 2-109 0l-2-4zM3040 1756c9-3 102-4 112 0-1 4 0 2-4 5-13 2-96 3-106 0z"/><path fill="#060e04" d="M3034 1720c9 2 8 6 7 15v10c-5-8-2-6-10-9l2-2z"/><path fill="#354d0f" d="M942 1705c1 13 0 35 7 45 12 3 78 0 92-2 6-9 3-34 9-44l17-3-3-1c27-4 115-6 140 3 1 20 1 29-1 49l-2 2c-4 10-4 14-5 25-1 7 0 9-3 16-10 5-113 3-131 2v-46c-2-8 1 1 3-11l-5-7-6-1c-5 7-3 15-2 24-1 4 0 2-3 5-14 2-96 3-107 0l-2-5c-1-8 1-31-2-35-5 4-4 6-5 13l-11 11 8 5c2 13 2 34 1 48-39 0-94 2-132 0-2-9-1-40-1-50l8-5-9-9c-14 4-6 15-7 28l-3-8-1-49c48-3 108-1 156 0"/><path fill="#b1b1af" d="M1075 1757c42-31 65-31 105 1 4-13 5-14 15-24l6 2q2 7 2 16l-2 2c-4 10-4 14-5 25-1 7 0 9-3 16-10 5-113 3-131 2v-46c-2-8 1 1 3-11q7 6 10 17"/><path fill="#2a2006" d="M1075 1757c42-31 65-31 105 1 4-13 5-14 15-24l6 2q2 7 2 16l-2 2c-4 10-4 14-5 25l-1-15h-6c-29 0-30-23-60-25-19 0-43 24-58 25-12-7 1-3-9-13-2-8 1 1 3-11q7 6 10 17"/><path fill="#bfbab1" d="m1189 1764 2-10 2-1c2 5 2 5 2 11z"/><path fill="#b1b1af" d="M811 1757c73-51 88 1 106-3l5-9 8 5c2 13 2 34 1 48-39 0-94 2-132 0-2-9-1-40-1-50l8-5z"/><path fill="#2a2006" d="M811 1757c73-51 88 1 106-3l5-9 8 5c-4 9-2 9-9 13-22 2-38-30-64-23-17 4-38 27-53 22l-2-2c0-7 0-7-4-12l8-5z"/><path fill="#a7a8a6" d="M798 1748c4 5 4 5 4 12-4 10-1 25-3 38-2-9-1-40-1-50"/><path fill="#dfb96a" d="M1060 1733v-4q0-9 1-18c22-1 115-2 134 0v23a44 44 0 0 0-15 24c-40-32-63-32-105-1q-3-11-10-17z"/><path fill="#ebc84c" d="M1068 1716c17-2 110-3 118 9q-1 12-13 15c-26-19-65-11-91 5l-8-8c-7-7-7-10-6-21M795 1711c19 0 123-2 136 1 4 10-3 10 2 22l-11 11-5 9c-18 4-33-48-106 3l-5-14-9-9c0-10 0-13-2-23"/><path fill="#e5b657" d="M887 1717c12-1 25-4 35 3q2 6 0 13c-19 18-40-11-70-3-16 1-27 12-40 4-1-6 0-7 1-12 15-3 57-5 74-5"/><path fill="#f4f5f3" d="M940 1756c10-3 102-3 112 0-1 4 0 2-3 5-14 2-96 3-107 0z"/><path fill="#30300a" d="M2105 1705c26 0 135-3 155 1-3 14-4 34-5 48l-1 8v-27c-14 12-4 13-6 31l-1 31c-36 3-96 1-133 0v-45c-2 8-2 27-2 36-1-15-1-20-7-34l-1 2c-1 4 0 2-3 5-13 2-97 3-107-1l-2-4c-6 12-4 16-5 28l-2-15-1 29h-133v-47c2-6 1-4 5-9l-6-9c-12 5-7 11-8 23l-1-2v-49c45-1 103-3 148 2 16 1 9 28 16 40 13 7 75 4 90 0 8-7 8-30 10-42"/><path fill="#b1b1af" d="m2114 1752 3 1 3 9c19 9 46-36 76-20 14 8 28 24 42 21 5-4 5-4 7-10l-1 5 4 2v6l-1 31c-36 3-96 1-133 0zM1851 1751l3 2 3 9c20 8 45-34 75-20 19 9 27 25 48 21l4 3 1 3-1 29h-133z"/><path fill="#ebc84c" d="m2114 1735-1-24c13-1 131-1 136 2l-1 5c8 6 7 7 6 17-14 12-4 13-6 31v-6l-4-2 1-5c-2 6-2 6-7 10-14 3-28-13-42-21-30-16-57 29-76 20l-3-9-3-1c-2 8-2 27-2 36-1-15-1-20-7-34-1-7-3-18 3-23z"/><path fill="#2a2006" d="M2248 1718c8 6 7 7 6 17-14 12-4 13-6 31v-6l-4-2 1-5c-2 6-2 6-7 10-14 3-28-13-42-21-30-16-57 29-76 20l-3-9-3-1c-2 8-2 27-2 36-1-15-1-20-7-34-1-7-3-18 3-23l6 4c8 9 9 10 14 21 29-21 54-31 86-11 5 3 17 11 22 6q11-14 12-33"/><path fill="#e5b657" d="M2145 1717c16-1 81-3 90 5 1 9-7 15-16 15l-1-3c-16-1-26-7-46-6-17 2-34 13-47 4-2-11 13-14 20-15"/><path fill="#ebc84c" d="M1850 1733v-4q0-9 1-17c9-2 129-3 135 0 3 10-9 40-19 43l-11-8c-33-25-63-11-92 10q-2-9-8-15z"/><path fill="#e5b657" d="M1899 1717c14-1 60-3 69 6-1 8 0 8-4 14-9 1-23-5-32-8q-32-1-62 5l-4-4c0-8-1-5 3-10q14-4 30-3"/><path fill="#f4f5f3" d="M1992 1756c9-4 102-4 112 0-1 4 0 2-3 5-13 2-97 3-107-1z"/><path fill="#a7a8a6" d="m1980 1763 1-8 2-1c2 6 1 6 1 12z"/><path fill="#3b7330" d="M3232 1669c10 0 33-1 42 4-45 5-82 8-127 1-10-2-33-1-44-1h-703c-29 0-62 4-93 3-9-1-23 1-30 1l-1-4c-16-2-64 0-83 0l-104 1-623-1-69 1c-19 1-64 6-80 4l-13-1v-1h26c-21-4-51-2-73-3-73-1-146 4-219 5l1-5-3 5-4-1 2-1-1 1 5-3c-12-2-72 0-85 1h5c-31 2-58 6-89-1-5-1-29 2-35 2-87 3-173-4-259-2l-148 1q-67-1-134-1c-39 1-90 9-122-18-10-8-7-27-7-40l-1 4q3-69-1-139c0-33 3-72 2-106q-3-24-3-46v1c4-21 2-48 3-70 0-10-5-21-4-35 6-127 4-258 3-385V526c0-16 3-143 0-150l-2-7c5-8 0 2 12-8l1 5c-8 18-5 228-5 268l1 412v385c0 69-2 145 1 214q12 19 34 22 44 3 87 2l154-1 517 1h2269"/><path fill="#354d0f" d="M86 774h2c4 29 2 71 2 101v200q-3 292 4 583c0 20-9 78 1 89 18 5 138 1 156-2 8-8-2-30 10-42q9 1 14-2v-3c10-7 40 4 53 3 22-1 73-7 93-1-2 3-1 2-5 4l3 7q-1 12 1 23l6-8 2 1c-4 13-8 11-7 20 12 8 92 9 103-1l-1 8 2 3-3 6c-20-3-95 2-108-2l-2-5c-8 15 1 34-8 43-17 5-86 3-107 3v-2c10 0 33 1 41-2h-65c-2-10-1-40-1-51l3-8-4-3-5-2c-6 4-4 15-4 22-9-4-154-2-176-2z"/><path fill="#b1b1af" d="M285 1757c23-17 46-30 75-18q14 7 28 16l4-3c4-9 6-11 13-17l6 1q4 9 1 20c-8 15 1 34-8 43-17 5-86 3-107 3v-2c10 0 33 1 41-2h-65c-2-10-1-40-1-51l3-8q7 6 10 18"/><path fill="#2a2006" d="M285 1757c23-17 46-30 75-18q14 7 28 16l4-3c4-9 6-11 13-17l6 1q4 9 1 20c-8 15 1 34-8 43-17 5-86 3-107 3v-2c10 0 33 1 41-2l66-1 1-39-5 2c-14 14-38-18-59-21-23-3-50 34-65 21 0-7 0-7-4-13l3-8q7 6 10 18"/><path fill="#a7a8a6" d="m400 1760 1-7h3l1 5zM272 1747c4 6 4 6 4 13-4 9 0 24-3 38-2-10-1-40-1-51"/><path fill="#ebc84c" d="M268 1711h88c12 0 38-1 49 1v23c-7 6-9 8-13 17l-4 3q-14-9-28-16c-29-12-52 1-75 18q-3-12-10-18l-4-3q0-13-3-25"/><path fill="#f4f5f3" d="M412 1756c8-4 97-2 111-2l2 3-3 6c-20-3-95 2-108-2z"/><path fill="#3b7330" d="M2260 1706q10 16 0 31l2 3 6-6c2 5 2 3 0 8 12 9 123 3 147 3l311 2 90-1c13 0 61 5 66-9l5-17 1 35 2 2-2 4c-10 2-52 1-64 1h-570l1-8c1-14 2-34 5-48"/><path fill="#f4f5f3" d="M2255 1754h572c11 0 52-1 61 1l2 2-2 4c-10 2-52 1-64 1h-570z"/><path fill="#060e04" d="M525 1757c0-8-2-17 3-23h6c9 8 10 12 14 23 28-21 55-34 87-12 7 5 10 9 18 10 5-9 7-12 14-19l2-2 5 1q3 14 0 28c-5 10 0 23-5 36-13 6-117 2-141 2-9-6 1-24-7-36l1-2z"/><path fill="#b1b1af" d="M535 1797v-44h2q2 6 5 10c13 3 34-19 52-23 32-7 43 28 66 23l4-5 2-6q3 3 3 10l-1 35c-34 3-98 1-133 0"/><path fill="#a7a8a6" d="m664 1758 2-6q3 3 3 10z"/><path fill="#b1b1af" d="m1722 1735 3-7 3 1c0 10 2 11-2 18q-5 2-6 3c2 10 1 36 1 47-38 2-93 1-132 1v-48l7-7 6 14c22-16 44-30 74-19 10 4 17 12 28 16l5-2c4-9 5-11 13-17"/><path fill="#2a2006" d="m1722 1735 3-7 3 1c0 10 2 11-2 18q-5 2-6 3c-2 6-2 7-6 12-15 4-33-14-49-21-27-11-52 29-71 20l-4-8-1-3 7-7 6 14c22-16 44-30 74-19 10 4 17 12 28 16l5-2c4-9 5-11 13-17"/><path fill="#b1b1af" d="M1326 1749c4 10 2 10 9 14 19 0 38-26 60-24 21 2 35 28 55 24l4-5 4 5v34c-37 3-94 1-133 1z"/><path fill="#ebc84c" d="M1324 1732c1-7 0-9-1-16l2-5c28-1 106-2 133 0 2 11-1 15 1 23l8 4-1 18v3l-3 4h-3l-1-5-1 5-4-5-4 5c-20 4-34-22-55-24-22-2-41 24-60 24-7-4-5-4-9-14 4-3 2-1 4-7z"/><path fill="#2a2006" d="M1338 1757c27-20 53-34 84-13 7 4 13 10 21 10 6-9 7-11 15-19l1-1 8 4-1 18v3l-3 4h-3l-1-5-1 5-4-5-4 5c-20 4-34-22-55-24-22-2-41 24-60 24-7-4-5-4-9-14 4-3 2-1 4-7 5 4 5 8 8 15"/><path fill="#a7a8a6" d="m1454 1758 1-7h2l2 7-1 5z"/><path fill="#e5b657" d="M1334 1716c30 0 77-2 106 2 4 6 3 3 2 10-5 4-4 3-11 3q-24-1-47-1c-18 2-60 29-50-14M531 1711c25 0 118-2 136 1 3 7 0 11 1 18l1 4-2 2c-7 7-9 10-14 19-8-1-11-5-18-10-32-22-59-9-87 12-4-11-5-15-14-23q1-12-3-23"/><path fill="#dfb96a" d="M1587 1733c0-5-1-18 1-22h132c4 5 1 16 2 24-8 6-9 8-13 17l-5 2c-11-4-18-12-28-16-30-11-52 3-74 19l-6-14z"/><path fill="#e5b657" d="M1654 1715c15-4 52-4 60 14 0 8 1 4-4 10-19 5-30-7-49-10-17 2-30 2-46 8-7 2-18-7-15-17 12-7 38-5 54-5"/><path fill="#354d0f" d="M524 1746c-2-11-3-26 0-37 9-8 134-5 154-4 0 13 0 37-2 50l2 7-4 1q3-14 0-28l-5-1-1-4c-1-7 2-11-1-18-18-3-111-1-136-1q4 12 3 23h-6c-5 6-3 15-3 23l-2-3zM1313 1754c0-13-3-39 4-48 18-4 126-2 151-1 1 13 0 20-1 33l-8-4c-2-8 1-12-1-23-27-2-105-1-133 0l-2 5c1 7 2 9 1 16l-6-2q-4 4-3 13l1 14zM1577 1705h154q2 19-1 36l-2-12-3-1-3 7c-1-8 2-19-2-24h-132c-2 4-1 17-1 22l-5-1c-4 3-3 1-5 6-2-6 0-26 0-33"/><path fill="#3f862d" d="M3468 1625c5-16 1-44 5-52 2 5-2 42 9 65-10 35-65 50-95 34-6 0-7 0-13 2v-2c12-5 31 2 37-3 34-1 56-7 57-44"/><path fill="#f4f5f3" d="M676 1755c14-2 92-1 111-1l3 8H678zM1203 1760l1-3c7-5 95-3 109-3l3 3-2 4c-12 2-101 3-111-1M1466 1756c9-4 98-2 113-2v5c-8 5-94 4-109 3l-4-3zM1730 1756c9-4 94-2 111-2l1 2c-1 4 0 3-3 5-14 2-96 3-107 0z"/><path fill="#060e04" d="m3625 1528-3-2c8-9 10-10 23-11q43-3 87-1 79-2 158-1 8 1 14 5c20 16 9 58 10 81l1 64c0 4-2 20-5 23s-13 9-18 9h-73c-56-1-117 2-172-3l-3-1c-4-2-17-7-18-12-3-50 2-101-1-151"/><path fill="#3b7330" d="m3625 1528-3-2c8-9 10-10 23-11q43-3 87-1 79-2 158-1 8 1 14 5c20 16 9 58 10 81l1 64c0 4-2 20-5 23s-13 9-18 9h-73c-56-1-117 2-172-3l-3-1q21-3 42-1c31-1 195 5 212-6q6-2 7-9c3-13 2-120 1-136q-1-8-4-14-6-4-13-5c-31-6-103-2-138-2s-73-3-108 1q-10 2-18 9"/><path fill="#2d2c2d" d="M3639 1526c31-2 228-3 251 2 5 10 6 143 2 154-33 2-75 1-108 1q-74 1-146-2c-1-23-6-138 1-155"/><path fill="#070706" d="M3751 1549c109-6 160 86 35 111-32 2-61 1-89-16-22-13-36-39-19-62 17-22 47-30 73-33"/><path fill="#bfbab1" d="M3759 1557c92-6 132 83 11 97-109-1-118-90-11-97"/><path fill="#070706" d="M3761 1565c88 1 97 73 7 80-87 0-98-73-7-80"/><path fill="#2d2c2d" d="M3759 1573c61-5 90 50 14 65-72 4-93-56-14-65"/><path fill="#070706" d="m1295 2050 82 1 1 15c1 6 2 20 6 23q15 3 28-3c5-7 3-15 2-25l3 20c2-6 1-17 2-23 19 0 43 1 61-2l1 38 8 2 1 3 2-1c0-3 0-2 2-5q19-4 36 3l3-1-1-37h62v37l9-1q22-4 44 2l1-1c-3-10-2-26-2-38l62 1-1 37 3 2c10-6 15-5 26-6 7 2 10 1 14 5 2 24 2 59 2 84v369c0 17 1 126-3 133-15 1-25 0-39-3l-3 5-1 44h-60v-44l-3-4-7 1c-11 2-29 2-40-1-4 10-1 34-3 48-12 0-49 2-59-1l-2-5c-2-14 1-27-1-42-13 4-36 3-49 0l-2 3v45h-60v-47l-2-3c-14 6-26 4-40 4l-7-3-4 6v41l-1 2h-60c-2-14 1-33-1-50-18 6-30 5-48 1l-3 4-1 45c-16 0-45-1-61 1v-46l-3-3-10 2h-7c-9 0-10 0-19-2h-11l-2 7-1 41c-16 0-44-1-59 1v-49h-3l-9 2q-19 1-37-1l-1-2c-16-17-52-19-68-1-10 7-29 4-42 4 4 8 5 42 1 49-6 3-66 3-76 3-10-10-2-37-8-50-6 1-3 1-9-1l-7-1c-25 14-1 39-16 51-6 1-7 1-12-1 2-3 1-2 5-4h-59v-30l-3-19c-14 4-22 3-37 3-5-11-3-107-3-128v-349c0-13-2-102 2-109q7-5 17-5l13 1 7 4 3-1c-3-9-2-29-2-39 18 3 45 2 63 2 1 10 0 28 2 35l5 2c15-6 36 2 44 0v-38l62 1v36c7 1 5 0 9 4l2 2 3-7q13-3 26 0 3-21 1-43c19 0 60-1 81 1l3 4c2 11 0 22 4 29 10 7 11 0 17 5l-3 4q18 0 23 2v-37h62l-1 35c22 4 27-5 54 4v-2c-2-7-1-29-1-37h62v36c4 1 28-2 35-2 8-11 6-28 6-42"/><path fill="#3b7330" d="M1328 2642c76-3 160 2 236 0 35 0 72 2 106-2 8 4 9 4 19 6l3 3 16 9c5 11 6 10 3 20l-1 1-3 5-1 44h-60v-44l-3-4-7 1c-11 2-29 2-40-1-4 10-1 34-3 48-12 0-49 2-59-1l-2-5c-2-14 1-27-1-42-13 4-36 3-49 0l-2 3v45h-60v-47l-2-3c-14 6-26 4-40 4l-7-3-4 6v41l-1 2h-60c-2-14 1-33-1-50-18 6-30 5-48 1l-3 4-1 45c-16 0-45-1-61 1v-46l-3-3-10 2h-7c-9 0-10 0-19-2h-11l-2 7-1 41c-16 0-44-1-59 1v-49h-3l-9 2q-19 1-37-1l-1-2c-16-17-52-19-68-1-10 7-29 4-42 4 4 8 5 42 1 49-6 3-66 3-76 3-10-10-2-37-8-50-6 1-3 1-9-1l-7-1-17-1-2-3 4-1 2 3h3l2-4c2-20-15-25-31-31h-2v-4q44 2 87 1h461"/><path fill="#b1b1af" d="M861 2667c21-1 37-4 54 11l1 1 4 3c4 8 5 42 1 49-6 3-66 3-76 3-10-10-2-37-8-50-6 1-3 1-9-1h12l7-5c5-5 7-7 14-11"/><path fill="#070706" d="m847 2678 3 7 1 43c15 0 47 3 58-3q3-5 2-14c4-7-2-21 3-29h6c4 8 5 42 1 49-6 3-66 3-76 3-10-10-2-37-8-50-6 1-3 1-9-1h12z"/><path fill="#30300a" d="M861 2667c21-1 37-4 54 11l1 1 4 3h-6c-5 8 1 22-3 29-5-22 12-39-34-38-11 0-21 1-27 12l-3-7c5-5 7-7 14-11"/><path fill="#b1b1af" d="M1530 2678c15-16 53-17 66 0v2c-4 10-1 34-3 48-12 0-49 2-59-1l-2-5c-2-14 1-27-1-42z"/><path fill="#30300a" d="M1530 2678c15-16 53-17 66 0v2c-4 10-1 34-3 48-1-12 2-42-4-48-8-11-44-8-54 1-3 8-2 30-3 41-2-14 1-27-1-42z"/><path fill="#b1b1af" d="M1304 2677c16-15 54-16 67 2l-4 6v41l-1 2h-60c-2-14 1-33-1-50z"/><path fill="#30300a" d="M1304 2677c16-15 54-16 67 2l-4 6c-8-19-44-12-59-5-1 12 0 37-2 48-2-14 1-33-1-50z"/><path fill="#b1b1af" d="M1192 2683c14-14 49-14 62 0l-1 45c-16 0-45-1-61 1zM1646 2684c12-15 54-15 61 0l-1 44h-60zM1080 2680c14-9 53-14 60 7l-1 41c-16 0-44-1-59 1zM1420 2681c16-10 46-13 60 2v45h-60z"/><path fill="#ebc84c" d="M1644 2658c20-10 26-9 48-9l16 9c5 11 6 10 3 20l-1 1-3 5c-7-15-49-15-61 0l-3-4-7 1c-3-7 0-22 8-23"/><path fill="#30300a" d="M1636 2681c-3-7 0-22 8-23q-4 7-3 15c16 1 46-20 70 5l-1 1-3 5c-7-15-49-15-61 0l-3-4z"/><path fill="#ebc84c" d="M1188 2679c-11-46 90-33 69 0l-3 4c-13-14-48-14-62 0z"/><path fill="#30300a" d="M1188 2679c11-10 18-13 33-12l24 1q7 4 12 11l-3 4c-13-14-48-14-62 0z"/><path fill="#ebc84c" d="M1422 2654c21-5 26-6 47-3 8 5 10 6 16 14q3 7-2 13l-1 2-2 3c-14-15-44-12-60-2l-2-3v-1l-4-6q1-9 8-17"/><path fill="#30300a" d="M1418 2677c16-15 50-16 65 1l-1 2-2 3c-14-15-44-12-60-2l-2-3z"/><path fill="#ebc84c" d="M1076 2678c-13-35 58-37 69-11 0 8 1 5-3 11v2l-2 7c-7-21-46-16-60-7h-3z"/><path fill="#30300a" d="M1076 2678c15-14 55-18 66 0v2l-2 7c-7-21-46-16-60-7h-3z"/><path fill="#347b27" d="m1469 2651-6-6c17 0 43-2 58 4 7 9-3 12-1 23 4 5 2 3 7 6h3l1 2c-13 4-36 3-49 0l1-2q5-6 2-13c-6-8-8-9-16-14"/><path fill="#3f862d" d="m1378 2682 12-5q-6-4-7-9c-4-14-12-15-25-23 3-1 65 0 72 1h1q-6 2-9 8-7 8-8 17l4 6v1c-14 6-26 4-40 4"/><path fill="#ebc84c" d="M962 2678c-4-6-3-2-4-10 13-32 92-20 72 11-16-17-52-19-68-1"/><path fill="#347b27" d="M1315 2642h13c-33 8-27 24-39 35-14 2-30-24-43-30l-6-3c19 1 58 3 75-2"/><path fill="#ebc84c" d="M1304 2677c-4-7-3-3-3-11 10-21 59-22 73-2 1 7 1 9-3 15-13-18-51-17-67-2M847 2678c-3-6-2-6-1-12 14-25 79-23 70 13l-1-1c-17-15-33-12-54-11-7 4-9 6-14 11M1527 2678c-1-44 85-33 69 0-13-17-51-16-66 0z"/><path fill="#3f862d" d="m1011 2645 84-1-2 3c-8 2-8 2-15 6h-2q-9 10-16 22c-25 0-15-3-33-21-2-3-12-7-16-9M918 2648c10-2 33 2 45 3-9 9-9 9-15 20v2c-5 4-11 2-18 2l-15-23z"/><path fill="#3b6935" d="m715 2091 13 1 7 4v3c1 11 1 13 8 22-12 16-5 75-7 98q1 135 1 268c0 33-2 99 1 129l18 16 24 9v4h2c16 6 33 11 31 31l-2 4h-3l-2-3-4 1 2 3 17 1c-25 14-1 39-16 51-6 1-7 1-12-1 2-3 1-2 5-4h-59v-30l-3-19c-14 4-22 3-37 3-5-11-3-107-3-128v-349c0-13-2-102 2-109q7-5 17-5"/><path fill="url(#b)" d="m715 2091 13 1 7 4v3c1 11 1 13 8 22-12 16-5 75-7 98q1 135 1 268c0 33-2 99 1 129l18 16c-8 9-23 24-36 23-9-13-4-63-4-79 2-81-2-162 1-244q2-68-4-137c-1-19 3-65-3-80-2-12-1-14 5-24"/><path fill="#347b27" d="M738 2616c-3-1-2-1-5-5l-2-27c5-104-7-207 0-311 1-12 0-44 5-54q1 135 1 268c0 33-2 99 1 129"/><path fill="#f4f5f3" d="M699 2682c-5-11-3-107-3-128v-349c0-13-2-102 2-109q7-5 17-5c-6 10-7 12-5 24-4 132-1 275-1 408v156c-5 3-5 2-10 3"/><path fill="#b1b1af" d="M736 2678c14-17 52-16 66 0l2 3 17 1c-25 14-1 39-16 51-6 1-7 1-12-1 2-3 1-2 5-4h-59v-30l-3-19z"/><path fill="#070706" d="M799 2691c2-8 0-5 5-10l17 1c-25 14-1 39-16 51-6 1-7 1-12-1 2-3 1-2 5-4 2-7 1-28 1-37"/><path fill="#30300a" d="M736 2678c14-17 52-16 66 0l2 3c-5 5-3 2-5 10q1-7-5-13c-15-9-41-9-53 5-2 2-2 11-2 15l-3-19z"/><path fill="#ebc84c" d="M736 2678c-13-33 65-46 70-1l-4 1c-14-16-52-17-66 0"/><path fill="#3b7330" d="M1710 2097c10-6 15-5 26-6 7 2 10 1 14 5 2 24 2 59 2 84v369c0 17 1 126-3 133-15 1-25 0-39-3l1-1c3-10 2-9-3-20l-16-9-3-3c-10-2-11-2-19-6 13-4 17-6 29-12 7-9 12-13 12-25v-424l-1-48c0-4-6-10-8-13q8-8 8-21"/><path fill="#f4f5f3" d="M1736 2091c7 2 10 1 14 5 2 24 2 59 2 84v369c0 17 1 126-3 133l-13-3c3-14 2-62 2-80v-395c0-22 1-95-2-113"/><path fill="#3f862d" d="m1699 2628 21-7c9 8 12 41 7 52l-4 1q-6-6-10-15c-4-2-2-2-5-1l-16-9-3-3c-10-2-11-2-19-6 13-4 17-6 29-12"/><path fill="#3b7330" d="m1295 2050 82 1 1 15c1 6 2 20 6 23q15 3 28-3c5-7 3-15 2-25l3 20c2-6 1-17 2-23 19 0 43 1 61-2l1 38 8 2 1 3c-4 3-332 4-339-1-11 8-92 3-111 2l-5-4-6 5c-32 2-65-1-98 0l-8-1 3-7q13-3 26 0 3-21 1-43c19 0 60-1 81 1l3 4c2 11 0 22 4 29 10 7 11 0 17 5l-3 4q18 0 23 2v-37h62l-1 35c22 4 27-5 54 4v-2c-2-7-1-29-1-37h62v36c4 1 28-2 35-2 8-11 6-28 6-42"/><path fill="#b1b1af" d="m1295 2050 82 1 1 15c1 6 2 20 6 23q15 3 28-3c5-7 3-15 2-25l3 20 3 15c-23-6-30-2-50-1h-3c-15 1-47 2-62 0-8 0-8 0-16-3 8-11 6-28 6-42"/><path fill="#070706" d="m1295 2050 82 1 1 15c1 6 2 20 6 23q15 3 28-3c5-7 3-15 2-25l3 20 3 15c-23-6-30-2-50-1h-3v-38h-62v38c-8 0-8 0-16-3 8-11 6-28 6-42"/><path fill="#b1b1af" d="M953 2050c19 0 60-1 81 1l3 4c2 11 0 22 4 29 10 7 11 0 17 5l-3 4q-15 2-26-1c-4-6-3-24-3-33-4 53-13 37-62 36l-12-2q3-21 1-43"/><path fill="#070706" d="M953 2050c19 0 60-1 81 1l3 4c2 11 0 22 4 29 10 7 11 0 17 5l-3 4q-15 2-26-1c-4-6-3-24-3-33-8-3-52-2-62-2v38l-12-2q3-21 1-43"/><path fill="#b1b1af" d="M1192 2058h62v36c-12 3-48 3-61 1-2-7-1-29-1-37M1419 2058c19 0 43 1 61-2l1 38c-16 3-45 2-61 2l-3-15c2-6 1-17 2-23M1078 2058h62l-1 35-4 2c-10 3-47 1-57 0zM736 2056c18 3 45 2 63 2 1 10 0 28 2 35l5 2v4l-6 1c-24 3-38 5-57 21-7-9-7-11-8-22v-3l3-1c-3-9-2-29-2-39"/><path fill="#ebc84c" d="M735 2099c18 0 44 4 59-1h6v2c-24 3-38 5-57 21-7-9-7-11-8-22"/><path fill="#695323" d="M799 2058c1 10 0 28 2 35l5 2v4l-6 1v-2h-6c-15 5-41 1-59 1v-3l3-1 43 3c21 2 17-28 18-40"/><path fill="#b1b1af" d="M1532 2058h62v37h-61zM1646 2057l62 1-1 37c-14 1-44 2-59 0-3-10-2-26-2-38M850 2057l62 1v36c-17 3-44 2-62 1z"/><path fill="#3b7330" d="M1492 2098c0-3 0-2 2-5q19-4 36 3l3-1h61l9-1q22-4 44 2l-4 3-28 2c-15 1-115 4-123-3"/><path fill="#a39974" d="M1533 2095h61l9-1-1 5c-9 2-60 1-72 1v-4z"/><path fill="#695323" d="M1648 2095c15 2 45 1 59 0l3 2q1 13-8 21c-29-19-54-16-87-17l28-2 4-3z"/><path fill="#3f862d" d="M806 2095c15-6 36 2 44 0 18 1 45 2 62-1 7 1 5 0 9 4-11 5-101 3-115 1z"/><path fill="#b1b1af" d="m787 2108 66-1 107 1h354l234-1 109 1q27 1 42 23c3 91 0 195 0 287v185c-1 25-26 30-46 32H884q-50 1-99-2-20-3-33-16c-5-21-3-87-3-111v-300c0-23-2-55 1-78 12-13 20-16 37-20"/><path fill="#070706" d="M1574 2147c51-3 74 40 14 51-52 3-74-40-14-51"/><path fill="#bfbab1" d="M1168 3607c79 3 178 0 258 0h418v371h-272v-96h221v-148c0-25 1-60-1-85-3 9-3 25-3 36 0-9 0-32-3-38h-4c-2 74 0 154 0 229h-221l1 94h-110c0-16 4-84-4-93l-8-1-4 5 4 3c2 11 1 75 1 94h-273c3-120 1-251 0-371"/><path fill="#f4f5f3" d="M1168 3607c79 3 178 0 258 0h418v371h-272v-96h221v-148c0-25 1-60-1-85-3 9-3 25-3 36 0-9 0-32-3-38h-4c-19 3-51 2-71 2l-111-1h-369v228h209l-4 5 4 3c2 11 1 75 1 94h-273c3-120 1-251 0-371"/><path fill="#070706" d="M1220 3642c53 0 566-2 572 2v5c-3 9-3 25-3 36 0-9 0-32-3-38h-4c-19 3-51 2-71 2l-111-1h-369v228h209l-4 5c-13 2-58 1-73 1h-143z"/><path fill="#070706" d="M1360 3785h70l-1 70-70 1z"/><path fill="#bfbab1" d="M1371 3792h47v57h-47z"/><path fill="#070706" d="M1582 3784h70v72h-70z"/><path fill="#bfbab1" d="m1593 3791 49 1v57h-49z"/><path fill="#e7e6e2" d="M331 3707c14 0 66-2 74 4l2 5c2 6 4 27 0 34l-1-26c-1 11-2 16-1 27 6 5 36 4 43 0l12-1 8 6 5-4-1-28h47v27c7 4 33 2 41 1h2c10 2 6 2 14-1 0-10-1-15 1-25l4-2c10-3 35-7 44 0 8 6 5 20 5 30 10 0 35 1 42-3l52 1q5 3 12 1l2 3c-22 1-78-3-97 2h143c14 0 57 1 69-1l4-5q-1-11 3-17l6 1 4-2 5 1c9 20-3 233 2 267 1 7 2 34-5 39-9-7-7-51-7-64-4 5-2 54-2 65-55 3-112 0-168 0H284c-32 1-74 5-106 0 1-12 3-81-1-87 0 12 0 77-3 84l-4 1-4-3c-2-6-3-291 0-301l6-2 4-3 4-3c32 0 95-2 124 1 3 4 2 16 2 23 8 4 30 2 38-2l1-27-3 3c-5 1-3 2-6 0q-5-8-5-19"/><path fill="#070706" d="M331 3707c14 0 66-2 74 4l2 5c2 6 4 27 0 34l-1-26c-1 11-2 16-1 27 6 5 36 4 43 0l12-1 8 6 5-4-1-28h47v27c7 4 33 2 41 1h2c10 2 6 2 14-1 0-10-1-15 1-25l4-2c10-3 35-7 44 0 8 6 5 20 5 30 10 0 35 1 42-3l52 1q5 3 12 1l2 3c-22 1-78-3-97 2q-226 2-453 0v250h666v-166c0-19 1-68-1-85l4-5q-1-11 3-17l6 1 4-2 5 1c9 20-3 233 2 267 1 7 2 34-5 39-9-7-7-51-7-64-4 5-2 54-2 65-55 3-112 0-168 0H284c-32 1-74 5-106 0 1-12 3-81-1-87 0 12 0 77-3 84l-4 1-4-3c-2-6-3-291 0-301l6-2 4-3 4-3c32 0 95-2 124 1 3 4 2 16 2 23 8 4 30 2 38-2l1-27-3 3c-5 1-3 2-6 0q-5-8-5-19"/><path fill="#e7e6e2" d="m172 3734 4-3c7 8 5 10 3 20l-3 3c4 56-1 141 1 201 0 12 0 77-3 84l-4 1-4-3c-2-6-3-291 0-301z"/><path fill="#060e04" d="m172 3734 4-3c7 8 5 10 3 20l-3 3c-1-10 1-13-4-20"/><path fill="#e7e6e2" d="m870 3734 5 1c9 20-3 233 2 267 1 7 2 34-5 39-9-7-7-51-7-64 1-73-4-172 1-241zM176 3731l4-3c32 0 95-2 124 1 3 4 2 16 2 23-24-4-95 1-127-1 2-10 4-12-3-20M581 3724h44v27h-49c0-10-1-15 1-25zM357 3724h49c-1 11-2 16-1 27l-48 1zM472 3724h47v27l-46 1z"/><path fill="#e7e6e2" d="M331 3707c14 0 66-2 74 4l2 5h-3c-16 1-50-4-59 7l-3 3c-5 1-3 2-6 0q-5-8-5-19"/><path fill="#bfbab1" d="M242 4014h557l1 24H242z"/><path fill="#e7e6e2" d="M188 4014h41v19c-11 3-28 4-38-1-5-7-3-8-3-18M813 4014c13 0 27-3 37 2 5 7 3 8 4 18-13 0-29 3-38-2-5-7-3-8-3-18"/><path fill="#f4f5f3" d="M2925 2114c71-4 47 24 70 33 42 17 95 33 140 49 57-23 122 24 48 49l1 94c72 24 13 73-50 50q-68 21-134 46c-22 8-8 20-44 32-17 2-26 2-43-3-11-3-23-25-24-26-40-16-103-37-144-51-54 26-122-23-49-47v-95c-70-23-15-71 49-49 27-9 114-37 135-47l3-2c19-9 2-22 42-33"/><path fill="#070706" d="M2977 2160c45 17 95 31 140 51 6 2-2 23 39 35v92c-13 4-29 6-33 21l-2 7-1 4c-8 12-118 45-138 52-12-6-15-7-27-11l-1-101c68-26 3-70-50-43-24 25 3 37 24 43v100c-12 4-16 6-28 12l-119-40c-43-15-2-31-58-43v-93c45-9 33-33 40-36 45-18 95-34 141-49q36 18 73-1"/><path fill="#f4f5f3" d="M3031 2216c18 1 43 17 52 32 29 48 0 80-38 104-7 0-8 1-15-3l-1-4c4-7 22-19 28-27 33-38 5-66-27-89-5-3-4-2-5-7zM2841 2216c7 1 12 1 14 9-6 8-22 14-32 28-40 54 27 78 30 95l-5 5-7-1c-73-31-68-103 0-136"/><path fill="#f4f5f3" d="M2875 2236c8 0 10 0 15 5-2 9-24 25-27 37-6 25 16 31 27 47q0 4-3 9-28-2-43-26-9-17-3-35c5-19 17-28 34-37M2990 2238c14-2 31 4 39 15 24 34 8 59-19 78q-10 5-18-3c1-9 24-26 25-39 4-20-17-30-28-43q-1-2 1-8"/><path fill="#070706" d="M113 3134c74 1 166-3 237 1 5 5 1 17 5 17 23 3 68 3 90 0l-14-1c13-2 19-6 31-1q7 2 10 9c3 21 1 48 1 70 15-1 89-2 99 1 0 14 2 99-3 107l-7 1c-25 2-63 1-89 1v87c-22 1-155 3-165-2 2 8 3 7 1 15-7 9-21 9-32 8-12-1-83 2-88-1l1-3c19 2 47 0 67 0-43-2-87 3-129 0q-10 1-17-7c-8-12-5-135-2-157 2 21-3 69 3 88 2-19 1-61 1-80z"/><path fill="#e7e6e2" d="M113 3134c74 1 166-3 237 1 5 5 1 17 5 17 23 3 68 3 90 0l1 72h-40v-48l-90 1v-25H208v24h-50v148c14 0 37-2 47 6 2 6 1 3 0 10 8 10 97 5 115 6q-1-12 2-23c13-2 68-1 84-1v-90l38-2v106h-90v37c-25 0-234 1-240-2l-2-4c2-19 1-61 1-80z"/><path fill="#f4f5f3" d="M558 3265c6 6 3 61 2 71l-2 1 4 1c-25 2-63 1-89 1v87c-22 1-155 3-165-2l3-3c35-2 122-1 150-1v-87c30-2 67-1 97-1z"/><path fill="#f4f5f3" d="M462 3150q7 2 10 9c3 21 1 48 1 70 15-1 89-2 99 1 0 14 2 99-3 107l-7 1-4-1 2-1c1-10 4-65-2-71v-30c-16 0-86 3-97-1v-6q0-39 1-78"/><path fill="#f4f5f3" d="M462 3150q7 2 10 9c3 21 1 48 1 70 15-1 89-2 99 1-16 2-87 1-105 0l-2-2h-4q0-39 1-78"/><path fill="#a7a8a6" d="M219 3159h86v24l89 1 1 131h-79l-6 2q-3 10-2 21c-16 0-83 5-92-4v-11c-12-8-31-6-46-5v-134l49-1z"/><path fill="#070706" d="M265 3269h44v26l-44 1z"/><path fill="#b1b1af" d="M274 3276h19c6 4 4 3 6 12h-18c-7-4-5-2-7-12"/><path fill="#070706" d="M265 3210h45l-1 25h-44z"/><path fill="#b1b1af" d="M274 3216h19c6 4 4 2 6 12h-18c-7-4-5-2-7-12"/><path fill="#a7a8a6" d="M366 3343h82v70l-151-1v27c-32 2-71 1-104 0l-80 1v-60h252zM456 3242h90v82h-89c-2-25-1-56-1-82"/><path fill="#b1b1af" d="M362 2571v2c-5 4-22 5-30 7-57 13-112 4-168-11-52-13-104-63-90-120 5-21 40-54 59-62 25-10 93-39 118-30 41 2 64 0 104 11 115 31 161 134 33 192-6 3-22 8-26 11m-60-26c168-27 108-163-49-150-35 5-74 15-97 45a51 51 0 0 0-3 55c30 47 100 56 149 50"/><path fill="#070706" d="M362 2571v2c-5 4-22 5-30 7-57 13-112 4-168-11-52-13-104-63-90-120 5-21 40-54 59-62 25-10 93-39 118-30-54 8-115 21-150 67-33 44-11 94 31 121 59 38 137 44 205 31z"/><path fill="#070706" d="M253 2395c157-13 217 123 49 150-49 6-119-3-149-50-10-16-8-40 3-55 23-30 62-40 97-45m-93 62c0 6-1 23 1 27 20 52 86 56 132 56 20-3 31-5 48-12 53-21 71-71 18-105-23-16-66-26-94-22-40 3-87 15-105 56"/><path fill="#b1b1af" d="M241 45c69-9 200 21 210 103 9 79-99 112-159 118-59 5-128-6-176-42-40-29-56-80-20-119 37-40 93-56 145-60m23 179c52-2 101-14 117-69-17-54-66-66-116-68-163 8-143 138-1 137"/><path fill="#070706" d="M250 81c37-4 81 4 112 27 28 20 38 55 14 83-21 26-59 36-91 39-41 2-85-1-118-26-59-43-20-99 36-114 18-5 28-7 47-9m14 143c52-2 101-14 117-69-17-54-66-66-116-68-163 8-143 138-1 137"/><path fill="#b1b1af" d="M3814 45c57-5 122 8 169 43 39 29 54 79 19 119-36 41-97 56-150 60-57 3-125-10-170-46-38-30-50-78-15-117 36-40 94-55 147-59m44 178c28-4 64-15 81-39 22-30 3-62-25-77-34-19-69-22-106-18-155 25-83 155 50 134"/><path fill="#070706" d="M3822 81c45-6 132 15 137 70 6 55-66 76-108 79-40 2-79-2-112-24-51-35-34-87 17-109 24-11 39-13 66-16m36 142c28-4 64-15 81-39 22-30 3-62-25-77-34-19-69-22-106-18-155 25-83 155 50 134"/><path fill="#b1b1af" d="M3833 2357c65-6 192 29 197 107 5 85-111 111-173 116-60 1-123-9-170-50-37-31-44-81-8-117 40-40 99-53 154-56m30 186c19-2 29-4 47-10 59-20 86-78 25-117-29-19-79-28-114-23-169 22-122 162 42 150"/><path fill="#070706" d="M3821 2393c35-5 85 4 114 23 61 39 34 97-25 117-18 6-28 8-47 10-164 12-211-128-42-150m25 145c43-3 87-13 110-54 2-22 2-32-14-50-19-23-77-41-106-35-22 2-34 3-55 10-51 18-77 67-26 105 24 17 60 24 91 24"/><path fill="#f4f5f3" d="M3205 56h87q14 70 24 140 9-70 26-140h84l-7 30-36 170h-107q-16-53-28-105l-24 105h-109q-19-101-42-200h84q12 65 21 131c10-38 17-88 27-131M403 2799c-5 16-2 139-2 163H117v-1c-6-7-3-141-3-161h188c27 0 76 2 101-1"/><path fill="#060e04" d="M237 2815c143-17 190 115 47 131-37 4-78 2-109-19-57-37-27-89 26-105 14-4 22-5 36-7"/><path fill="#ebc84c" d="M242 2821c125-13 175 103 32 120-129 11-173-103-32-120"/><path fill="#fceb45" d="M237 2826c31-1 83 6 105 29 12 13 11 23 10 39l-4 7c-18 23-45 29-72 33-51 8-130-11-101-80 25-19 31-23 62-28"/><path fill="#f4f5f3" d="M1770 56h84v47q22-11 48-12c16-1 43 4 54 16 17 18 10 121 10 148h-84v-38l1-73q2-20-16-24c-13 3-13 11-14 23l1 112h-83zM2413 92c31-2 76-3 104 14 26 17 24 45 24 71 0 53-12 70-63 79q-22 3-43 2c-69-1-93-17-90-87 3-57 11-68 68-79"/><path fill="#070706" d="M2437 120c7 0 8-1 15 3q5 5 4 13c-2 20 6 79-7 94-7-1-8-1-15-4q-4-7-4-15c1-21-6-77 7-91"/><path fill="#f4f5f3" d="M1557 56c40 0 142-6 177 16 11 9 15 25 16 38 4 62-31 65-83 66l-19 1c-5 5-3 67-3 79l-88-1z"/><path fill="#070706" d="M1645 91c32 1 37 16 27 45q-12 7-22 4c-8-8-5-35-5-49"/><path fill="#f4f5f3" d="M2061 93c40-3 112-7 123 44 4 16 2 28 2 43 2 53-14 67-63 76-35 5-125 8-127-45-3-67-14-106 65-118"/><path fill="#070706" d="M2083 120c7 0 10-1 17 3 7 9 6 94-2 106l-13-1q-6-2-7-9c0-20-5-84 5-99"/><path fill="#2d2c2d" d="M843 3008c10 1 24 0 33 2l-25 3 10 5c14 2 60 2 77 2q65 0 129-1l-1 122-204-1-1 5 14 3 4 2-1 3q-17 2-35 1z"/><path fill="#070706" d="M843 3008c10 1 24 0 33 2l-25 3 10 5c-1 17-3 111 1 122l-1 5 14 3 4 2-1 3q-17 2-35 1z"/><path fill="#e7e6e2" d="M843 3008c10 1 24 0 33 2l-25 3c-4 9-3 114-1 130 7 8 15 5 25 5l4 2-1 3q-17 2-35 1z"/><path fill="#f4f5f3" d="M2686 92c19-1 40-3 58 8 21 12 20 41 20 62l-1 93h-84c0-22 4-121-4-132q-16-9-25 6v126h-82V94c13 0 78-2 84 3v8l1 2c12-7 20-12 33-15"/><path fill="#070706" d="M1342 68c6 0 3-1 9 4 7 20 2 123 2 149l-2 6q0 12-4 23l-3 4c-17 6-116 9-128-6-4-17-4-159 0-174l1 1c3-2 10-7 13-7 27-3 86-3 112 0"/><path fill="#a7a8a6" d="M1351 227q0 12-4 23c-22 7-55 3-78 4-15 1-40 2-50-11-1-6-2-7 0-14 9-5 114-2 132-2"/><path fill="#b1b1af" d="M1217 75c3-2 10-7 13-7 27-3 86-3 112 0 6 7 6 7 9 16-2 6 0 4-5 7-26 2-101 3-125 1q-5-7-4-17"/><path fill="#594234" d="M1218 129h132v61l-132-1z"/><path fill="#b1b1af" d="M1218 196h132v24h-132zM1218 99l131 1 1 22c-24 0-113 2-130-1q-3-10-2-22"/><path fill="#070706" d="M1002 70c22-7 97-6 123 0 8 2 7 15 7 21l5-4c-6 28 5 147-4 163h-3c-17 6-112 8-127-1-7-7-5-12-6-23q-2-4-3-10-1-69 1-138 0-5 4-8z"/><path fill="#a7a8a6" d="M997 226c26 0 112-1 133 1q5 11 0 23c-17 6-112 8-127-1-7-7-5-12-6-23"/><path fill="#b1b1af" d="M1002 70c22-7 97-6 123 0 8 2 7 15 7 21-13 2-120 2-131 0l-3-4c0-8 0-9 4-17"/><path fill="#594234" d="M998 129h135l-1 61-133-1z"/><path fill="#a7a8a6" d="M998 196h134v24l-134 1zM1128 99c3 0 1 0 4 3q1 10-1 19c-12 3-111 1-129 1l-2-1c-3-5-2-15-2-22z"/><path fill="#070706" d="M778 196c-7-16-4-109 1-125 14-11 122-10 131-1 11 10 4 149 6 171q-1 7-6 10l-2-1c-16 6-113 8-126-3q-4-10-3-22l-2-1c4-3 117 0 135-3-18-2-111-1-133-1z"/><path fill="#b1b1af" d="M779 225c39 5 93-4 130 2 6 10 2 14-1 23-16 6-113 8-126-3q-4-10-3-22M778 196h133l1 25c-18-2-111-1-133-1z"/><path fill="#594234" d="M779 130h132v59H779z"/><path fill="#a7a8a6" d="M793 67c13-1 143-12 116 25H804q-17 1-27-8c3-11 7-13 16-17M780 100l131-1v23c-18 1-118 2-130-1q-4-10-1-21"/><path fill="#070706" d="m446 2212-1 14c-3-11-2-159 2-165l3 1c16-4 110-4 125 1 6 6 4 6 6 17l3-12c1 15 0 157-1 159-12 12-53 13-65 7-22-1-46 4-64-4-7-3-7-11-8-18"/><path fill="#b1b1af" d="M450 2062c16-4 110-4 125 1 6 6 4 6 6 17-17 0-124 2-132-2-2-7-1-9 1-16M446 2212c27 1 110-3 131 2 3 6 2 3 2 11-10 14-45 8-61 9-22-1-46 4-64-4-7-3-7-11-8-18"/><path fill="#594234" d="M448 2116h130l1 61c-17 3-110 1-131 1z"/><path fill="#b1b1af" d="M448 2184c22 0 115-1 129 1q4 10 3 21c-22 0-114 2-130-1q-3-10-2-21"/><path fill="#a7a8a6" d="M448 2087c24 1 109-1 129 2q3 9 2 19c-17 1-118 1-129-1q-3-9-2-20"/><path fill="#070706" d="M1205 2992q3-5 10-6c28 2 98-4 119 4 11 15 6 124 6 148-13 0-31 1-43-2h-6c-13 3-74 3-88 1-9-10-3-120-3-141l2 14z"/><path fill="#b1b1af" d="M1291 3136c-14 0-76 1-83-1-5-7-6-10-3-18 8-5 113-4 128-2q5 9 3 21h-45"/><path fill="#a7a8a6" d="M1205 2992c15-5 114-6 127 0 4 6 3 6 4 13l-2 4c-12 3-112 1-132 1z"/><path fill="#594234" d="m1203 3045 133 1 1 61h-134z"/><path fill="#b1b1af" d="M1203 3018c24 0 114-2 131 1q3 9 2 19h-133z"/><path fill="#f4f5f3" d="M3006 56h47v200c-26 0-59 1-85-1 1-22 4-122-5-136-15-8-34-6-52-6V89c37-5 64-13 95-33M2221 70h85c0 9-2 19 2 26q10 3 22 2v26h-25v86q1 12 9 18 10 0 18 4 3 11 2 23c-23 1-54 2-76-1-38-5-38-29-37-60v-44c0-10 2-18-3-25-14-3-22-12-15-26q9 1 16-4 5-11 2-25M3879 1886l16 1c17 12 85 84 91 97l-3 4c-18 7-64 5-85 4-21 1-86 3-102-3l-1-4c6-18 69-85 84-99"/><path fill="#070706" d="M3876 1912h25l-7 46c-4 3-1 2-7 3l-4-3q-6-22-7-46M3876 1968l17-1c7 4 5 3 8 12l-18 1c-7-4-5-3-7-12"/><path fill="#f4f5f3" d="m2010 1886 13 1c18 12 84 82 91 98l-2 3c-17 7-64 5-85 4l-36 1c-51-3-101 14-38-48 17-18 36-43 57-59"/><path fill="#070706" d="m2005 1912 25 1-6 43c-3 5-1 3-6 5l-3-2c-7-11-9-34-10-47M2024 1967c4 2 2 1 5 5l-1 4q-6 6-16 5c-4-2-3-1-6-6l1-4c6-5 9-4 17-4"/><path fill="#f4f5f3" d="M1359 2781c38 1 63 2 65 46h-52c0-9 1-25-8-28-12 11-15 71-4 82 7 1 7 1 12-2 6-17-12-29-9-40 9-3 25-2 36-2h25l-1 62h-31c-10-11-21 1-37 2q-46 5-52-41c-4-53-1-75 56-79M1640 3451h41l29 52v-52h42v113h-45l-28-51 1 51h-40z"/><path fill="#070706" d="M900 2873c7-6-2-33 5-35 29-9 84-5 112-3q-1 20 3 38c0 8-1 26 2 32l2 1-3 2c9 4 15 1 24 4-21 3-151 2-168-3l2-3-2-1c-3-7-2-53-2-65h25z"/><path fill="#b1b1af" d="M875 2840h25v33c0 11 2 23-3 31q-7 4-18 2l-2-1c-3-7-2-53-2-65"/><path fill="#268ad6" d="M912 2840h96l-1 66h-95z"/><path fill="#f4f5f3" d="M1387 3451h53l10 59 4 4 2-1 10-62h53l-28 114h-74z"/><path fill="#4c4d4d" d="m1450 3510 4 4 2-1c0 6 0 6-2 11q-4-6-4-14"/><path fill="#f4f5f3" d="M1618 2854c-15-6-47-15-54-33-19-56 138-50 110-6-13 7-30 6-43 1l-3-12c-4-5-2-3-8-4-6 4-4 2-7 9 1 6 0 7 6 11 21 15 59 11 63 45 4 38-49 38-74 35-19-1-53-14-37-38 10-8 23-5 36-3l6 1 3 20c1-9 0-15 2-26"/><path fill="#070706" d="M1618 2854c12 6 18 11 14 24-7 4-9 5-16 2 1-9 0-15 2-26"/><path fill="#f4f5f3" d="M1442 2783c23 0 87-5 105 10 16 13 12 50-12 57q-15 3-31 2c-5 0-4 0-8 2-4 10-2 33-2 45h-52z"/><path fill="#070706" d="M1495 2802c6 1 7 0 13 4q6 13 0 27c-8 0-6 2-12-2q-4-15-1-29"/><path fill="#f4f5f3" d="M1270 3451c13 0 96-1 101 2 6 31-36 7-55 17-4 6-3 6-4 13 7 8 66-19 70 24 4 38-3 53-40 59-39 2-74 5-75-43h48c-1 10-3 23 9 28 13-8 19-46 1-53-8 1-6 1-12 9-11 3-33 2-45 1z"/><path fill="#e7e6e2" d="M1148 3988c2-37-2-284 5-295 6 9 4 76 4 93v198h192c25 0 76-1 99 1 4-5 4-8 11-8 17-1 93-3 103 2l3 6c26-2 70-1 97-1h193q0-143 1-287l3-4q5 6 5 14c1 93-3 188 0 281z"/><path fill="#f4f5f3" d="M1448 3985c4-5 4-8 11-8 17-1 93-3 103 2l3 6c-12 2-102 1-117 0"/><path fill="#b1b1af" d="m152 2969 216 1q1 14-2 28-12 5-24 4c-29-3-173 8-188-7q-3-11-2-26M161 2762l47-1c26 3 141-6 154 6q5 12 2 25l-4 1H154c0-15-3-19 7-31"/><path fill="#f4f5f3" d="M2277 1920h29l6 46 8-46h29l7 49q3-25 8-49c9 0 21-4 27 4l-1 9-11 53h-37l-8-33c-3 8-6 25-8 34h-35zM1570 3451h48v113h-49zM2475 2510h25l36 38 35-38h25v68l-22-1-3-3v-37q-16 18-36 34-18-15-35-34v41h-25zM3162 2510h24v68q-13 2-24-3v-38c-37 37-34 42-72 1v39h-24v-67h24l36 38z"/><path fill="#b1b1af" d="M962 2678c16-18 52-16 68 1l1 2-4 2 6 1c4 11 8 38 3 49q-21 2-44 0c-19 0-40 7-41-21 0-10-1-20 8-26 8 5 3 31 5 42 2-13 2-34 2-48z"/><path fill="#070706" d="m1027 2683 6 1c4 11 8 38 3 49q-21 2-44 0c-19 0-40 7-41-21 0-10-1-20 8-26 8 5 3 31 5 42h60l1-27z"/><path fill="#30300a" d="M962 2678c16-18 52-16 68 1l1 2-4 2-2 18c0-4 0-15-2-18-11-17-42-11-57-3z"/><path fill="#f4f5f3" d="M2688 1920c29 0 103-2 130 1 4 4 2 2 2 9l-3 3q-6-2-13 1c-3 8-2 42-2 52q-14 2-28-1l-1-3v-49h-36v53h-29q2-25-3-49c-4-6-2-4-11-5-6-4-4-3-6-12"/><path fill="#b1b1af" d="m403 2799-5-1-1-2h-5l1 1 2-2q10 0 15 4c4 13 3 35 4 50 63 3 69-10 67 58l-8 6c-19 3-44 1-62 1l2-2c0-15 1-40-1-54l-4-2c-7-9-3-42-2-55z"/><path fill="#070706" d="m403 2799-5-1-1-2h-5l1 1 2-2q10 0 15 4c4 13 3 35 4 50 63 3 69-10 67 58l-8 6c-19 3-44 1-62 1l2-2c13-1 44 3 52-5 6-13 6-32 1-45-11-8-40-5-54-4l-4-2c-7-9-3-42-2-55z"/><path fill="#f4f5f3" d="M610 3522c33-3 52-2 51 37-1 33-4 14-18 29l1 2c10 0 15-3 18 7-21 2-23 2-43-4-35-9-45-57-9-71"/><path fill="#070706" d="M623 3531c12 5 8 41 4 50-4-3-3-1-5-6-2-13-3-32 1-44"/><path fill="#e7e6e2" d="M646 3092h115v11c0 14 1 17-9 26-23 5-21 1-43-1-13 1-25 6-38 5-27-1-25-19-25-41"/><path fill="#0f100d" d="M665 3111c9-1 26-4 33 2q-16 7-33-2M715 3111c9-1 19-4 26 3q-15 6-26-3"/><path fill="#f4f5f3" d="M2833 2510h26v26l49 1v-27h25v68h-25l-1-28h-48v28l-25-1zM3367 2510h26v27h47v-27h26v68h-26v-28l-47-1v28h-25zM727 3179c7-1 20 2 26 6l1 9c-7 10-9 0-18 8 3 8 19 3 19 17l-4 6c-23 9-60-4-84 2-9 2-11 5-19 2q-6-14 8-21c15 0 58 3 68-4v-3c-16-8-73 4-78 2-2-5-2-3-1-8 5-26 58-5 82-16M3003 1920c0 8-2 20 5 25 9-6 1-11 5-24 6-2 21-2 28-2v67l-29 1c0-10 2-19-3-26h-3q-4 12-3 25l-29 1v-67zM3532 1920h24l17 30c0-9-2-21 3-28 6-4 14-2 22-2l-1 66h-25l-16-30v30q-13 1-23-2c-3-15-1-47-1-64M3330 1920h24l16 30v-30h26l-1 66-26 1-15-31c0 12 5 24-7 30q-9 2-16-1c-3-14-2-50-1-65M2784 158l114-1v35h-113z"/><path fill="#070706" d="m1042 2839-15-3 2 1 1-3c15 0 35-2 48 5l2 6-1 1-6-7-1 2c0 28 12 74-27 71-9-3-15 0-24-4l3-2-2-1c-3-6-2-24-2-32q-2-15 1-29c7-6 11-4 21-5"/><path fill="#b1b1af" d="M1020 2873q-2-15 1-29c7-6 11-4 21-5v66c-8 2-10 1-18 1l-2-1c-3-6-2-24-2-32M1055 2839c6 1 6 1 11 4 6 14 4 49 1 63-6 0-4 1-10-1-5-11-2-51-2-66"/><path fill="#f4f5f3" d="M3651 1949c0-8-2-21 3-27q10-5 22-2v66l-27 1q-6-16-15-29v29l-24-1v-66h24zM3194 1950c0-10-4-24 5-30q10-1 18 2c2 14 1 50 1 65h-26l-15-30v29h-25v-66h25zM2622 2510c23 0 55-1 78 1q5 1 5 6l-2 4c-18 4-46-5-56 7 1 7-1 4 3 9 12 3 29-1 44 1 5 3 3 1 6 7l-3 3q-16 3-33 2h-14c-4 5-3 2-4 9 15 13 53-3 61 13l-2 4c-8 3-70 2-83 2zM2168 1920h42l18 66-30 1-3-11-5-3c-6 3-5 6-9 13l-29 1z"/><path fill="#0f100d" d="M2188 1939q8 13 4 27l-6-4q-1-11 2-23"/><path fill="#f4f5f3" d="M3695 1920h43l18 67h-28c-4-3-2-2-4-9-3-5-1-3-8-4-4 3-3 5-5 11-7 3-23 2-31 1q9-32 15-66"/><path fill="#0f100d" d="M3718 1937c3 12 9 20-1 29l-3-4q0-12 4-25"/><path fill="#f4f5f3" d="M2637 1920h44c3 19 11 47 16 66l-29 1c-5-8 3-5-8-13l-6 7c-9 8-19 6-32 6z"/><path fill="#0f100d" d="M2659 1939c6 7 5 19 2 27l-5-4q-1-11 3-23"/><path fill="#f4f5f3" d="M2830 1920h43l17 67h-30q2-10-6-14c-6 3-5 3-8 10l-2 2q-13 4-29 1z"/><path fill="#070706" d="M2852 1939q6 12 4 26-4-1-7-4-2-10 3-22"/><path fill="#f4f5f3" d="M3265 1920h42c4 20 12 47 18 67h-31c-1-9 0-8-5-14-6 2-6 4-11 12q-13 3-29 2z"/><path fill="#0f100d" d="M3286 1939q6 13 3 26l-6-3q-2-11 3-23"/><path fill="#f4f5f3" d="M2406 1920h42l17 66h-30c-1-8 0-7-5-13-6 2-6 5-10 12-8 2-21 1-31 1q9-33 17-66"/><path fill="#0f100d" d="M2427 1939c6 6 5 19 2 27l-5-4q-2-11 3-23"/><path fill="#f4f5f3" d="M3088 1920h42l18 66h-30c-4-7 3-3-6-12-23 12-5 14-40 12z"/><path fill="#060e04" d="M3109 1938q8 13 2 28l-5-4q-1-12 3-24"/><path fill="#f4f5f3" d="M646 3357q1-10 4-18c17-1 73-2 87 1 6 7 4 27-2 35l-9 3h-46c-11-1-20 2-29-1-5-7-3-6-4-16z"/><path fill="#0f100d" d="M646 3357c15-2 67-4 79 2-7 4-66 2-78 2z"/><path fill="#f4f5f3" d="M444 3521c17 0 44 3 38 28-5 4-16 5-22 2-8-4-7-12-13-18l-4 1c-4 7-4 39 1 46h2c7-8 4-9 8-17l6-1c12-1 15-3 22 7q2 4 0 8c-10 15-44 18-58 9-18-12-19-39-7-55 6-9 17-9 27-10M2749 2510c27-2 33-1 60 5l-10 11c-18-3-31-8-46 1l-1 3c14 10 48 7 59 22 12 17-20 24-29 26-12 0-51 1-59-8 3-21 44 5 63-10-6-12-49-8-63-29-1-13 15-17 26-21M2921 1918c19-1 49 2 41 29-6 3-22 3-28 0v-14c-5-4-3-3-9-2l-2 3c-1 12-1 29 4 41l3 1c5-7 3-6 5-16 10 0 26-3 30 8-9 22-41 28-59 15a41 41 0 0 1-9-54c6-8 14-9 24-11M2984 2510c24-2 33 0 58 4-10 12-10 12-26 10-11-1-28-8-33 6 8 9 69 8 63 34-9 9-19 11-31 14-13 0-50 1-59-8l1-4c15-12 49 8 61-5-7-14-62-11-62-36q10-12 28-15"/><path fill="#e7e6e2" d="M728 3266c-21 18-34 25-63 25-24-1-26-35-3-39 7-1 19-4 26 0 3 7 3 4 2 10-8 8-21 1-24 9 15 10 64-38 90-17 6 5 4 3 7 11-1 15-13 26-29 25-6-4-4-2-7-8l1-10z"/><path fill="#060e04" d="M728 3266c9 0 8-1 14 3-6 4-5 3-14 3z"/><path fill="#f4f5f3" d="M2550 1918c12 0 32 0 41 10q4 9-4 14c-14 1-19-9-29-11l-3 4 1 4c28 13 74 39 11 49-12 0-46-1-38-23q12-5 25-2l3 12c6 1 3 1 9-2 0-11-29-16-40-35-1-14 12-17 24-20"/><path fill="#e7e6e2" d="M675 3334c-55-13-24-45 15-41 20 2 36-3 51 16 5 23-27 23-41 24-7 3-18 2-25 1"/><path fill="#060e04" d="M675 3334c7-2 8-2 13-7-2-12-20-10-22-15 10-2 12-1 22-1l4 3-1 4 1 12c4 3 3 2 8 3-7 3-18 2-25 1"/><path fill="#2d2c2d" d="M706 3311c8-1 9-2 17 0l3 4c-8 1-10 2-17 0z"/><path fill="#f4f5f3" d="M680 3378h46l-1 6c12 4 19 8 16 22-11 14-17 13-34 12v-16c-39 46-92-7-37-19z"/><path fill="#0f100d" d="M680 3378h46l-1 6c-22-1-27-2-42 15l-1-14-12-2z"/><path fill="#2d2c2d" d="m682 3385 1 14c-6 7-10 5-17 4 11-11 11 0 16-18M707 3402c7-3 7-3 14-2-8 11-10-1-14 18z"/><path fill="#f4f5f3" d="m702 3144 2-5c20-7 47 9 36 26-8 13-80 12-94 8-2-10 1-8 3-16s-6 4-4-11c13-16 44-11 55 6z"/><path fill="#2d2c2d" d="M702 3144c6 16 14 5 21 13q-14 6-23-5zM659 3155c13-2 19-3 30 2q-15 4-30-2"/><path fill="#e7e6e2" d="M664 3424c20 0 72-8 78 17-4 20-32 30-48 19-2-2-3-9-3-12l1-4c-5-6-23-5-27-2 8 4 20 6 25 12-4 28-78-8-26-30"/><path fill="#0f100d" d="M708 3441c9-1 11-2 16 4-6 1-8 2-15 0z"/><path fill="#f4f5f3" d="m3466 1921 3 1 3-2c9 0 45-2 50 2 0 7 1 4-3 9-6 2-16 3-19 7 2 5 1 4 5 8 8 0 11-1 17 3-1 7 0 4-4 9-10 1-12-1-16 4 0 8-2 6 2 10 6 1 17 2 21 6 0 5 1 3-3 7-14 2-36 2-51 2-4-10 1-41-2-56-8 4-10 4-19 3l12-2c5-5 3-3 4-11"/><path fill="#2d2c2d" d="m3466 1921 3 1 3-2c0 12 1 58-1 67-4-10 1-41-2-56-8 4-10 4-19 3l12-2c5-5 3-3 4-11"/><path fill="#f4f5f3" d="M260 3655c43-3 74 29 21 46-48 1-79-32-21-46M353 3522h8c9-1 29-1 36 6 14 18-16 41-27 50 10 0 23-2 30 5l-2 3q-14 6-29 3c-8 1-25 1-30-1 0-16 35-36 37-53-4-4-1-3-8-3-8 12-18 24-31 9q3-13 16-19"/><path fill="#bfbab1" d="M671 3702c12 0 53-2 62 2 3 9-10 32-9 48l-52-1z"/><path fill="#e7e6e2" d="M740 3751c0-6-1-17 2-22 27-4 84 0 114-1 8 0 9 1 14 6l-4 2-6-1q-4 6-3 17c-21-3-92-1-117-1"/><path fill="#a7a8a6" d="M1204 3143c17 0 123-2 130 2q3 7 1 15c-14 6-119 7-129-1q-3-7-2-16"/><path fill="#f4f5f3" d="M3255 2510c15 0 91-6 95 9l-2 2q-15 3-32 2v55l-26-1v-54c-11 0-18 2-30-1-5-4-4-3-5-12M2498 1920h26l-14 28c-9 16-8 20-7 38h-28c2-30-7-39-20-66h27l7 23zM666 3522c11 0 56-1 64 1 4 6 3 2 2 10l-3 3c-6 0-8-1-14 1-3 9-1 31-1 42l-1 8c-6 4-20 2-29 2 1-13 3-45-3-54h-12c-4-5-3-4-3-13M3419 1987c0-15 2-37-1-51-6-8-6 1-17-6-1-6-1-3 1-8 7-4 54-2 64-1-1 8 1 6-4 11l-12 2h-1c-2 7-1 43-1 52zM797 3672c20 0 66 0 81 8 6 12-6 16-16 22q-7-1-16-3c-17-8-51 9-65-8-2-6-1-6 0-12 7-6 7-4 16-7M2232 1920h30c0 12-3 41 4 51 1 2 7 2 10 3 6 4 4 4 6 12l-50 1zM550 3522h30v67h-30zM299 3522h29v67h-29zM3214 2510h24v68h-24zM522 3521l19 1c1 4-27 60-31 68-8 1-11 1-19-1 0-8 26-58 31-68"/><path fill="#e7e6e2" d="M532 3358c15-1 21 0 32 9 3 8 3 4 1 12-6 6-8 6-16 10h-5c-12 0-32-4-28-20 5-7 9-8 16-11"/><path fill="#f4f5f3" d="M1068 3011c-13 1-47 5-37-19 12-9 29-10 41 0 3 8 2 4 0 12-4 5-4 2-4 7"/><path fill="#070706" d="M1480 2056c-10-1-63-3-69 1-2 11 0 20-3 26l-3-1c0-11 3-14 3-27l3-4c16-1 61-1 78 2 8 8 4 33 0 43l-8-2z"/><path fill="#b1b1af" d="m856 2839 4 1c5 7 7 59-2 68l-6-5c-7-13-6-53 4-64"/><path fill="#e7e6e2" d="m448 3711 1-4c14-2 60-2 72 2v4c-16 11-51-5-61 11-7 1-4 2-9-1z"/><path fill="#070706" d="m1189 2680 3 3v46c15 3 41 1 58 3-16 2-50 1-68 1-1-14 5-46-10-51h7z"/><path fill="#e7e6e2" d="M553 3724c0-10-1-9 4-14 18-5 44-1 64-1l3 2-1 4c-17 7-54-6-60 12z"/><path fill="#070706" d="M1077 2680h3v49c6 2 44 2 54 3l-66 2c1-15 5-38 0-52z"/><path fill="#4c4d4d" d="M1082 3038c0 11-1 40 1 50l9 7 1 6q-18 23-12 52l-4-9c-2-26 1-77 1-106z"/><path fill="#bfbab1" d="m448 3711 3 12c5 3 2 2 9 1v26l-12 1v-16q-15 2-29 0l-1-4c7-9 16-1 26-4 5-7 4-6 4-16"/><path fill="#b1b1af" d="m448 3735 8 1 4-11v25l-12 1z"/><path fill="#070706" d="M1376 2675c1 14 6 42 2 54-9 10-25 3-38 4-5 0-29 0-31-2 13-5 46 4 57-3l1-2c3-4 4-35 9-51M728 2092c1-14-3-22-1-34 10-11 52-4 72-4l1 2c-16-1-48-2-64 0 0 10-1 30 2 39l-3 1z"/><path fill="#b1b1af" d="m344 3750-5-1-2-10-3-3h-14l-2-4c3-5 1-3 9-5q4-7 4-20 0 11 5 19c3 2 1 1 6 0l3-3zM553 3724l10 3 1 12q0 7-2 13h-2q-1-6-4-14l-5-1q-10 2-19-3v-3q7-4 19-4z"/><path fill="#a7a8a6" d="m551 3737 5-1 6 4 2-1q0 7-2 13h-2q-1-6-4-14z"/><path fill="#bfbab1" d="M101 2857c2 8 2 43 0 52h-3c-2-12-3-41 3-52"/><path fill="#e7e6e2" d="M294 3708a9 9 0 1 1 12 13 9 9 0 0 1-12-13"/><path fill="#b1b1af" d="M1068 3011c0-5 0-2 4-7l8 6c4 10 2 17 2 28h-4c0-13 2-20-10-27M637 3728c12 0 21-4 26 8-12 1-21 5-26-8"/><path fill="#f4f5f3" d="M976 3149c10-1 23-4 31 4-12 2-22 4-31-4"/><path fill="#060e04" d="M1363 150c6 5 3 28 2 37l-2-3q-4-18 0-34"/><path fill="#e7e6e2" d="M916 3149c10-1 21-4 26 4q-11 3-23 0z"/><path fill="#f4f5f3" d="m1077 3144 4 9q-10 3-19-1c4-6 6-5 15-8"/><path fill="#060e04" d="m923 149 2 3q2 15 1 31l-3-3q-2-15 0-31"/><path fill="#bfbab1" d="M2597 2649c14-2 22-4 34 2-12 1-23 3-34-2"/><path fill="#a7a8a6" d="M976 3009c10-1 24-3 34 2q-18 4-34-2"/><path fill="#b1b1af" d="M915 3009q16-3 30 2c-11 2-21 4-30-2"/><path fill="#060e04" d="M1145 149c5 9 4 23 1 32-3-9-2-23-1-32M959 3147c5 1 5 1 9 4 0 6 1 3-3 8-7-2-7-1-10-6zM1017 3148c7 0 8-1 14 2l1 6c-8 1-7 2-13-1z"/><path fill="#e7e6e2" d="m1043 3148 9 3-3 2c-5 1-3 1-8-1z"/></svg>